<?xml version="1.0" encoding="UTF-8"?>
<svg id="Layer_2" data-name="Layer 2" xmlns="http://www.w3.org/2000/svg" viewBox="0 0 229 169.54">
  <defs>
    <style>
      .cls-1 {
        fill: #fff;
      }

      .cls-2 {
        fill: none;
        stroke: #fff;
        stroke-linecap: round;
        stroke-miterlimit: 10;
      }
    </style>
  </defs>
  <g id="Layer_1-2" data-name="Layer 1">
    <g>
      <g id="logo">
        <path class="cls-1" d="M35.08,28.1h-3.24c-1.18,0-2.07-.31-2.68-.92-.61-.61-.92-1.51-.92-2.68s.26-2.07,.77-2.68c.52-.61,1.25-.92,2.21-.92h3.85c.24,0,.36-.12,.36-.36v-6.3c0-.24-.12-.36-.36-.36h-2.92c-.24,0-.36,.12-.36,.36v1.26c0,.98-.32,1.75-.95,2.29-.64,.54-1.52,.81-2.65,.81s-2.06-.31-2.66-.92c-.6-.61-.9-1.51-.9-2.68v-.36c0-.98,.32-1.75,.95-2.29,.64-.54,1.51-.81,2.61-.81h10.84c1.18,0,2.07,.31,2.68,.92s.92,1.51,.92,2.68V31.88c0,1.18-.31,2.07-.92,2.68-.61,.61-1.51,.92-2.68,.92h-.72c-.24,0-.36,.12-.36,.36v.9c0,1.18-.31,2.07-.92,2.68-.61,.61-1.51,.92-2.68,.92h-6.12c-1.18,0-2.07-.31-2.68-.94-.61-.62-.92-1.51-.92-2.66v-3.24c0-1.18,.26-2.07,.77-2.68,.52-.61,1.27-.92,2.25-.92s1.7,.31,2.21,.92,.77,1.51,.77,2.68v4.14c0,.24,.12,.36,.36,.36h4.07c.24,0,.36-.12,.36-.36v-9.18c0-.24-.12-.36-.36-.36Z"/>
        <path class="cls-1" d="M45.83,39.3c-.68-.7-1.03-1.57-1.03-2.63v-7.06c0-1.06,.35-1.93,1.04-2.63s1.57-1.04,2.63-1.04h.83c.24,0,.36-.12,.36-.36v-3.17c0-1.06,.35-1.93,1.04-2.63,.7-.7,1.57-1.04,2.63-1.04h1.91c.24,0,.36-.12,.36-.36v-3.24c0-1.13,.35-2.01,1.04-2.65,.7-.64,1.55-.95,2.56-.95s1.92,.35,2.59,1.04c.67,.7,1.01,1.57,1.01,2.63v16.85c0,1.18-.31,2.07-.92,2.68-.61,.61-1.51,.92-2.68,.92h-.9c-.24,0-.36,.12-.36,.36v.72c0,1.18-.31,2.07-.92,2.68s-1.51,.92-2.68,.92h-5.94c-1.03,0-1.89-.35-2.57-1.04Zm6.53-4.36h2.88c.24,0,.36-.12,.36-.36v-10.08c0-.24-.12-.36-.36-.36h-2.88c-.24,0-.36,.12-.36,.36v10.08c0,.24,.12,.36,.36,.36Z"/>
        <path class="cls-1" d="M73.19,39.3c-.68-.7-1.03-1.57-1.03-2.63V15.21c0-1.06,.34-1.93,1.03-2.63,.68-.7,1.54-1.04,2.57-1.04s1.89,.35,2.57,1.04c.68,.7,1.03,1.57,1.03,2.63v3.17c0,.24,.12,.36,.36,.36h1.91c1.06,0,1.93,.35,2.63,1.04,.7,.7,1.04,1.57,1.04,2.63v.65c0,.24,.12,.36,.36,.36h.83c1.06,0,1.93,.35,2.63,1.04,.7,.7,1.04,1.57,1.04,2.63v4.97c0,1.18-.31,2.07-.92,2.68-.61,.61-1.51,.92-2.68,.92h-.9c-.24,0-.36,.12-.36,.36v.72c0,1.18-.31,2.07-.92,2.68-.61,.61-1.51,.92-2.68,.92h-5.94c-1.03,0-1.89-.35-2.57-1.04Zm6.53-4.36h2.88c.24,0,.36-.12,.36-.36v-10.08c0-.24-.12-.36-.36-.36h-2.88c-.24,0-.36,.12-.36,.36v10.08c0,.24,.12,.36,.36,.36Z"/>
        <path class="cls-1" d="M93.24,39.42c-.61-.61-.92-1.51-.92-2.68v-9.54c0-1.18,.31-2.07,.92-2.68,.61-.61,1.51-.92,2.68-.92h.72c.24,0,.36-.12,.36-.36v-.9c0-1.18,.31-2.07,.92-2.68,.61-.61,1.51-.92,2.68-.92h6.12c1.18,0,2.07,.31,2.68,.94,.61,.62,.92,1.51,.92,2.66v5.76c0,1.18-.26,2.07-.77,2.68-.52,.61-1.25,.92-2.21,.92h-7.45c-.24,0-.36,.12-.36,.36v5.58c0,.24,.12,.36,.36,.36h2.92c.24,0,.36-.12,.36-.36v-1.26c0-.98,.32-1.75,.95-2.29s1.52-.81,2.65-.81,2.06,.31,2.66,.92c.6,.61,.9,1.51,.9,2.68v.36c0,.98-.32,1.75-.95,2.29s-1.51,.81-2.61,.81h-10.84c-1.18,0-2.07-.31-2.68-.92Zm6.64-13.12h4.07c.24,0,.36-.12,.36-.36v-4.5c0-.24-.12-.36-.36-.36h-4.07c-.24,0-.36,.12-.36,.36v4.5c0,.24,.12,.36,.36,.36Z"/>
        <path class="cls-1" d="M129.56,39.42c-.61,.61-1.51,.92-2.68,.92h-10.8c-1.03,0-1.89-.35-2.57-1.04-.68-.7-1.03-1.57-1.03-2.63v-1.3c0-1.06,.35-1.93,1.04-2.63,.7-.7,1.57-1.04,2.63-1.04h.83c.24,0,.36-.12,.36-.36v-1.73c0-1.06,.35-1.93,1.04-2.63,.7-.7,1.57-1.04,2.63-1.04h1.91c.24,0,.36-.12,.36-.36v-4.14c0-.24-.12-.36-.36-.36h-2.88c-.24,0-.36,.12-.36,.36v.9c0,1.18-.3,2.07-.92,2.68-.61,.61-1.51,.92-2.68,.92s-2.07-.31-2.68-.92c-.61-.61-.92-1.51-.92-2.68s.31-2.07,.92-2.68c.61-.61,1.51-.92,2.68-.92h10.8c1.05,0,1.92,.35,2.59,1.04,.67,.7,1.01,1.57,1.01,2.63v14.33c0,1.18-.31,2.07-.92,2.68Zm-9.52-3.04h2.88c.24,0,.36-.12,.36-.36v-7.38c0-.24-.12-.36-.36-.36h-2.88c-.24,0-.36,.12-.36,.36v7.38c0,.24,.12,.36,.36,.36Z"/>
        <path class="cls-1" d="M133.67,39.3c-.68-.7-1.03-1.57-1.03-2.63v-7.06c0-1.06,.35-1.93,1.04-2.63,.7-.7,1.57-1.04,2.63-1.04h.83c.24,0,.36-.12,.36-.36v-3.17c0-1.06,.35-1.93,1.04-2.63,.7-.7,1.57-1.04,2.63-1.04h1.91c.24,0,.36-.12,.36-.36v-3.24c0-1.13,.35-2.01,1.04-2.65,.7-.64,1.55-.95,2.56-.95s1.92,.35,2.59,1.04c.67,.7,1.01,1.57,1.01,2.63v16.85c0,1.18-.31,2.07-.92,2.68-.61,.61-1.51,.92-2.68,.92h-.9c-.24,0-.36,.12-.36,.36v.72c0,1.18-.31,2.07-.92,2.68s-1.51,.92-2.68,.92h-5.94c-1.03,0-1.89-.35-2.57-1.04Zm6.54-4.36h2.88c.24,0,.36-.12,.36-.36v-10.08c0-.24-.12-.36-.36-.36h-2.88c-.24,0-.36,.12-.36,.36v10.08c0,.24,.12,.36,.36,.36Z"/>
        <path class="cls-1" d="M153.36,17.28c-.61-.61-.92-1.51-.92-2.68s.3-2.07,.92-2.68c.61-.61,1.51-.92,2.68-.92h3.56c1.18,0,2.07,.31,2.68,.92,.61,.61,.92,1.51,.92,2.68s-.31,2.07-.92,2.68c-.61,.61-1.51,.92-2.68,.92h-3.56c-1.18,0-2.07-.31-2.68-.92Zm.49,17.33c.7,.7,1.57,1.04,2.63,1.04h.83c.24,0,.36,.12,.36,.36v.65c0,1.06,.35,1.93,1.04,2.63,.7,.7,1.57,1.04,2.63,1.04,1.15,0,2.04-.31,2.65-.94,.61-.62,.92-1.51,.92-2.66v-.04c0-1.15-.32-2.03-.95-2.65-.64-.61-1.53-.92-2.68-.92h-.9c-.24,0-.36-.12-.36-.36v-10.37c0-1.06-.34-1.93-1.03-2.63-.68-.7-1.54-1.04-2.57-1.04s-1.89,.35-2.57,1.04c-.68,.7-1.03,1.57-1.03,2.63v9.58c0,1.06,.35,1.93,1.04,2.63Z"/>
        <path class="cls-1" d="M167.36,39.3c-.68-.7-1.03-1.57-1.03-2.63v-14.26c0-1.06,.35-1.93,1.04-2.63,.7-.7,1.57-1.04,2.63-1.04h5.8c1.06,0,1.93,.35,2.63,1.04,.7,.7,1.04,1.57,1.04,2.63v3.17c0,.24,.12,.36,.36,.36h.83c1.06,0,1.93,.35,2.63,1.04,.7,.7,1.04,1.57,1.04,2.63v7.06c0,1.06-.34,1.93-1.03,2.63-.68,.7-1.54,1.04-2.57,1.04s-1.89-.35-2.57-1.04c-.68-.7-1.03-1.57-1.03-2.63v-12.17c0-.24-.12-.36-.36-.36h-2.88c-.24,0-.36,.12-.36,.36v12.17c0,1.06-.34,1.93-1.03,2.63-.68,.7-1.54,1.04-2.57,1.04s-1.89-.35-2.57-1.04Z"/>
        <path class="cls-1" d="M203.49,46.5c-.67,.7-1.54,1.04-2.59,1.04h-10.8c-1.18,0-2.07-.31-2.68-.92-.61-.61-.92-1.51-.92-2.68s.31-2.07,.92-2.68,1.51-.92,2.68-.92,2.07,.31,2.68,.92c.61,.61,.92,1.51,.92,2.68v.9c0,.24,.12,.36,.36,.36h2.88c.24,0,.36-.12,.36-.36v-4.14c0-.24-.12-.36-.36-.36h-1.91c-1.06,0-1.93-.35-2.63-1.04-.7-.7-1.04-1.57-1.04-2.63v-3.17c0-.24-.12-.36-.36-.36h-.83c-1.06,0-1.93-.35-2.63-1.04-.7-.7-1.04-1.57-1.04-2.63v-7.06c0-1.06,.34-1.93,1.03-2.63,.68-.7,1.54-1.04,2.57-1.04h5.94c1.17,0,2.07,.31,2.68,.92,.61,.61,.92,1.51,.92,2.68v.72c0,.24,.12,.36,.36,.36h.9c1.18,0,2.07,.31,2.68,.92,.61,.61,.92,1.51,.92,2.68v16.85c0,1.06-.34,1.93-1.01,2.63Zm-9.43-11.56h2.88c.24,0,.36-.12,.36-.36v-10.08c0-.24-.12-.36-.36-.36h-2.88c-.24,0-.36,.12-.36,.36v10.08c0,.24,.12,.36,.36,.36Z"/>
      </g>
      <path id="logoOffset" class="cls-2" d="M211,16.91c-.73-.73-1.69-1.52-2.91-2.2-.62-1.01-1.31-1.83-1.95-2.48-1.82-1.82-5.05-3.99-10.11-3.99h-5.94c-2.56,0-5,.68-7.13,1.92-2.14-1.24-4.59-1.92-7.16-1.92h-3.46c-.76-1.62-1.74-2.85-2.63-3.74-1.82-1.82-5.05-4-10.11-4h-3.56c-2.14,0-3.94,.4-5.46,.99-1.14-.29-2.32-.45-3.54-.45-3.65,0-6.98,1.28-9.64,3.7-1.61,1.47-2.8,3.28-3.55,5.3-2.09-1.17-4.46-1.8-6.97-1.8h-10.8c-1.8,0-3.36,.28-4.72,.72-1.46-.47-3.02-.72-4.65-.72h-6.12c-4.62,0-7.71,1.82-9.6,3.52-.63-.56-1.29-1.07-2.01-1.5-.68-1.88-1.75-3.59-3.18-5.04-2.65-2.7-6.22-4.18-10.06-4.18-3.03,0-5.89,.94-8.27,2.66-2.37-1.72-5.24-2.66-8.29-2.66-3.65,0-6.98,1.28-9.64,3.7-.12,.11-.23,.24-.35,.36-.02-.02-.04-.05-.06-.07-1.82-1.82-5.05-3.99-10.11-3.99h-10.84c-4.56,0-7.63,1.8-9.4,3.3-3,2.55-4.66,6.21-4.66,10.29v.36c0,4.3,1.57,7.28,3.14,9.18-1.46,1.78-3.14,4.8-3.14,9.32v3.24c0,4.98,2.13,8.19,3.92,10.01,2.58,2.64,6.2,4.09,10.18,4.09h6.12c3,0,5.35-.77,7.15-1.78,2.07,1.15,4.43,1.78,6.89,1.78h5.94c5.05,0,8.28-2.17,10.1-3.99,.24-.24,.48-.51,.72-.79,.18,.2,.34,.4,.53,.59,2.65,2.7,6.23,4.19,10.06,4.19h5.94c2.98,0,5.31-.76,7.11-1.76,1.8,.99,4.13,1.76,7.11,1.76h10.84c1.83,0,3.42-.3,4.78-.75,1.44,.48,2.97,.75,4.54,.75h10.8c1.84,0,3.43-.29,4.81-.75,1.44,.48,2.97,.75,4.55,.75h5.94c4.69,0,7.8-1.87,9.68-3.6,2.59,2.32,5.91,3.6,9.47,3.6,1.52,0,2.99-.22,4.37-.63,1.35,.42,2.77,.63,4.23,.63,1.89,0,3.72-.36,5.4-1.05,.68,.28,1.38,.49,2.1,.65,.75,1.54,1.69,2.74,2.55,3.6,1.82,1.82,5.05,3.99,10.11,3.99h10.8c3.9,0,7.5-1.51,10.15-4.25,2.55-2.64,3.95-6.16,3.95-9.92V27.02c0-5.05-2.17-8.29-4-10.11Z"/>
    </g>
    <path id="sign" class="cls-2" d="M214.93,45.25c.04-.46,.06-.92,.06-1.38V27.02c0-5.05-2.17-8.29-4-10.11-.73-.73-1.69-1.52-2.91-2.2-.62-1.01-1.31-1.83-1.95-2.48-1.82-1.82-5.05-3.99-10.11-3.99h-5.94c-2.56,0-5,.68-7.13,1.92-2.14-1.24-4.59-1.92-7.16-1.92h-3.46c-.76-1.62-1.74-2.85-2.63-3.74-1.82-1.82-5.05-4-10.11-4h-3.56c-2.14,0-3.94,.4-5.46,.99-1.14-.29-2.32-.45-3.54-.45-3.65,0-6.98,1.28-9.64,3.7-1.61,1.47-2.8,3.28-3.55,5.3-2.09-1.17-4.46-1.8-6.97-1.8h-10.8c-1.8,0-3.36,.28-4.72,.72-1.46-.47-3.02-.72-4.65-.72h-6.12c-4.62,0-7.71,1.82-9.6,3.52-.63-.56-1.29-1.07-2.01-1.5-.68-1.88-1.75-3.59-3.18-5.04-2.65-2.7-6.22-4.18-10.06-4.18-3.03,0-5.89,.94-8.27,2.66-2.37-1.72-5.24-2.66-8.29-2.66-3.65,0-6.98,1.28-9.64,3.7-.12,.11-.23,.24-.35,.36-.02-.02-.04-.05-.06-.07-1.82-1.82-5.05-3.99-10.11-3.99h-10.84c-4.56,0-7.63,1.8-9.4,3.3-3,2.55-4.66,6.21-4.66,10.29v.36c0,4.3,1.57,7.28,3.14,9.18-1.46,1.78-3.14,4.8-3.14,9.32v3.24c0,3.68,1.17,6.4,2.5,8.3h-.13C7.67,45.04,.5,52.21,.5,61.06v91.97c0,8.85,7.17,16.02,16.02,16.02H212.48c8.85,0,16.02-7.17,16.02-16.02V61.06c0-8.01-5.89-14.63-13.57-15.81Z"/>
  </g>
</svg>