<?xml version="1.0" encoding="utf-8"?>
<!-- Generator: Adobe Illustrator 27.0.0, SVG Export Plug-In . SVG Version: 6.00 Build 0)  -->
<svg version="1.1" id="Layer_1" xmlns="http://www.w3.org/2000/svg" xmlns:xlink="http://www.w3.org/1999/xlink" x="0px" y="0px"
	 viewBox="0 0 40 40" style="enable-background:new 0 0 40 40;" xml:space="preserve">
<style type="text/css">
	.st0{fill:#FF7F00;}
	.st1{fill:#FF4800;}
	.st2{fill:#FFBC00;}
	.st3{fill:#AD4831;}
	.st4{fill:#893210;}
	.st5{fill:#3D3D3D;}
</style>
<g>
	<path class="st0" d="M14.7,0c-4.4,0.9-7.8,6.5-7.8,13.2c0,6.7,3.4,9,7.8,9.4V0z"/>
	<path class="st1" d="M14.7,0c4.4,0.9,7.8,6.5,7.8,13.2c0,6.7-3.4,9-7.8,9.4V0z"/>
	<path class="st2" d="M14.7,8c-2.5,0.6-5,4.2-5,8.5c0,4.3,2.5,5.8,5,6V8z"/>
	<path class="st0" d="M14.7,8c3.1,0.6,5,4.2,5,8.5c0,4.3-1.9,5.8-5,6V8z"/>
	<path class="st3" d="M35,37.4c0.6,0.6,0.6,1.6,0,2.2l0,0c-0.6,0.6-1.6,0.6-2.2,0L15.1,21.8c-0.6-0.6-0.6-1.6,0-2.2l0,0
		c0.6-0.6,1.6-0.6,2.2,0L35,37.4z"/>
	<path class="st4" d="M15.1,19.6L15.1,19.6c0.6-0.6,1.6-0.6,2.2,0L35,37.4c0.6,0.6,0.6,1.6,0,2.2l0,0"/>
	<path class="st5" d="M11.5,21c-1.5-1.5-1.5-3.7-0.2-5.1c1.4-1.4,3.7-1.3,5.1,0.2c1.5,1.5,2.5,4.7,1.2,6.1
		C16.2,23.5,12.9,22.4,11.5,21z"/>
	<path d="M17.6,22.1c-1.4,1.4-4.7,0.3-6.1-1.2c-1.5-1.5-1.5-3.7-0.2-5.1"/>
</g>
</svg>
