<?xml version="1.0" encoding="iso-8859-1"?>
<!-- Uploaded to: SVG Repo, www.svgrepo.com, Generator: SVG Repo Mixer Tools -->
<svg height="800px" width="800px" version="1.1" id="Layer_1" xmlns="http://www.w3.org/2000/svg" xmlns:xlink="http://www.w3.org/1999/xlink" 
	 viewBox="0 0 504.133 504.133" xml:space="preserve">
<path style="fill:#FF7F00;" d="M170.366,0c-55.138,11.847-98.194,81.676-98.194,166.337c0,84.645,43.055,113.357,98.194,117.847V0z"
	/>
<path style="fill:#FF4800;" d="M170.366,0c55.138,11.847,98.202,81.676,98.202,166.337c0,84.645-43.063,113.357-98.202,117.847V0z"
	/>
<path style="fill:#FFBC00;" d="M170.366,100.51c-31.508,7.617-63.449,52.768-63.449,107.488c0,54.737,31.941,73.295,63.449,76.186
	V100.51z"/>
<path style="fill:#FF7F00;" d="M170.366,100.51c39.385,7.617,63.441,52.768,63.441,107.488c0,54.737-24.056,73.295-63.441,76.186
	V100.51z"/>
<path style="fill:#AD4831;" d="M426.295,471.111c7.546,7.554,7.546,19.803-0.008,27.357l0,0c-7.546,7.554-19.787,7.554-27.341,0
	L175.312,274.834c-7.546-7.554-7.546-19.803,0-27.341l0,0c7.562-7.554,19.81-7.554,27.349,0L426.295,471.111z"/>
<path style="fill:#893210;" d="M175.312,247.493L175.312,247.493c7.562-7.554,19.81-7.554,27.349,0l223.642,223.618
	c7.546,7.554,7.546,19.803-0.008,27.357l0,0"/>
<path style="fill:#3D3D3D;" d="M129.429,264.09c-18.337-18.353-19.22-47.199-1.969-64.465c17.274-17.258,46.119-16.384,64.465,1.969
	c18.345,18.322,31.909,59.865,14.643,77.139C189.31,295.983,147.767,282.419,129.429,264.09z"/>
<path d="M206.568,278.741c-17.25,17.243-58.801,3.678-77.139-14.643c-18.337-18.353-19.22-47.199-1.969-64.465"/>
</svg>