<?xml version="1.0" encoding="utf-8"?>
<!-- Generator: Adobe Illustrator 27.0.0, SVG Export Plug-In . SVG Version: 6.00 Build 0)  -->
<svg version="1.1" id="Layer_1" xmlns="http://www.w3.org/2000/svg" xmlns:xlink="http://www.w3.org/1999/xlink" x="0px" y="0px"
	 viewBox="0 0 338.6 1045.9" style="enable-background:new 0 0 338.6 1045.9;" xml:space="preserve">
<style type="text/css">
	.st0{fill:#F7B239;}
	.st1{fill:#999999;}
	.st2{fill:#F95428;}
</style>
<g id="Spark">
	<path class="st0" d="M296.6,1002c-4.3,4.4-11.4,4.4-15.8,0.1l-18.5-18.3c-4.4-4.3-4.4-11.4-0.1-15.8s11.4-4.4,15.8-0.1l18.5,18.3
		C300.9,990.5,301,997.6,296.6,1002z"/>
	<path class="st0" d="M176.8,984.2l-18.3,18.4c-4.3,4.4-11.4,4.4-15.8,0.1c-4.4-4.3-4.4-11.4-0.1-15.8l18.3-18.4
		c4.3-4.4,11.4-4.4,15.8-0.1S181.1,979.8,176.8,984.2z"/>
	<path class="st0" d="M324.9,932.8c-2,2-4.8,3.3-7.9,3.3l-26,0.1c-6.2,0-11.2-4.9-11.2-11.1c0-6.2,4.9-11.2,11.1-11.2l26-0.1
		c6.2,0,11.2,4.9,11.2,11.1C328.1,927.9,326.9,930.7,324.9,932.8z"/>
	<path class="st0" d="M227.7,1030.9c-2,2-4.8,3.3-7.9,3.3c-6.2,0-11.2-4.9-11.2-11.1l-0.1-26c0-6.2,4.9-11.2,11.1-11.2
		s11.2,4.9,11.2,11.1l0.1,26C231,1026.1,229.7,1028.9,227.7,1030.9z"/>
	<path class="st0" d="M295.9,863.8l-18.3,18.4c-4.3,4.4-11.4,4.4-15.8,0.1c-4.4-4.3-4.4-11.4-0.1-15.8l18.3-18.4
		c4.3-4.4,11.4-4.4,15.8-0.1C300.2,852.4,300.2,859.5,295.9,863.8z"/>
	<g>
		<path class="st0" d="M157.7,933.5c-2,2-4.8,3.3-7.9,3.3l-26,0.1c-6.2,0-11.2-4.9-11.2-11.1c0-6.2,4.9-11.2,11.1-11.2l26-0.1
			c6.2,0,11.2,4.9,11.2,11.1C161,928.7,159.7,931.5,157.7,933.5z"/>
		<path class="st0" d="M178.5,882.7c-4.3,4.4-11.4,4.4-15.8,0.1l-18.5-18.3c-4.4-4.3-4.4-11.4-0.1-15.8s11.4-4.4,15.8-0.1l18.5,18.3
			C182.8,871.3,182.8,878.3,178.5,882.7z"/>
	</g>
</g>
<g id="rocketBody">
	<path class="st1" d="M230.7,928.4c-2.7,2.8-6.5,4.5-10.7,4.5c-8.4,0-15.2-6.7-15.3-15.1l-1.3-243.4c0-8.4,6.7-15.2,15.1-15.3
		c8.4,0,15.2,6.7,15.3,15.1l1.3,243.4C235.1,921.8,233.4,925.6,230.7,928.4z"/>
	<polygon class="st0" points="233.1,527.6 233.8,674.2 60.5,675.1 	"/>
	<polygon class="st0" points="231.6,242 232.9,480.5 60,575.6 58.8,337.1 	"/>
	<polygon class="st0" points="231.3,184.7 231.5,224.1 58.8,337.1 57.9,147.9 	"/>
	<g>
		<polygon class="st2" points="231.3,184.7 232,316.5 59.2,411.6 58.5,279.8 		"/>
		<polygon class="st2" points="232.7,448.2 233.4,580 60.5,675.1 59.9,543.4 		"/>
		<polygon class="st2" points="143.8,19.1 280.8,184.4 231.3,184.7 58,185.6 8.6,185.9 		"/>
	</g>
</g>
</svg>
