<?xml version="1.0" encoding="UTF-8"?>
<svg id="Layer_2" data-name="Layer 2" xmlns="http://www.w3.org/2000/svg" xmlns:xlink="http://www.w3.org/1999/xlink" viewBox="0 0 935.89 1411.29">
  <defs>
    <style>
      .cls-1 {
        fill: url(#radial-gradient);
      }

      .cls-1, .cls-2 {
        stroke: #fff;
        stroke-miterlimit: 10;
        stroke-width: 2px;
      }

      .cls-2 {
        fill: url(#radial-gradient-2);
      }
    </style>
    <radialGradient id="radial-gradient" cx="459.18" cy="643.35" fx="459.18" fy="643.35" r="597.73" gradientUnits="userSpaceOnUse">
      <stop offset=".25" stop-color="#ffff93" stop-opacity=".2"/>
      <stop offset=".28" stop-color="#ffff95" stop-opacity=".22"/>
      <stop offset=".32" stop-color="#ffff9b" stop-opacity=".27"/>
      <stop offset=".36" stop-color="#ffffa6" stop-opacity=".35"/>
      <stop offset=".4" stop-color="#ffffb5" stop-opacity=".46"/>
      <stop offset=".44" stop-color="#ffffc9" stop-opacity=".6"/>
      <stop offset=".48" stop-color="#ffffe1" stop-opacity=".78"/>
      <stop offset=".52" stop-color="#fffffd" stop-opacity=".99"/>
      <stop offset=".53" stop-color="#fff"/>
      <stop offset=".55" stop-color="#f2f8fc" stop-opacity=".88"/>
      <stop offset=".58" stop-color="#e6f2f9" stop-opacity=".75"/>
      <stop offset=".61" stop-color="#dbedf7" stop-opacity=".64"/>
      <stop offset=".64" stop-color="#d3e9f5" stop-opacity=".55"/>
      <stop offset=".67" stop-color="#cce6f3" stop-opacity=".48"/>
      <stop offset=".71" stop-color="#c7e3f2" stop-opacity=".44"/>
      <stop offset=".76" stop-color="#c4e2f2" stop-opacity=".41"/>
      <stop offset=".85" stop-color="#c4e2f2" stop-opacity=".4"/>
      <stop offset=".95" stop-color="#c4e2f2" stop-opacity=".54"/>
      <stop offset="1" stop-color="#c4e2f2" stop-opacity=".6"/>
    </radialGradient>
    <radialGradient id="radial-gradient-2" cx="467.95" cy="705.65" fx="467.95" fy="705.65" r="597.73" gradientUnits="userSpaceOnUse">
      <stop offset=".17" stop-color="#e4ff93" stop-opacity=".5"/>
      <stop offset=".31" stop-color="#e3fda4" stop-opacity=".5"/>
      <stop offset=".55" stop-color="#e1f9d2" stop-opacity=".5"/>
      <stop offset=".73" stop-color="#e0f5ff" stop-opacity=".5"/>
    </radialGradient>
  </defs>
  <g id="Layer_1-2" data-name="Layer 1">
    <path class="cls-1" d="M135.47,241.52c-49.94-8.15-56.58-50.1-29.57-89.14-21.03-23.6-14.04-55.28-15.77-84.07-1.43-15.67,5.71-26.72,19.19-31.82C181.89,8.12,261.09,4.43,338.1,2.46c151.64,1.69,305.99-12.25,455.13,21.48,12.81,3.2,25.27,8.6,37.17,14.44,11,5.4,16.59,14.94,15.69,28.01-1.85,29.67,5.96,61.83-16.08,86.31,21.79,26.44,24.91,75.16-14.12,86.47q-15.05,5.15-15.06,21.1c0,3.59,.3,7.2-.05,10.76-6.72,53.41,41.33,70.64,78.37,94.52,37.84,24.06,55.75,58.81,55.68,103.47-.14,87.39,.58,703.07-.86,762.06-1.26,51.56-26.71,89.22-71.54,114.51-196.7,87.42-523.53,76.69-730.65,24.34-63.25-16.69-125.76-61.17-129.19-131.63-3.44-253.59,.3-507.4-1.59-761.05,.52-85.5,44.01-104.16,107.79-144.41,33.18-21.48,26.04-56.89,26.68-91.32Z"/>
    <path class="cls-2" d="M934.83,469.01c.07-44.65-17.84-79.41-55.68-103.47-37.05-23.88-85.1-41.12-78.37-94.52,.35-3.55,.05-7.17,.05-10.76q0-15.95,15.06-21.1c39.03-11.31,35.9-60.02,14.12-86.47,22.03-24.48,14.23-56.64,16.08-86.31,.91-13.07-4.68-22.6-15.69-28.01-11.9-5.84-24.36-11.25-37.17-14.44C644.09-9.79,489.74,4.15,338.1,2.46c-77.01,1.97-156.21,5.66-228.78,34.03-13.48,5.1-20.62,16.15-19.19,31.82,1.72,28.79-5.26,60.48,15.77,84.07-27.01,39.04-20.37,80.99,29.57,89.14-.64,34.43,6.5,69.84-26.68,91.32C45.01,373.08,1.52,391.74,1,477.24c1.89,253.66-1.84,507.46,1.59,761.05,3.44,70.46,65.95,114.94,129.19,131.63,207.12,52.35,533.95,63.08,730.65-24.34,44.83-25.3,70.28-62.96,71.54-114.51,1.45-58.99,.72-674.66,.86-762.06Zm-33.85,761.25c-.93,38.05-17.92,65.35-53.43,85.82-46.42,20.43-87.71,33.52-152.44,43.92-60.86,9.78-123-11-215-11-80.46,0-138.89,19.77-218,16-36.99-1.76-101.48-19.04-133-27-48.63-12.88-90.53-46.11-93.53-100.79-1.91-141.58-1.58-285.72-1.26-425.13,.25-109.74,.51-223.21-.32-334.87,.42-59.51,22.5-73.17,75.76-106.11,5.35-3.31,10.89-6.74,16.64-10.37l.32-.21c19.49-12.62,32.29-30.35,38.03-52.71,4.4-17.12,4.1-33.89,3.8-50.11-.1-5.45-.19-10.59-.1-15.58l.53-28.58-28.21-4.61c-8.96-1.46-15.25-4.54-16.81-8.22-2.09-4.92-.14-16.27,9.06-29.57l14.77-21.35-17.27-19.38c-7.17-8.05-7.39-20.79-7.16-40.92,.09-7.39,.17-15.04-.29-22.96,65.61-25.21,139.26-29.12,215.26-31.08,8.93,.1,18.05,.14,27.86,.14,28.34,0,57.13-.41,84.97-.81,27.69-.39,56.31-.8,84.34-.8,75.35,0,163.97,2.62,250.05,22.04,9.68,2.46,19.48,6.76,27.45,10.59-.38,7.73-.25,15.16-.13,22.37,.35,20.94,.18,33.19-7.41,41.63l-19.01,21.12,18.07,21.93c6.66,8.08,10.09,21.07,7.65,28.96-.66,2.15-1.4,3.64-5.48,4.83l-.76,.22-.75,.25c-10.48,3.59-21.31,7.29-29.34,18.55-8.02,11.23-8.02,22.68-8.03,33.75,0,1.43,.03,2.87,.07,4.3,.03,1.06,.07,2.49,.04,3.14-3.51,29.45,4.55,55.27,23.96,76.74,15,16.59,34.69,28.16,52.07,38.37,6.13,3.6,11.92,7,17.3,10.48l.17,.11c27.61,17.56,40.44,41.57,40.39,75.57-.04,22.45-.02,80.2,0,153.3,.08,211.15,.2,564.56-.86,608Z"/>
  </g>
</svg>