<svg width="22" height="30" viewBox="0 0 22 30" fill="none" xmlns="http://www.w3.org/2000/svg">
<g id="&#240;&#159;&#166;&#134; icon &#34;location pin&#34;">
<path id="Vector" d="M10.9991 6.95752C10.1985 6.95752 9.4159 7.19493 8.75021 7.63973C8.08453 8.08452 7.56569 8.71673 7.25931 9.4564C6.95293 10.1961 6.87276 11.01 7.02895 11.7952C7.18515 12.5804 7.57068 13.3017 8.1368 13.8678C8.70292 14.434 9.4242 14.8195 10.2094 14.9757C10.9947 15.1319 11.8086 15.0517 12.5482 14.7453C13.2879 14.4389 13.9201 13.9201 14.3649 13.2544C14.8097 12.5887 15.0471 11.8061 15.0471 11.0055C15.0459 9.93228 14.619 8.90337 13.8601 8.14449C13.1013 7.38562 12.0724 6.95874 10.9991 6.95752ZM10.9991 13.0295C10.5988 13.0295 10.2075 12.9108 9.87468 12.6884C9.54184 12.466 9.28242 12.1499 9.12923 11.78C8.97603 11.4102 8.93595 11.0032 9.01405 10.6106C9.09214 10.218 9.28491 9.85738 9.56797 9.57432C9.85103 9.29126 10.2117 9.09849 10.6043 9.0204C10.9969 8.9423 11.4039 8.98238 11.7737 9.13557C12.1435 9.28876 12.4596 9.54818 12.682 9.88102C12.9044 10.2139 13.0231 10.6052 13.0231 11.0055C13.0225 11.5421 12.8091 12.0565 12.4296 12.436C12.0502 12.8154 11.5357 13.0289 10.9991 13.0295Z" fill="black"/>
<path id="Vector_2" d="M18.7781 3.22099C16.8548 1.29823 14.2875 0.156035 11.5716 0.0148457C8.85576 -0.126344 6.18386 0.743483 4.0716 2.45645C1.95934 4.16941 0.55647 6.60409 0.133741 9.29057C-0.288988 11.977 0.298393 14.7249 1.78252 17.0038L9.42983 28.7437C9.60001 29.0049 9.8327 29.2196 10.1068 29.3681C10.3809 29.5167 10.6878 29.5945 10.9995 29.5945C11.3113 29.5945 11.6182 29.5167 11.8923 29.3681C12.1664 29.2196 12.399 29.0049 12.5692 28.7437L20.2168 17.0038C21.5939 14.8898 22.2025 12.3667 21.9405 9.85735C21.6786 7.34803 20.5621 5.005 18.7781 3.22099ZM18.5209 15.899L10.9996 27.4452L3.47811 15.899C1.17583 12.3647 1.66962 7.63486 4.65221 4.65214C5.48575 3.81858 6.47531 3.15736 7.56439 2.70624C8.65347 2.25512 9.82075 2.02293 10.9996 2.02293C12.1784 2.02293 13.3457 2.25512 14.4347 2.70624C15.5238 3.15736 16.5134 3.81858 17.3469 4.65214C20.3295 7.63486 20.8232 12.3647 18.5209 15.899Z" fill="black"/>
</g>
</svg>
