<?xml version="1.0" encoding="utf-8"?>
<!-- Generator: Adobe Illustrator 27.0.0, SVG Export Plug-In . SVG Version: 6.00 Build 0)  -->
<svg version="1.1" id="Layer_1" xmlns="http://www.w3.org/2000/svg" xmlns:xlink="http://www.w3.org/1999/xlink" x="0px" y="0px"
	 viewBox="0 0 1364 1706" style="enable-background:new 0 0 1364 1706;" xml:space="preserve">
<style type="text/css">
	.st0{fill:url(#SVGID_1_);}
	.st1{fill:none;stroke:#FFFFFF;stroke-width:2;stroke-miterlimit:10;}
	.st2{opacity:0.55;}
	.st3{fill:#FFFFFF;}
	.st4{fill:url(#SVGID_00000012453407095368707620000014889345597593360039_);stroke:#FFFFFF;stroke-width:2;stroke-miterlimit:10;}
	.st5{fill:url(#SVGID_00000038373328738799579980000010092578496691618223_);stroke:#FFFFFF;stroke-width:2;stroke-miterlimit:10;}
	
		.st6{opacity:0.79;fill:url(#SVGID_00000039098867023404893770000014286001714812475291_);stroke:#FFFFFF;stroke-width:2;stroke-miterlimit:10;enable-background:new    ;}
	.st7{fill:url(#SVGID_00000072966985191328447500000015444021699682825638_);stroke:#FFFFFF;stroke-width:2;stroke-miterlimit:10;}
	.st8{opacity:8.000000e-02;fill:#EBC425;stroke:#FFFFFF;stroke-width:2;stroke-miterlimit:10;enable-background:new    ;}
	.st9{fill:url(#SVGID_00000062896241203975718060000009580078193780431787_);stroke:#FFFFFF;stroke-width:2;stroke-miterlimit:10;}
</style>
<g id="glassGroup">
	<g id="glassContour">
		<g>
			<g>
				
					<radialGradient id="SVGID_1_" cx="172.57" cy="1389.2999" r="2061.22" gradientTransform="matrix(1 0 0 -0.4 0 1575.92)" gradientUnits="userSpaceOnUse">
					<stop  offset="0.4" style="stop-color:#C4E2F2;stop-opacity:0"/>
					<stop  offset="0.76" style="stop-color:#F9E59C;stop-opacity:9.000000e-02"/>
					<stop  offset="0.8" style="stop-color:#FFE693;stop-opacity:0.1"/>
					<stop  offset="0.86" style="stop-color:#FFD677;stop-opacity:0.2"/>
					<stop  offset="0.98" style="stop-color:#FFAF32;stop-opacity:0.45"/>
					<stop  offset="1" style="stop-color:#FFA826;stop-opacity:0.5"/>
				</radialGradient>
				<path class="st0" d="M264.4,483h835.2c145.5,0,263.4,117.9,263.4,263.4v695.2c0,145.5-117.9,263.4-263.4,263.4H264.4
					C118.9,1705,1,1587.1,1,1441.6V746.4C1,600.9,118.9,483,264.4,483z"/>
				<path class="st1" d="M264.4,483h835.2c145.5,0,263.4,117.9,263.4,263.4v695.2c0,145.5-117.9,263.4-263.4,263.4H264.4
					C118.9,1705,1,1587.1,1,1441.6V746.4C1,600.9,118.9,483,264.4,483z"/>
			</g>
			<g>
				<g class="st2">
					<path class="st3" d="M264.4,483h835.2c145.5,0,263.4,117.9,263.4,263.4v695.2c0,145.5-117.9,263.4-263.4,263.4H264.4
						C118.9,1705,1,1587.1,1,1441.6V746.4C1,600.9,118.9,483,264.4,483z"/>
					<path class="st1" d="M264.4,483h835.2c145.5,0,263.4,117.9,263.4,263.4v695.2c0,145.5-117.9,263.4-263.4,263.4H264.4
						C118.9,1705,1,1587.1,1,1441.6V746.4C1,600.9,118.9,483,264.4,483z"/>
				</g>
			</g>
		</g>
		
			<radialGradient id="SVGID_00000176765620588711725350000003724493931755716502_" cx="766.45" cy="1539.14" r="2061.8999" gradientTransform="matrix(1 0 0 -0.4 0 1486.02)" gradientUnits="userSpaceOnUse">
			<stop  offset="0.49" style="stop-color:#FFE2B3;stop-opacity:0"/>
			<stop  offset="1" style="stop-color:#FF9933"/>
		</radialGradient>
		
			<path style="fill:url(#SVGID_00000176765620588711725350000003724493931755716502_);stroke:#FFFFFF;stroke-width:2;stroke-miterlimit:10;" d="
			M264.4,483h835.2c145.5,0,263.4,117.9,263.4,263.4v695.2c0,145.5-117.9,263.4-263.4,263.4H264.4C118.9,1705,1,1587.1,1,1441.6
			V746.4C1,600.9,118.9,483,264.4,483z"/>
	</g>
	<g id="glassMain">
		
			<radialGradient id="SVGID_00000165202764791591013640000010614222376071158406_" cx="702.83" cy="1469.29" r="1765.04" gradientTransform="matrix(1 0 0 -0.5 0 1440.35)" gradientUnits="userSpaceOnUse">
			<stop  offset="0.4" style="stop-color:#C4E2F2;stop-opacity:0"/>
			<stop  offset="0.51" style="stop-color:#D1E2DC;stop-opacity:9.000000e-02"/>
			<stop  offset="0.73" style="stop-color:#F3E5A5;stop-opacity:0.32"/>
			<stop  offset="0.8" style="stop-color:#FFE693;stop-opacity:0.4"/>
			<stop  offset="0.87" style="stop-color:#FFC75C;stop-opacity:0.5"/>
			<stop  offset="0.93" style="stop-color:#FFA826;stop-opacity:0.6"/>
		</radialGradient>
		
			<path style="fill:url(#SVGID_00000165202764791591013640000010614222376071158406_);stroke:#FFFFFF;stroke-width:2;stroke-miterlimit:10;" d="
			M1274.9,769.3v582c0,101.2-82.2,183.4-183.4,183.4H272.4c-101.2,0-183.4-82.2-183.4-183.4v-582c0-101.2,82.2-183.4,183.4-183.4
			h819.1C1192.8,585.9,1274.9,668.1,1274.9,769.3L1274.9,769.3z"/>
		
			<radialGradient id="SVGID_00000110472432461057122290000013516369144424718996_" cx="645.4411" cy="1236.9736" r="1313.55" gradientTransform="matrix(0.9995 3.210847e-02 1.926509e-02 -0.5997 -8.4409 1502.3673)" gradientUnits="userSpaceOnUse">
			<stop  offset="0.21" style="stop-color:#FFE693;stop-opacity:0"/>
			<stop  offset="0.37" style="stop-color:#FFE693;stop-opacity:0"/>
			<stop  offset="0.64" style="stop-color:#FFF4A3;stop-opacity:0.3"/>
			<stop  offset="0.76" style="stop-color:#FFDE78;stop-opacity:0.37"/>
			<stop  offset="0.9" style="stop-color:#FF9C0C;stop-opacity:0.4"/>
			<stop  offset="0.91" style="stop-color:#F99C20;stop-opacity:0.49"/>
			<stop  offset="0.95" style="stop-color:#E99F5D;stop-opacity:0.76"/>
			<stop  offset="0.98" style="stop-color:#DEA084;stop-opacity:0.93"/>
			<stop  offset="1" style="stop-color:#DBA193"/>
		</radialGradient>
		
			<path style="opacity:0.79;fill:url(#SVGID_00000110472432461057122290000013516369144424718996_);stroke:#FFFFFF;stroke-width:2;stroke-miterlimit:10;enable-background:new    ;" d="
			M1274.9,769.3v582c0,101.2-82.2,183.4-183.4,183.4H272.4c-101.2,0-183.4-82.2-183.4-183.4v-582c0-101.2,82.2-183.4,183.4-183.4
			h819.1C1192.8,585.9,1274.9,668.1,1274.9,769.3L1274.9,769.3z"/>
	</g>
	<g id="glassMetal1">
		
			<linearGradient id="SVGID_00000106112540185613165700000012315162096093089714_" gradientUnits="userSpaceOnUse" x1="493.39" y1="1331" x2="869.61" y2="1331" gradientTransform="matrix(1 0 0 -1 0 1706)">
			<stop  offset="0" style="stop-color:#8A8AAB"/>
			<stop  offset="0.17" style="stop-color:#D6D2D4"/>
			<stop  offset="0.26" style="stop-color:#FFF9EB"/>
			<stop  offset="0.29" style="stop-color:#F0EAE1"/>
			<stop  offset="0.34" style="stop-color:#C8C4C9"/>
			<stop  offset="0.42" style="stop-color:#8A87A2"/>
			<stop  offset="0.46" style="stop-color:#67658D"/>
			<stop  offset="0.59" style="stop-color:#515182"/>
			<stop  offset="0.67" style="stop-color:#8A89A5"/>
			<stop  offset="0.69" style="stop-color:#9997AE"/>
			<stop  offset="0.78" style="stop-color:#CEC6C2"/>
			<stop  offset="0.86" style="stop-color:#FFF2D6"/>
			<stop  offset="0.87" style="stop-color:#E2D8CB"/>
			<stop  offset="0.9" style="stop-color:#C2BCBF"/>
			<stop  offset="0.92" style="stop-color:#A9A6B6"/>
			<stop  offset="0.94" style="stop-color:#9896B0"/>
			<stop  offset="0.97" style="stop-color:#8D8DAC"/>
			<stop  offset="1" style="stop-color:#8A8AAB"/>
		</linearGradient>
		
			<path style="fill:url(#SVGID_00000106112540185613165700000012315162096093089714_);stroke:#FFFFFF;stroke-width:2;stroke-miterlimit:10;" d="
			M548.9,482.8c-31.8,0-48.6-30.5-52.6-65.3c-3.2-27.6-2-55.5,0-85.4c2.3-35,25-65.1,52.6-65.1h266.1c31.8,0,50.3,30.3,52.7,65.3
			c2,29.9,3.2,57.8,0,85.4c-4,34.8-20.8,65.3-52.7,65.3L548.9,482.8L548.9,482.8z"/>
		<path class="st8" d="M548.9,482.8c-31.8,0-48.6-30.5-52.6-65.3c-3.2-27.6-2-55.5,0-85.4c2.3-35,25-65.1,52.6-65.1h266.1
			c31.8,0,50.3,30.3,52.7,65.3c2,29.9,3.2,57.8,0,85.4c-4,34.8-20.8,65.3-52.7,65.3L548.9,482.8L548.9,482.8z"/>
	</g>
	<g id="glassMetal2">
		
			<linearGradient id="SVGID_00000034783869511527343100000014961766452623272359_" gradientUnits="userSpaceOnUse" x1="555.88" y1="1481.5" x2="807.46" y2="1481.5" gradientTransform="matrix(1 0 0 -1 0 1706)">
			<stop  offset="0" style="stop-color:#8A8AAB"/>
			<stop  offset="0.17" style="stop-color:#D6D2D4"/>
			<stop  offset="0.26" style="stop-color:#FFF9EB"/>
			<stop  offset="0.29" style="stop-color:#F0EAE1"/>
			<stop  offset="0.34" style="stop-color:#C8C4C9"/>
			<stop  offset="0.42" style="stop-color:#8A87A2"/>
			<stop  offset="0.46" style="stop-color:#67658D"/>
			<stop  offset="0.59" style="stop-color:#515182"/>
			<stop  offset="0.67" style="stop-color:#8A89A5"/>
			<stop  offset="0.69" style="stop-color:#9997AE"/>
			<stop  offset="0.78" style="stop-color:#CEC6C2"/>
			<stop  offset="0.86" style="stop-color:#FFF2D6"/>
			<stop  offset="0.87" style="stop-color:#E2D8CB"/>
			<stop  offset="0.9" style="stop-color:#C2BCBF"/>
			<stop  offset="0.92" style="stop-color:#A9A6B6"/>
			<stop  offset="0.94" style="stop-color:#9896B0"/>
			<stop  offset="0.97" style="stop-color:#8D8DAC"/>
			<stop  offset="1" style="stop-color:#8A8AAB"/>
		</linearGradient>
		
			<rect x="556.5" y="182" style="fill:url(#SVGID_00000034783869511527343100000014961766452623272359_);stroke:#FFFFFF;stroke-width:2;stroke-miterlimit:10;" width="251" height="85"/>
		<rect x="556.5" y="182" class="st8" width="251" height="85"/>
	</g>
</g>
</svg>
