<?xml version="1.0" encoding="UTF-8"?>
<svg id="Layer_2" data-name="Layer 2" xmlns="http://www.w3.org/2000/svg" xmlns:xlink="http://www.w3.org/1999/xlink" viewBox="0 0 85.54 75.68">
  <defs>
    <style>
      .cls-1 {
        fill: #ffe351;
      }

      .cls-2 {
        fill: #ff8500;
      }

      .cls-3 {
        fill: url(#New_swatch_6);
        stroke: #fff;
        stroke-miterlimit: 10;
      }
    </style>
    <radialGradient id="New_swatch_6" data-name="New swatch 6" cx="88.11" cy="-243.35" fx="88.11" fy="-243.35" r="66.46" gradientTransform="translate(103.56 -139.5) rotate(178.14) scale(.75 .72)" gradientUnits="userSpaceOnUse">
      <stop offset="0" stop-color="#ffe351"/>
      <stop offset="1" stop-color="#ffbc00"/>
    </radialGradient>
  </defs>
  <g id="osmanthus_layer" data-name="osmanthus layer">
    <path class="cls-3" d="M85.04,18.73c0-9.98-5.44-17.73-14.45-18.2-6.54-.34-12.5,1.42-17.89,12.62-2.55,5.29-2.96,13.55-4.87,13.55s-1.97-5.94-5.75-10.97c-5.28-7.02-12.25-10.68-21.7-10.68C10.44,5.06,3.3,8.99,1.03,18.48c-2.28,9.49,2.77,17.9,15.96,19.94,4.38,.68,13.46-.63,13.55,2.2,.12,3.68-6.49,3.89-9.61,5.69-10.67,6.16-10.68,10.92-10.02,16.08,1.07,8.39,7.57,12.79,17.2,12.79s15.1-14.16,17.04-13.66c2.84,.74,7.95,13.89,18.27,13.48,9.41-.38,15.64-4.07,16.38-12.79,1.55-18.49-18.74-17.59-18.74-21.55,0-3.07,23.98-6.53,23.98-21.92Z"/>
    <ellipse class="cls-2" cx="42.63" cy="39.81" rx="1.31" ry="2.9" transform="translate(-4.63 5.62) rotate(-7.15)"/>
    <ellipse class="cls-2" cx="52.35" cy="38.49" rx="2.9" ry="1.31" transform="translate(6.88 84.91) rotate(-81.92)"/>
    <path class="cls-1" d="M28.59,25.37c-6.51-3.38-12.5-5.33-12.18-5.95s6.46,.46,12.97,3.84c6.51,3.38,10.92,7.79,10.6,8.41s-4.89-2.92-11.4-6.3Z"/>
    <path class="cls-1" d="M61.1,56.81c-5.19-5.19-10.68-8.85-10.19-9.34s6.4,2.39,11.59,7.58,9,9.79,8.51,10.28-4.72-3.32-9.9-8.51Z"/>
    <path class="cls-1" d="M65.5,19.26c5.53-4.82,9.08-5.66,9.53-5.14s-2.35,1.3-7.89,6.12c-5.53,4.82-11.69,11.86-12.14,11.33s4.97-7.5,10.5-12.32Z"/>
    <path class="cls-1" d="M31.96,51.16c4.51-3.93,9.27-5.94,9.73-5.42s-3.65,3.19-8.16,7.12c-4.51,3.93-7.73,7.64-8.18,7.12s2.1-4.89,6.61-8.82Z"/>
  </g>
</svg>