<?xml version="1.0" encoding="utf-8"?>
<!-- Generator: Adobe Illustrator 27.0.0, SVG Export Plug-In . SVG Version: 6.00 Build 0)  -->
<svg version="1.1" id="Layer_1" xmlns="http://www.w3.org/2000/svg" xmlns:xlink="http://www.w3.org/1999/xlink" x="0px" y="0px"
	 viewBox="0 0 1267.6 128.7" style="enable-background:new 0 0 1267.6 128.7;" xml:space="preserve">
<style type="text/css">
	.st0{fill:#FFFFFF;}
</style>
<g transform="translate(0.000000,1280.000000) scale(0.100000,-0.100000)">
	<path class="st0" d="M7525,12262.8H2373l6,45c19,134,105,305,216,426c39,44,57,69,46,66s-610-149-1332-323
		c-722-175-1311-320-1309-321c4-5,2636-643,2649-643c6,0-17,28-49,63c-74,76-117,139-155,222c-30,67-69,196-69,230v20l5150-3l5150-2
		v110v110H7525z"/>
</g>
</svg>
