<?xml version="1.0" encoding="UTF-8"?>
<svg id="Layer_1" data-name="Layer 1" xmlns="http://www.w3.org/2000/svg" viewBox="0 0 821.78 534.16">
  <defs>
    <style>
      .cls-1 {
        fill: #fff;
      }
    </style>
  </defs>
  <g>
    <rect id="black-rec" x="198.64" y="-40.01" width="423" height="904.13"/>
    <g>
      <rect class="cls-1" x="209.21" y="-.11" width="97.76" height="84.72"/>
      <rect class="cls-1" x="310.57" y="-.11" width="97.76" height="84.72"/>
      <rect class="cls-1" x="411.94" y="-.11" width="97.76" height="84.72"/>
      <rect class="cls-1" x="513.3" y="-.11" width="97.76" height="84.72"/>
      <rect class="cls-1" x="209.21" y="88.2" width="97.76" height="84.72"/>
      <rect class="cls-1" x="310.57" y="88.2" width="97.76" height="84.72"/>
      <rect class="cls-1" x="411.94" y="88.2" width="97.76" height="84.72"/>
      <rect class="cls-1" x="513.3" y="88.2" width="97.76" height="84.72"/>
      <rect class="cls-1" x="209.21" y="176.52" width="97.76" height="84.72"/>
      <rect class="cls-1" x="310.57" y="176.52" width="97.76" height="84.72"/>
      <rect class="cls-1" x="411.94" y="176.52" width="97.76" height="84.72"/>
      <rect class="cls-1" x="513.3" y="176.52" width="97.76" height="84.72"/>
      <rect class="cls-1" x="209.21" y="264.84" width="97.76" height="84.72"/>
      <rect class="cls-1" x="310.57" y="264.84" width="97.76" height="84.72"/>
      <rect class="cls-1" x="411.94" y="264.84" width="97.76" height="84.72"/>
      <rect class="cls-1" x="513.3" y="264.84" width="97.76" height="84.72"/>
      <rect class="cls-1" x="209.21" y="353.15" width="97.76" height="84.72"/>
      <rect class="cls-1" x="310.57" y="353.15" width="97.76" height="84.72"/>
      <rect class="cls-1" x="411.94" y="353.15" width="97.76" height="84.72"/>
      <rect class="cls-1" x="513.3" y="353.15" width="97.76" height="84.72"/>
      <rect class="cls-1" x="209.21" y="441.47" width="97.76" height="84.72"/>
      <rect class="cls-1" x="310.57" y="441.47" width="97.76" height="84.72"/>
      <rect class="cls-1" x="411.94" y="441.47" width="97.76" height="84.72"/>
      <rect class="cls-1" x="513.3" y="441.47" width="97.76" height="84.72"/>
      <rect class="cls-1" x="209.21" y="529.78" width="97.76" height="84.72"/>
      <rect class="cls-1" x="310.57" y="529.78" width="97.76" height="84.72"/>
      <rect class="cls-1" x="411.94" y="529.78" width="97.76" height="84.72"/>
      <rect class="cls-1" x="513.3" y="529.78" width="97.76" height="84.72"/>
    </g>
  </g>
  <g>
    <rect id="black-rec-2" data-name="black-rec" x="-224.36" y="-40.01" width="423" height="904.13"/>
    <g>
      <rect class="cls-1" x="-11.06" y="-.11" width="97.76" height="84.72"/>
      <rect class="cls-1" x="90.3" y="-.11" width="97.76" height="84.72"/>
      <rect class="cls-1" x="-11.06" y="88.2" width="97.76" height="84.72"/>
      <rect class="cls-1" x="90.3" y="88.2" width="97.76" height="84.72"/>
      <rect class="cls-1" x="-11.06" y="176.52" width="97.76" height="84.72"/>
      <rect class="cls-1" x="90.3" y="176.52" width="97.76" height="84.72"/>
      <rect class="cls-1" x="-11.06" y="264.84" width="97.76" height="84.72"/>
      <rect class="cls-1" x="90.3" y="264.84" width="97.76" height="84.72"/>
      <rect class="cls-1" x="-11.06" y="353.15" width="97.76" height="84.72"/>
      <rect class="cls-1" x="90.3" y="353.15" width="97.76" height="84.72"/>
      <rect class="cls-1" x="-11.06" y="441.47" width="97.76" height="84.72"/>
      <rect class="cls-1" x="90.3" y="441.47" width="97.76" height="84.72"/>
      <rect class="cls-1" x="-11.06" y="529.78" width="97.76" height="84.72"/>
      <rect class="cls-1" x="90.3" y="529.78" width="97.76" height="84.72"/>
    </g>
  </g>
  <g>
    <rect id="black-rec-3" data-name="black-rec" x="621.64" y="-40.01" width="423" height="904.13"/>
    <g>
      <rect class="cls-1" x="632.21" y="-.11" width="97.76" height="84.72"/>
      <rect class="cls-1" x="733.57" y="-.11" width="97.76" height="84.72"/>
      <rect class="cls-1" x="632.21" y="88.2" width="97.76" height="84.72"/>
      <rect class="cls-1" x="733.57" y="88.2" width="97.76" height="84.72"/>
      <rect class="cls-1" x="632.21" y="176.52" width="97.76" height="84.72"/>
      <rect class="cls-1" x="733.57" y="176.52" width="97.76" height="84.72"/>
      <rect class="cls-1" x="632.21" y="264.84" width="97.76" height="84.72"/>
      <rect class="cls-1" x="733.57" y="264.84" width="97.76" height="84.72"/>
      <rect class="cls-1" x="632.21" y="353.15" width="97.76" height="84.72"/>
      <rect class="cls-1" x="733.57" y="353.15" width="97.76" height="84.72"/>
      <rect class="cls-1" x="632.21" y="441.47" width="97.76" height="84.72"/>
      <rect class="cls-1" x="733.57" y="441.47" width="97.76" height="84.72"/>
      <rect class="cls-1" x="632.21" y="529.78" width="97.76" height="84.72"/>
      <rect class="cls-1" x="733.57" y="529.78" width="97.76" height="84.72"/>
    </g>
  </g>
</svg>