<?xml version="1.0" encoding="utf-8"?>
<!-- Generator: Adobe Illustrator 27.0.0, SVG Export Plug-In . SVG Version: 6.00 Build 0)  -->
<svg version="1.1" id="Layer_1" xmlns="http://www.w3.org/2000/svg" xmlns:xlink="http://www.w3.org/1999/xlink" x="0px" y="0px"
	 viewBox="0 0 2542.1 904" style="enable-background:new 0 0 2542.1 904;" xml:space="preserve">
<style type="text/css">
	.st0{fill:#3D3C3A;}
</style>
<path class="st0" d="M1273.3-0.1V904h423V-0.1H1273.3z M1381.6,654.4h-97.8v-84.7h97.8V654.4z M1381.6,566.1h-97.8v-84.7h97.8V566.1
	z M1381.6,477.7h-97.8V393h97.8V477.7z M1381.6,389.4h-97.8v-84.7h97.8V389.4z M1381.6,301.1h-97.8v-84.7h97.8V301.1z M1381.6,212.8
	h-97.8v-84.7h97.8V212.8z M1381.6,124.5h-97.8V39.8h97.8V124.5z M1483,654.4h-97.8v-84.7h97.8V654.4z M1483,566.1h-97.8v-84.7h97.8
	V566.1z M1483,477.7h-97.8V393h97.8V477.7z M1483,389.4h-97.8v-84.7h97.8V389.4z M1483,301.1h-97.8v-84.7h97.8V301.1z M1483,212.8
	h-97.8v-84.7h97.8V212.8z M1483,124.5h-97.8V39.8h97.8V124.5z M1584.4,654.4h-97.8v-84.7h97.8V654.4z M1584.4,566.1h-97.8v-84.7
	h97.8V566.1z M1584.4,477.7h-97.8V393h97.8V477.7z M1584.4,389.4h-97.8v-84.7h97.8V389.4z M1584.4,301.1h-97.8v-84.7h97.8V301.1z
	 M1584.4,212.8h-97.8v-84.7h97.8V212.8z M1584.4,124.5h-97.8V39.8h97.8V124.5z M1685.7,654.4h-97.8v-84.7h97.8V654.4z M1685.7,566.1
	h-97.8v-84.7h97.8V566.1z M1685.7,477.7h-97.8V393h97.8V477.7z M1685.7,389.4h-97.8v-84.7h97.8V389.4z M1685.7,301.1h-97.8v-84.7
	h97.8V301.1z M1685.7,212.8h-97.8v-84.7h97.8V212.8z M1685.7,124.5h-97.8V39.8h97.8V124.5z"/>
<path class="st0" d="M850.3-0.1V904h423V-0.1H850.3z M958.6,654.4h-97.8v-84.7h97.8V654.4z M958.6,566.1h-97.8v-84.7h97.8V566.1z
	 M958.6,477.7h-97.8V393h97.8V477.7z M958.6,389.4h-97.8v-84.7h97.8V389.4z M958.6,301.1h-97.8v-84.7h97.8V301.1z M958.6,212.8
	h-97.8v-84.7h97.8V212.8z M958.6,124.5h-97.8V39.8h97.8V124.5z M1060,654.4h-97.8v-84.7h97.8V654.4z M1060,566.1h-97.8v-84.7h97.8
	V566.1z M1060,477.7h-97.8V393h97.8V477.7z M1060,389.4h-97.8v-84.7h97.8V389.4z M1060,301.1h-97.8v-84.7h97.8V301.1z M1060,212.8
	h-97.8v-84.7h97.8V212.8z M1060,124.5h-97.8V39.8h97.8V124.5z M1161.4,654.4h-97.8v-84.7h97.8V654.4z M1161.4,566.1h-97.8v-84.7
	h97.8V566.1z M1161.4,477.7h-97.8V393h97.8V477.7z M1161.4,389.4h-97.8v-84.7h97.8V389.4z M1161.4,301.1h-97.8v-84.7h97.8V301.1z
	 M1161.4,212.8h-97.8v-84.7h97.8V212.8z M1161.4,124.5h-97.8V39.8h97.8V124.5z M1262.7,654.4h-97.8v-84.7h97.8V654.4z M1262.7,566.1
	h-97.8v-84.7h97.8V566.1z M1262.7,477.7h-97.8V393h97.8V477.7z M1262.7,389.4h-97.8v-84.7h97.8V389.4z M1262.7,301.1h-97.8v-84.7
	h97.8V301.1z M1262.7,212.8h-97.8v-84.7h97.8V212.8z M1262.7,124.5h-97.8V39.8h97.8V124.5z"/>
<path class="st0" d="M1696.3-0.1V904h423V-0.1H1696.3z M1804.6,654.4h-97.8v-84.7h97.8V654.4z M1804.6,566.1h-97.8v-84.7h97.8V566.1
	z M1804.6,477.7h-97.8V393h97.8V477.7z M1804.6,389.4h-97.8v-84.7h97.8V389.4z M1804.6,301.1h-97.8v-84.7h97.8V301.1z M1804.6,212.8
	h-97.8v-84.7h97.8V212.8z M1804.6,124.5h-97.8V39.8h97.8V124.5z M1906,654.4h-97.8v-84.7h97.8V654.4z M1906,566.1h-97.8v-84.7h97.8
	V566.1z M1906,477.7h-97.8V393h97.8V477.7z M1906,389.4h-97.8v-84.7h97.8V389.4z M1906,301.1h-97.8v-84.7h97.8V301.1z M1906,212.8
	h-97.8v-84.7h97.8V212.8z M1906,124.5h-97.8V39.8h97.8V124.5z M2007.4,654.4h-97.8v-84.7h97.8V654.4z M2007.4,566.1h-97.8v-84.7
	h97.8V566.1z M2007.4,477.7h-97.8V393h97.8V477.7z M2007.4,389.4h-97.8v-84.7h97.8V389.4z M2007.4,301.1h-97.8v-84.7h97.8V301.1z
	 M2007.4,212.8h-97.8v-84.7h97.8V212.8z M2007.4,124.5h-97.8V39.8h97.8V124.5z M2108.7,654.4h-97.8v-84.7h97.8V654.4z M2108.7,566.1
	h-97.8v-84.7h97.8V566.1z M2108.7,477.7h-97.8V393h97.8V477.7z M2108.7,389.4h-97.8v-84.7h97.8V389.4z M2108.7,301.1h-97.8v-84.7
	h97.8V301.1z M2108.7,212.8h-97.8v-84.7h97.8V212.8z M2108.7,124.5h-97.8V39.8h97.8V124.5z"/>
<path class="st0" d="M4.3-0.1V904h423V-0.1H4.3z M112.6,654.4H14.8v-84.7h97.8V654.4z M112.6,566.1H14.8v-84.7h97.8V566.1z
	 M112.6,477.7H14.8V393h97.8V477.7z M112.6,389.4H14.8v-84.7h97.8V389.4z M112.6,301.1H14.8v-84.7h97.8V301.1z M112.6,212.8H14.8
	v-84.7h97.8V212.8z M112.6,124.5H14.8V39.8h97.8V124.5z M214,654.4h-97.8v-84.7H214V654.4z M214,566.1h-97.8v-84.7H214V566.1z
	 M214,477.7h-97.8V393H214V477.7z M214,389.4h-97.8v-84.7H214V389.4z M214,301.1h-97.8v-84.7H214V301.1z M214,212.8h-97.8v-84.7H214
	V212.8z M214,124.5h-97.8V39.8H214V124.5z M315.4,654.4h-97.8v-84.7h97.8V654.4z M315.4,566.1h-97.8v-84.7h97.8V566.1z M315.4,477.7
	h-97.8V393h97.8V477.7z M315.4,389.4h-97.8v-84.7h97.8V389.4z M315.4,301.1h-97.8v-84.7h97.8V301.1z M315.4,212.8h-97.8v-84.7h97.8
	V212.8z M315.4,124.5h-97.8V39.8h97.8V124.5z M416.7,654.4h-97.8v-84.7h97.8V654.4z M416.7,566.1h-97.8v-84.7h97.8V566.1z
	 M416.7,477.7h-97.8V393h97.8V477.7z M416.7,389.4h-97.8v-84.7h97.8V389.4z M416.7,301.1h-97.8v-84.7h97.8V301.1z M416.7,212.8
	h-97.8v-84.7h97.8V212.8z M416.7,124.5h-97.8V39.8h97.8V124.5z"/>
<rect id="black-rec-5" x="-418.7" y="-0.1" class="st0" width="423" height="904.1"/>
<path class="st0" d="M427.3-0.1V904h423V-0.1H427.3z M535.6,654.4h-97.8v-84.7h97.8V654.4z M535.6,566.1h-97.8v-84.7h97.8V566.1z
	 M535.6,477.7h-97.8V393h97.8V477.7z M535.6,389.4h-97.8v-84.7h97.8V389.4z M535.6,301.1h-97.8v-84.7h97.8V301.1z M535.6,212.8
	h-97.8v-84.7h97.8V212.8z M535.6,124.5h-97.8V39.8h97.8V124.5z M637,654.4h-97.8v-84.7H637V654.4z M637,566.1h-97.8v-84.7H637V566.1
	z M637,477.7h-97.8V393H637V477.7z M637,389.4h-97.8v-84.7H637V389.4z M637,301.1h-97.8v-84.7H637V301.1z M637,212.8h-97.8v-84.7
	H637V212.8z M637,124.5h-97.8V39.8H637V124.5z M738.4,654.4h-97.8v-84.7h97.8V654.4z M738.4,566.1h-97.8v-84.7h97.8V566.1z
	 M738.4,477.7h-97.8V393h97.8V477.7z M738.4,389.4h-97.8v-84.7h97.8V389.4z M738.4,301.1h-97.8v-84.7h97.8V301.1z M738.4,212.8
	h-97.8v-84.7h97.8V212.8z M738.4,124.5h-97.8V39.8h97.8V124.5z M839.7,654.4h-97.8v-84.7h97.8V654.4z M839.7,566.1h-97.8v-84.7h97.8
	V566.1z M839.7,477.7h-97.8V393h97.8V477.7z M839.7,389.4h-97.8v-84.7h97.8V389.4z M839.7,301.1h-97.8v-84.7h97.8V301.1z
	 M839.7,212.8h-97.8v-84.7h97.8V212.8z M839.7,124.5h-97.8V39.8h97.8V124.5z"/>
<path class="st0" d="M2119.3-0.1V904h423V-0.1H2119.3z M2227.6,654.4h-97.8v-84.7h97.8V654.4z M2227.6,566.1h-97.8v-84.7h97.8V566.1
	z M2227.6,477.7h-97.8V393h97.8V477.7z M2227.6,389.4h-97.8v-84.7h97.8V389.4z M2227.6,301.1h-97.8v-84.7h97.8V301.1z M2227.6,212.8
	h-97.8v-84.7h97.8V212.8z M2227.6,124.5h-97.8V39.8h97.8V124.5z M2329,654.4h-97.8v-84.7h97.8V654.4z M2329,566.1h-97.8v-84.7h97.8
	V566.1z M2329,477.7h-97.8V393h97.8V477.7z M2329,389.4h-97.8v-84.7h97.8V389.4z M2329,301.1h-97.8v-84.7h97.8V301.1z M2329,212.8
	h-97.8v-84.7h97.8V212.8z M2329,124.5h-97.8V39.8h97.8V124.5z M2430.4,654.4h-97.8v-84.7h97.8V654.4z M2430.4,566.1h-97.8v-84.7
	h97.8V566.1z M2430.4,477.7h-97.8V393h97.8V477.7z M2430.4,389.4h-97.8v-84.7h97.8V389.4z M2430.4,301.1h-97.8v-84.7h97.8V301.1z
	 M2430.4,212.8h-97.8v-84.7h97.8V212.8z M2430.4,124.5h-97.8V39.8h97.8V124.5z M2531.7,654.4h-97.8v-84.7h97.8V654.4z M2531.7,566.1
	h-97.8v-84.7h97.8V566.1z M2531.7,477.7h-97.8V393h97.8V477.7z M2531.7,389.4h-97.8v-84.7h97.8V389.4z M2531.7,301.1h-97.8v-84.7
	h97.8V301.1z M2531.7,212.8h-97.8v-84.7h97.8V212.8z M2531.7,124.5h-97.8V39.8h97.8V124.5z"/>
</svg>
