<?xml version="1.0" encoding="utf-8"?>
<!-- Generator: Adobe Illustrator 27.0.0, SVG Export Plug-In . SVG Version: 6.00 Build 0)  -->
<svg version="1.1" id="Layer_1" xmlns="http://www.w3.org/2000/svg" xmlns:xlink="http://www.w3.org/1999/xlink" x="0px" y="0px"
	 viewBox="0 0 2542.1 904" style="enable-background:new 0 0 2542.1 904;" xml:space="preserve">
<style type="text/css">
	.st0{fill:#3D3C3A;}
	.st1{fill:#FFFFFF;}
</style>
<g>
	<rect id="black-rec" x="1273.3" y="-0.1" class="st0" width="423" height="904.1"/>
	<g>
		<rect x="1283.8" y="39.8" class="st1" width="97.8" height="84.7"/>
		<rect x="1385.2" y="39.8" class="st1" width="97.8" height="84.7"/>
		<rect x="1486.6" y="39.8" class="st1" width="97.8" height="84.7"/>
		<rect x="1587.9" y="39.8" class="st1" width="97.8" height="84.7"/>
		<rect x="1283.8" y="128.1" class="st1" width="97.8" height="84.7"/>
		<rect x="1385.2" y="128.1" class="st1" width="97.8" height="84.7"/>
		<rect x="1486.6" y="128.1" class="st1" width="97.8" height="84.7"/>
		<rect x="1587.9" y="128.1" class="st1" width="97.8" height="84.7"/>
		<rect x="1283.8" y="216.4" class="st1" width="97.8" height="84.7"/>
		<rect x="1385.2" y="216.4" class="st1" width="97.8" height="84.7"/>
		<rect x="1486.6" y="216.4" class="st1" width="97.8" height="84.7"/>
		<rect x="1587.9" y="216.4" class="st1" width="97.8" height="84.7"/>
		<rect x="1283.8" y="304.7" class="st1" width="97.8" height="84.7"/>
		<rect x="1385.2" y="304.7" class="st1" width="97.8" height="84.7"/>
		<rect x="1486.6" y="304.7" class="st1" width="97.8" height="84.7"/>
		<rect x="1587.9" y="304.7" class="st1" width="97.8" height="84.7"/>
		<rect x="1283.8" y="393" class="st1" width="97.8" height="84.7"/>
		<rect x="1385.2" y="393" class="st1" width="97.8" height="84.7"/>
		<rect x="1486.6" y="393" class="st1" width="97.8" height="84.7"/>
		<rect x="1587.9" y="393" class="st1" width="97.8" height="84.7"/>
		<rect x="1283.8" y="481.4" class="st1" width="97.8" height="84.7"/>
		<rect x="1385.2" y="481.4" class="st1" width="97.8" height="84.7"/>
		<rect x="1486.6" y="481.4" class="st1" width="97.8" height="84.7"/>
		<rect x="1587.9" y="481.4" class="st1" width="97.8" height="84.7"/>
		<rect x="1283.8" y="569.7" class="st1" width="97.8" height="84.7"/>
		<rect x="1385.2" y="569.7" class="st1" width="97.8" height="84.7"/>
		<rect x="1486.6" y="569.7" class="st1" width="97.8" height="84.7"/>
		<rect x="1587.9" y="569.7" class="st1" width="97.8" height="84.7"/>
	</g>
</g>
<g>
	<rect id="black-rec-2" x="850.3" y="-0.1" class="st0" width="423" height="904.1"/>
	<g>
		<rect x="860.8" y="39.8" class="st1" width="97.8" height="84.7"/>
		<rect x="962.2" y="39.8" class="st1" width="97.8" height="84.7"/>
		<rect x="1063.6" y="39.8" class="st1" width="97.8" height="84.7"/>
		<rect x="1164.9" y="39.8" class="st1" width="97.8" height="84.7"/>
		<rect x="860.8" y="128.1" class="st1" width="97.8" height="84.7"/>
		<rect x="962.2" y="128.1" class="st1" width="97.8" height="84.7"/>
		<rect x="1063.6" y="128.1" class="st1" width="97.8" height="84.7"/>
		<rect x="1164.9" y="128.1" class="st1" width="97.8" height="84.7"/>
		<rect x="860.8" y="216.4" class="st1" width="97.8" height="84.7"/>
		<rect x="962.2" y="216.4" class="st1" width="97.8" height="84.7"/>
		<rect x="1063.6" y="216.4" class="st1" width="97.8" height="84.7"/>
		<rect x="1164.9" y="216.4" class="st1" width="97.8" height="84.7"/>
		<rect x="860.8" y="304.7" class="st1" width="97.8" height="84.7"/>
		<rect x="962.2" y="304.7" class="st1" width="97.8" height="84.7"/>
		<rect x="1063.6" y="304.7" class="st1" width="97.8" height="84.7"/>
		<rect x="1164.9" y="304.7" class="st1" width="97.8" height="84.7"/>
		<rect x="860.8" y="393" class="st1" width="97.8" height="84.7"/>
		<rect x="962.2" y="393" class="st1" width="97.8" height="84.7"/>
		<rect x="1063.6" y="393" class="st1" width="97.8" height="84.7"/>
		<rect x="1164.9" y="393" class="st1" width="97.8" height="84.7"/>
		<rect x="860.8" y="481.4" class="st1" width="97.8" height="84.7"/>
		<rect x="962.2" y="481.4" class="st1" width="97.8" height="84.7"/>
		<rect x="1063.6" y="481.4" class="st1" width="97.8" height="84.7"/>
		<rect x="1164.9" y="481.4" class="st1" width="97.8" height="84.7"/>
		<rect x="860.8" y="569.7" class="st1" width="97.8" height="84.7"/>
		<rect x="962.2" y="569.7" class="st1" width="97.8" height="84.7"/>
		<rect x="1063.6" y="569.7" class="st1" width="97.8" height="84.7"/>
		<rect x="1164.9" y="569.7" class="st1" width="97.8" height="84.7"/>
	</g>
</g>
<g>
	<rect id="black-rec-3" x="1696.3" y="-0.1" class="st0" width="423" height="904.1"/>
	<g>
		<rect x="1706.8" y="39.8" class="st1" width="97.8" height="84.7"/>
		<rect x="1808.2" y="39.8" class="st1" width="97.8" height="84.7"/>
		<rect x="1909.6" y="39.8" class="st1" width="97.8" height="84.7"/>
		<rect x="2010.9" y="39.8" class="st1" width="97.8" height="84.7"/>
		<rect x="1706.8" y="128.1" class="st1" width="97.8" height="84.7"/>
		<rect x="1808.2" y="128.1" class="st1" width="97.8" height="84.7"/>
		<rect x="1909.6" y="128.1" class="st1" width="97.8" height="84.7"/>
		<rect x="2010.9" y="128.1" class="st1" width="97.8" height="84.7"/>
		<rect x="1706.8" y="216.4" class="st1" width="97.8" height="84.7"/>
		<rect x="1808.2" y="216.4" class="st1" width="97.8" height="84.7"/>
		<rect x="1909.6" y="216.4" class="st1" width="97.8" height="84.7"/>
		<rect x="2010.9" y="216.4" class="st1" width="97.8" height="84.7"/>
		<rect x="1706.8" y="304.7" class="st1" width="97.8" height="84.7"/>
		<rect x="1808.2" y="304.7" class="st1" width="97.8" height="84.7"/>
		<rect x="1909.6" y="304.7" class="st1" width="97.8" height="84.7"/>
		<rect x="2010.9" y="304.7" class="st1" width="97.8" height="84.7"/>
		<rect x="1706.8" y="393" class="st1" width="97.8" height="84.7"/>
		<rect x="1808.2" y="393" class="st1" width="97.8" height="84.7"/>
		<rect x="1909.6" y="393" class="st1" width="97.8" height="84.7"/>
		<rect x="2010.9" y="393" class="st1" width="97.8" height="84.7"/>
		<rect x="1706.8" y="481.4" class="st1" width="97.8" height="84.7"/>
		<rect x="1808.2" y="481.4" class="st1" width="97.8" height="84.7"/>
		<rect x="1909.6" y="481.4" class="st1" width="97.8" height="84.7"/>
		<rect x="2010.9" y="481.4" class="st1" width="97.8" height="84.7"/>
		<rect x="1706.8" y="569.7" class="st1" width="97.8" height="84.7"/>
		<rect x="1808.2" y="569.7" class="st1" width="97.8" height="84.7"/>
		<rect x="1909.6" y="569.7" class="st1" width="97.8" height="84.7"/>
		<rect x="2010.9" y="569.7" class="st1" width="97.8" height="84.7"/>
	</g>
</g>
<g>
	<rect id="black-rec-4" x="4.3" y="-0.1" class="st0" width="423" height="904.1"/>
	<g>
		<rect x="14.8" y="39.8" class="st1" width="97.8" height="84.7"/>
		<rect x="116.2" y="39.8" class="st1" width="97.8" height="84.7"/>
		<rect x="217.6" y="39.8" class="st1" width="97.8" height="84.7"/>
		<rect x="318.9" y="39.8" class="st1" width="97.8" height="84.7"/>
		<rect x="14.8" y="128.1" class="st1" width="97.8" height="84.7"/>
		<rect x="116.2" y="128.1" class="st1" width="97.8" height="84.7"/>
		<rect x="217.6" y="128.1" class="st1" width="97.8" height="84.7"/>
		<rect x="318.9" y="128.1" class="st1" width="97.8" height="84.7"/>
		<rect x="14.8" y="216.4" class="st1" width="97.8" height="84.7"/>
		<rect x="116.2" y="216.4" class="st1" width="97.8" height="84.7"/>
		<rect x="217.6" y="216.4" class="st1" width="97.8" height="84.7"/>
		<rect x="318.9" y="216.4" class="st1" width="97.8" height="84.7"/>
		<rect x="14.8" y="304.7" class="st1" width="97.8" height="84.7"/>
		<rect x="116.2" y="304.7" class="st1" width="97.8" height="84.7"/>
		<rect x="217.6" y="304.7" class="st1" width="97.8" height="84.7"/>
		<rect x="318.9" y="304.7" class="st1" width="97.8" height="84.7"/>
		<rect x="14.8" y="393" class="st1" width="97.8" height="84.7"/>
		<rect x="116.2" y="393" class="st1" width="97.8" height="84.7"/>
		<rect x="217.6" y="393" class="st1" width="97.8" height="84.7"/>
		<rect x="318.9" y="393" class="st1" width="97.8" height="84.7"/>
		<rect x="14.8" y="481.4" class="st1" width="97.8" height="84.7"/>
		<rect x="116.2" y="481.4" class="st1" width="97.8" height="84.7"/>
		<rect x="217.6" y="481.4" class="st1" width="97.8" height="84.7"/>
		<rect x="318.9" y="481.4" class="st1" width="97.8" height="84.7"/>
		<rect x="14.8" y="569.7" class="st1" width="97.8" height="84.7"/>
		<rect x="116.2" y="569.7" class="st1" width="97.8" height="84.7"/>
		<rect x="217.6" y="569.7" class="st1" width="97.8" height="84.7"/>
		<rect x="318.9" y="569.7" class="st1" width="97.8" height="84.7"/>
	</g>
</g>
<rect id="black-rec-5" x="-418.7" y="-0.1" class="st0" width="423" height="904.1"/>
<g>
	<rect id="black-rec-6" x="427.3" y="-0.1" class="st0" width="423" height="904.1"/>
	<g>
		<rect x="437.8" y="39.8" class="st1" width="97.8" height="84.7"/>
		<rect x="539.2" y="39.8" class="st1" width="97.8" height="84.7"/>
		<rect x="640.6" y="39.8" class="st1" width="97.8" height="84.7"/>
		<rect x="741.9" y="39.8" class="st1" width="97.8" height="84.7"/>
		<rect x="437.8" y="128.1" class="st1" width="97.8" height="84.7"/>
		<rect x="539.2" y="128.1" class="st1" width="97.8" height="84.7"/>
		<rect x="640.6" y="128.1" class="st1" width="97.8" height="84.7"/>
		<rect x="741.9" y="128.1" class="st1" width="97.8" height="84.7"/>
		<rect x="437.8" y="216.4" class="st1" width="97.8" height="84.7"/>
		<rect x="539.2" y="216.4" class="st1" width="97.8" height="84.7"/>
		<rect x="640.6" y="216.4" class="st1" width="97.8" height="84.7"/>
		<rect x="741.9" y="216.4" class="st1" width="97.8" height="84.7"/>
		<rect x="437.8" y="304.7" class="st1" width="97.8" height="84.7"/>
		<rect x="539.2" y="304.7" class="st1" width="97.8" height="84.7"/>
		<rect x="640.6" y="304.7" class="st1" width="97.8" height="84.7"/>
		<rect x="741.9" y="304.7" class="st1" width="97.8" height="84.7"/>
		<rect x="437.8" y="393" class="st1" width="97.8" height="84.7"/>
		<rect x="539.2" y="393" class="st1" width="97.8" height="84.7"/>
		<rect x="640.6" y="393" class="st1" width="97.8" height="84.7"/>
		<rect x="741.9" y="393" class="st1" width="97.8" height="84.7"/>
		<rect x="437.8" y="481.4" class="st1" width="97.8" height="84.7"/>
		<rect x="539.2" y="481.4" class="st1" width="97.8" height="84.7"/>
		<rect x="640.6" y="481.4" class="st1" width="97.8" height="84.7"/>
		<rect x="741.9" y="481.4" class="st1" width="97.8" height="84.7"/>
		<rect x="437.8" y="569.7" class="st1" width="97.8" height="84.7"/>
		<rect x="539.2" y="569.7" class="st1" width="97.8" height="84.7"/>
		<rect x="640.6" y="569.7" class="st1" width="97.8" height="84.7"/>
		<rect x="741.9" y="569.7" class="st1" width="97.8" height="84.7"/>
	</g>
</g>
<g>
	<rect id="black-rec-7" x="2119.3" y="-0.1" class="st0" width="423" height="904.1"/>
	<g>
		<rect x="2129.8" y="39.8" class="st1" width="97.8" height="84.7"/>
		<rect x="2231.2" y="39.8" class="st1" width="97.8" height="84.7"/>
		<rect x="2332.6" y="39.8" class="st1" width="97.8" height="84.7"/>
		<rect x="2433.9" y="39.8" class="st1" width="97.8" height="84.7"/>
		<rect x="2129.8" y="128.1" class="st1" width="97.8" height="84.7"/>
		<rect x="2231.2" y="128.1" class="st1" width="97.8" height="84.7"/>
		<rect x="2332.6" y="128.1" class="st1" width="97.8" height="84.7"/>
		<rect x="2433.9" y="128.1" class="st1" width="97.8" height="84.7"/>
		<rect x="2129.8" y="216.4" class="st1" width="97.8" height="84.7"/>
		<rect x="2231.2" y="216.4" class="st1" width="97.8" height="84.7"/>
		<rect x="2332.6" y="216.4" class="st1" width="97.8" height="84.7"/>
		<rect x="2433.9" y="216.4" class="st1" width="97.8" height="84.7"/>
		<rect x="2129.8" y="304.7" class="st1" width="97.8" height="84.7"/>
		<rect x="2231.2" y="304.7" class="st1" width="97.8" height="84.7"/>
		<rect x="2332.6" y="304.7" class="st1" width="97.8" height="84.7"/>
		<rect x="2433.9" y="304.7" class="st1" width="97.8" height="84.7"/>
		<rect x="2129.8" y="393" class="st1" width="97.8" height="84.7"/>
		<rect x="2231.2" y="393" class="st1" width="97.8" height="84.7"/>
		<rect x="2332.6" y="393" class="st1" width="97.8" height="84.7"/>
		<rect x="2433.9" y="393" class="st1" width="97.8" height="84.7"/>
		<rect x="2129.8" y="481.4" class="st1" width="97.8" height="84.7"/>
		<rect x="2231.2" y="481.4" class="st1" width="97.8" height="84.7"/>
		<rect x="2332.6" y="481.4" class="st1" width="97.8" height="84.7"/>
		<rect x="2433.9" y="481.4" class="st1" width="97.8" height="84.7"/>
		<rect x="2129.8" y="569.7" class="st1" width="97.8" height="84.7"/>
		<rect x="2231.2" y="569.7" class="st1" width="97.8" height="84.7"/>
		<rect x="2332.6" y="569.7" class="st1" width="97.8" height="84.7"/>
		<rect x="2433.9" y="569.7" class="st1" width="97.8" height="84.7"/>
	</g>
</g>
</svg>
