<?xml version="1.0" encoding="UTF-8"?>
<svg id="Layer_1" data-name="Layer 1" xmlns="http://www.w3.org/2000/svg" viewBox="0 0 1280 800">
  <defs>
    <style>
      .cls-1 {
        fill: #fff;
      }
    </style>
  </defs>
  <g>
    <rect id="black-rec" x="214" y="-.22" width="423" height="904.13"/>
    <g>
      <rect class="cls-1" x="224.57" y="39.67" width="97.76" height="84.72"/>
      <rect class="cls-1" x="325.94" y="39.67" width="97.76" height="84.72"/>
      <rect class="cls-1" x="427.3" y="39.67" width="97.76" height="84.72"/>
      <rect class="cls-1" x="528.66" y="39.67" width="97.76" height="84.72"/>
      <rect class="cls-1" x="224.57" y="127.99" width="97.76" height="84.72"/>
      <rect class="cls-1" x="325.94" y="127.99" width="97.76" height="84.72"/>
      <rect class="cls-1" x="427.3" y="127.99" width="97.76" height="84.72"/>
      <rect class="cls-1" x="528.66" y="127.99" width="97.76" height="84.72"/>
      <rect class="cls-1" x="224.57" y="216.31" width="97.76" height="84.72"/>
      <rect class="cls-1" x="325.94" y="216.31" width="97.76" height="84.72"/>
      <rect class="cls-1" x="427.3" y="216.31" width="97.76" height="84.72"/>
      <rect class="cls-1" x="528.66" y="216.31" width="97.76" height="84.72"/>
      <rect class="cls-1" x="224.57" y="304.62" width="97.76" height="84.72"/>
      <rect class="cls-1" x="325.94" y="304.62" width="97.76" height="84.72"/>
      <rect class="cls-1" x="427.3" y="304.62" width="97.76" height="84.72"/>
      <rect class="cls-1" x="528.66" y="304.62" width="97.76" height="84.72"/>
      <rect class="cls-1" x="224.57" y="392.94" width="97.76" height="84.72"/>
      <rect class="cls-1" x="325.94" y="392.94" width="97.76" height="84.72"/>
      <rect class="cls-1" x="427.3" y="392.94" width="97.76" height="84.72"/>
      <rect class="cls-1" x="528.66" y="392.94" width="97.76" height="84.72"/>
      <rect class="cls-1" x="224.57" y="481.25" width="97.76" height="84.72"/>
      <rect class="cls-1" x="325.94" y="481.25" width="97.76" height="84.72"/>
      <rect class="cls-1" x="427.3" y="481.25" width="97.76" height="84.72"/>
      <rect class="cls-1" x="528.66" y="481.25" width="97.76" height="84.72"/>
      <rect class="cls-1" x="224.57" y="569.57" width="97.76" height="84.72"/>
      <rect class="cls-1" x="325.94" y="569.57" width="97.76" height="84.72"/>
      <rect class="cls-1" x="427.3" y="569.57" width="97.76" height="84.72"/>
      <rect class="cls-1" x="528.66" y="569.57" width="97.76" height="84.72"/>
    </g>
  </g>
  <g>
    <rect id="black-rec-2" data-name="black-rec" x="-209" y="-.22" width="423" height="904.13"/>
    <g>
      <rect class="cls-1" x="-97.06" y="39.67" width="97.76" height="84.72"/>
      <rect class="cls-1" x="4.3" y="39.67" width="97.76" height="84.72"/>
      <rect class="cls-1" x="105.66" y="39.67" width="97.76" height="84.72"/>
      <rect class="cls-1" x="-97.06" y="127.99" width="97.76" height="84.72"/>
      <rect class="cls-1" x="4.3" y="127.99" width="97.76" height="84.72"/>
      <rect class="cls-1" x="105.66" y="127.99" width="97.76" height="84.72"/>
      <rect class="cls-1" x="-97.06" y="216.31" width="97.76" height="84.72"/>
      <rect class="cls-1" x="4.3" y="216.31" width="97.76" height="84.72"/>
      <rect class="cls-1" x="105.66" y="216.31" width="97.76" height="84.72"/>
      <rect class="cls-1" x="-97.06" y="304.62" width="97.76" height="84.72"/>
      <rect class="cls-1" x="4.3" y="304.62" width="97.76" height="84.72"/>
      <rect class="cls-1" x="105.66" y="304.62" width="97.76" height="84.72"/>
      <rect class="cls-1" x="-97.06" y="392.94" width="97.76" height="84.72"/>
      <rect class="cls-1" x="4.3" y="392.94" width="97.76" height="84.72"/>
      <rect class="cls-1" x="105.66" y="392.94" width="97.76" height="84.72"/>
      <rect class="cls-1" x="-97.06" y="481.25" width="97.76" height="84.72"/>
      <rect class="cls-1" x="4.3" y="481.25" width="97.76" height="84.72"/>
      <rect class="cls-1" x="105.66" y="481.25" width="97.76" height="84.72"/>
      <rect class="cls-1" x="-97.06" y="569.57" width="97.76" height="84.72"/>
      <rect class="cls-1" x="4.3" y="569.57" width="97.76" height="84.72"/>
      <rect class="cls-1" x="105.66" y="569.57" width="97.76" height="84.72"/>
    </g>
  </g>
  <g>
    <rect id="black-rec-3" data-name="black-rec" x="637" y="-.22" width="423" height="904.13"/>
    <g>
      <rect class="cls-1" x="647.58" y="39.67" width="97.76" height="84.72"/>
      <rect class="cls-1" x="748.94" y="39.67" width="97.76" height="84.72"/>
      <rect class="cls-1" x="850.3" y="39.67" width="97.76" height="84.72"/>
      <rect class="cls-1" x="951.66" y="39.67" width="97.76" height="84.72"/>
      <rect class="cls-1" x="647.58" y="127.99" width="97.76" height="84.72"/>
      <rect class="cls-1" x="748.94" y="127.99" width="97.76" height="84.72"/>
      <rect class="cls-1" x="850.3" y="127.99" width="97.76" height="84.72"/>
      <rect class="cls-1" x="951.66" y="127.99" width="97.76" height="84.72"/>
      <rect class="cls-1" x="647.58" y="216.31" width="97.76" height="84.72"/>
      <rect class="cls-1" x="748.94" y="216.31" width="97.76" height="84.72"/>
      <rect class="cls-1" x="850.3" y="216.31" width="97.76" height="84.72"/>
      <rect class="cls-1" x="951.66" y="216.31" width="97.76" height="84.72"/>
      <rect class="cls-1" x="647.58" y="304.62" width="97.76" height="84.72"/>
      <rect class="cls-1" x="748.94" y="304.62" width="97.76" height="84.72"/>
      <rect class="cls-1" x="850.3" y="304.62" width="97.76" height="84.72"/>
      <rect class="cls-1" x="951.66" y="304.62" width="97.76" height="84.72"/>
      <rect class="cls-1" x="647.58" y="392.94" width="97.76" height="84.72"/>
      <rect class="cls-1" x="748.94" y="392.94" width="97.76" height="84.72"/>
      <rect class="cls-1" x="850.3" y="392.94" width="97.76" height="84.72"/>
      <rect class="cls-1" x="951.66" y="392.94" width="97.76" height="84.72"/>
      <rect class="cls-1" x="647.58" y="481.25" width="97.76" height="84.72"/>
      <rect class="cls-1" x="748.94" y="481.25" width="97.76" height="84.72"/>
      <rect class="cls-1" x="850.3" y="481.25" width="97.76" height="84.72"/>
      <rect class="cls-1" x="951.66" y="481.25" width="97.76" height="84.72"/>
      <rect class="cls-1" x="647.58" y="569.57" width="97.76" height="84.72"/>
      <rect class="cls-1" x="748.94" y="569.57" width="97.76" height="84.72"/>
      <rect class="cls-1" x="850.3" y="569.57" width="97.76" height="84.72"/>
      <rect class="cls-1" x="951.66" y="569.57" width="97.76" height="84.72"/>
    </g>
  </g>
  <g>
    <rect id="black-rec-4" data-name="black-rec" x="1060" y="-.22" width="423" height="904.13"/>
    <g>
      <rect class="cls-1" x="1070.57" y="39.67" width="97.76" height="84.72"/>
      <rect class="cls-1" x="1171.94" y="39.67" width="97.76" height="84.72"/>
      <rect class="cls-1" x="1273.3" y="39.67" width="97.76" height="84.72"/>
      <rect class="cls-1" x="1070.57" y="127.99" width="97.76" height="84.72"/>
      <rect class="cls-1" x="1171.94" y="127.99" width="97.76" height="84.72"/>
      <rect class="cls-1" x="1273.3" y="127.99" width="97.76" height="84.72"/>
      <rect class="cls-1" x="1070.57" y="216.31" width="97.76" height="84.72"/>
      <rect class="cls-1" x="1171.94" y="216.31" width="97.76" height="84.72"/>
      <rect class="cls-1" x="1273.3" y="216.31" width="97.76" height="84.72"/>
      <rect class="cls-1" x="1070.57" y="304.62" width="97.76" height="84.72"/>
      <rect class="cls-1" x="1171.94" y="304.62" width="97.76" height="84.72"/>
      <rect class="cls-1" x="1273.3" y="304.62" width="97.76" height="84.72"/>
      <rect class="cls-1" x="1070.57" y="392.94" width="97.76" height="84.72"/>
      <rect class="cls-1" x="1171.94" y="392.94" width="97.76" height="84.72"/>
      <rect class="cls-1" x="1273.3" y="392.94" width="97.76" height="84.72"/>
      <rect class="cls-1" x="1070.57" y="481.25" width="97.76" height="84.72"/>
      <rect class="cls-1" x="1171.94" y="481.25" width="97.76" height="84.72"/>
      <rect class="cls-1" x="1273.3" y="481.25" width="97.76" height="84.72"/>
      <rect class="cls-1" x="1070.57" y="569.57" width="97.76" height="84.72"/>
      <rect class="cls-1" x="1171.94" y="569.57" width="97.76" height="84.72"/>
      <rect class="cls-1" x="1273.3" y="569.57" width="97.76" height="84.72"/>
    </g>
  </g>
</svg>