<?xml version="1.0" encoding="UTF-8"?>
<svg id="Layer_1" data-name="Layer 1" xmlns="http://www.w3.org/2000/svg" viewBox="0 0 2542.13 904.02">
  <defs>
    <style>
      .cls-1 {
        fill: #fff;
      }
    </style>
  </defs>
  <g>
    <rect id="black-rec" x="1273.26" y="-.11" width="423" height="904.13"/>
    <g>
      <rect class="cls-1" x="1283.84" y="39.79" width="97.76" height="84.72"/>
      <rect class="cls-1" x="1385.2" y="39.79" width="97.76" height="84.72"/>
      <rect class="cls-1" x="1486.56" y="39.79" width="97.76" height="84.72"/>
      <rect class="cls-1" x="1587.93" y="39.79" width="97.76" height="84.72"/>
      <rect class="cls-1" x="1283.84" y="128.1" width="97.76" height="84.72"/>
      <rect class="cls-1" x="1385.2" y="128.1" width="97.76" height="84.72"/>
      <rect class="cls-1" x="1486.56" y="128.1" width="97.76" height="84.72"/>
      <rect class="cls-1" x="1587.93" y="128.1" width="97.76" height="84.72"/>
      <rect class="cls-1" x="1283.84" y="216.42" width="97.76" height="84.72"/>
      <rect class="cls-1" x="1385.2" y="216.42" width="97.76" height="84.72"/>
      <rect class="cls-1" x="1486.56" y="216.42" width="97.76" height="84.72"/>
      <rect class="cls-1" x="1587.93" y="216.42" width="97.76" height="84.72"/>
      <rect class="cls-1" x="1283.84" y="304.73" width="97.76" height="84.72"/>
      <rect class="cls-1" x="1385.2" y="304.73" width="97.76" height="84.72"/>
      <rect class="cls-1" x="1486.56" y="304.73" width="97.76" height="84.72"/>
      <rect class="cls-1" x="1587.93" y="304.73" width="97.76" height="84.72"/>
      <rect class="cls-1" x="1283.84" y="393.05" width="97.76" height="84.72"/>
      <rect class="cls-1" x="1385.2" y="393.05" width="97.76" height="84.72"/>
      <rect class="cls-1" x="1486.56" y="393.05" width="97.76" height="84.72"/>
      <rect class="cls-1" x="1587.93" y="393.05" width="97.76" height="84.72"/>
      <rect class="cls-1" x="1283.84" y="481.37" width="97.76" height="84.72"/>
      <rect class="cls-1" x="1385.2" y="481.37" width="97.76" height="84.72"/>
      <rect class="cls-1" x="1486.56" y="481.37" width="97.76" height="84.72"/>
      <rect class="cls-1" x="1587.93" y="481.37" width="97.76" height="84.72"/>
      <rect class="cls-1" x="1283.84" y="569.68" width="97.76" height="84.72"/>
      <rect class="cls-1" x="1385.2" y="569.68" width="97.76" height="84.72"/>
      <rect class="cls-1" x="1486.56" y="569.68" width="97.76" height="84.72"/>
      <rect class="cls-1" x="1587.93" y="569.68" width="97.76" height="84.72"/>
    </g>
  </g>
  <g>
    <rect id="black-rec-2" data-name="black-rec" x="850.26" y="-.11" width="423" height="904.13"/>
    <g>
      <rect class="cls-1" x="860.84" y="39.79" width="97.76" height="84.72"/>
      <rect class="cls-1" x="962.2" y="39.79" width="97.76" height="84.72"/>
      <rect class="cls-1" x="1063.56" y="39.79" width="97.76" height="84.72"/>
      <rect class="cls-1" x="1164.93" y="39.79" width="97.76" height="84.72"/>
      <rect class="cls-1" x="860.84" y="128.1" width="97.76" height="84.72"/>
      <rect class="cls-1" x="962.2" y="128.1" width="97.76" height="84.72"/>
      <rect class="cls-1" x="1063.56" y="128.1" width="97.76" height="84.72"/>
      <rect class="cls-1" x="1164.93" y="128.1" width="97.76" height="84.72"/>
      <rect class="cls-1" x="860.84" y="216.42" width="97.76" height="84.72"/>
      <rect class="cls-1" x="962.2" y="216.42" width="97.76" height="84.72"/>
      <rect class="cls-1" x="1063.56" y="216.42" width="97.76" height="84.72"/>
      <rect class="cls-1" x="1164.93" y="216.42" width="97.76" height="84.72"/>
      <rect class="cls-1" x="860.84" y="304.73" width="97.76" height="84.72"/>
      <rect class="cls-1" x="962.2" y="304.73" width="97.76" height="84.72"/>
      <rect class="cls-1" x="1063.56" y="304.73" width="97.76" height="84.72"/>
      <rect class="cls-1" x="1164.93" y="304.73" width="97.76" height="84.72"/>
      <rect class="cls-1" x="860.84" y="393.05" width="97.76" height="84.72"/>
      <rect class="cls-1" x="962.2" y="393.05" width="97.76" height="84.72"/>
      <rect class="cls-1" x="1063.56" y="393.05" width="97.76" height="84.72"/>
      <rect class="cls-1" x="1164.93" y="393.05" width="97.76" height="84.72"/>
      <rect class="cls-1" x="860.84" y="481.37" width="97.76" height="84.72"/>
      <rect class="cls-1" x="962.2" y="481.37" width="97.76" height="84.72"/>
      <rect class="cls-1" x="1063.56" y="481.37" width="97.76" height="84.72"/>
      <rect class="cls-1" x="1164.93" y="481.37" width="97.76" height="84.72"/>
      <rect class="cls-1" x="860.84" y="569.68" width="97.76" height="84.72"/>
      <rect class="cls-1" x="962.2" y="569.68" width="97.76" height="84.72"/>
      <rect class="cls-1" x="1063.56" y="569.68" width="97.76" height="84.72"/>
      <rect class="cls-1" x="1164.93" y="569.68" width="97.76" height="84.72"/>
    </g>
  </g>
  <g>
    <rect id="black-rec-3" data-name="black-rec" x="1696.26" y="-.11" width="423" height="904.13"/>
    <g>
      <rect class="cls-1" x="1706.84" y="39.79" width="97.76" height="84.72"/>
      <rect class="cls-1" x="1808.2" y="39.79" width="97.76" height="84.72"/>
      <rect class="cls-1" x="1909.56" y="39.79" width="97.76" height="84.72"/>
      <rect class="cls-1" x="2010.93" y="39.79" width="97.76" height="84.72"/>
      <rect class="cls-1" x="1706.84" y="128.1" width="97.76" height="84.72"/>
      <rect class="cls-1" x="1808.2" y="128.1" width="97.76" height="84.72"/>
      <rect class="cls-1" x="1909.56" y="128.1" width="97.76" height="84.72"/>
      <rect class="cls-1" x="2010.93" y="128.1" width="97.76" height="84.72"/>
      <rect class="cls-1" x="1706.84" y="216.42" width="97.76" height="84.72"/>
      <rect class="cls-1" x="1808.2" y="216.42" width="97.76" height="84.72"/>
      <rect class="cls-1" x="1909.56" y="216.42" width="97.76" height="84.72"/>
      <rect class="cls-1" x="2010.93" y="216.42" width="97.76" height="84.72"/>
      <rect class="cls-1" x="1706.84" y="304.73" width="97.76" height="84.72"/>
      <rect class="cls-1" x="1808.2" y="304.73" width="97.76" height="84.72"/>
      <rect class="cls-1" x="1909.56" y="304.73" width="97.76" height="84.72"/>
      <rect class="cls-1" x="2010.93" y="304.73" width="97.76" height="84.72"/>
      <rect class="cls-1" x="1706.84" y="393.05" width="97.76" height="84.72"/>
      <rect class="cls-1" x="1808.2" y="393.05" width="97.76" height="84.72"/>
      <rect class="cls-1" x="1909.56" y="393.05" width="97.76" height="84.72"/>
      <rect class="cls-1" x="2010.93" y="393.05" width="97.76" height="84.72"/>
      <rect class="cls-1" x="1706.84" y="481.37" width="97.76" height="84.72"/>
      <rect class="cls-1" x="1808.2" y="481.37" width="97.76" height="84.72"/>
      <rect class="cls-1" x="1909.56" y="481.37" width="97.76" height="84.72"/>
      <rect class="cls-1" x="2010.93" y="481.37" width="97.76" height="84.72"/>
      <rect class="cls-1" x="1706.84" y="569.68" width="97.76" height="84.72"/>
      <rect class="cls-1" x="1808.2" y="569.68" width="97.76" height="84.72"/>
      <rect class="cls-1" x="1909.56" y="569.68" width="97.76" height="84.72"/>
      <rect class="cls-1" x="2010.93" y="569.68" width="97.76" height="84.72"/>
    </g>
  </g>
  <g>
    <rect id="black-rec-4" data-name="black-rec" x="4.26" y="-.11" width="423" height="904.13"/>
    <g>
      <rect class="cls-1" x="14.84" y="39.79" width="97.76" height="84.72"/>
      <rect class="cls-1" x="116.2" y="39.79" width="97.76" height="84.72"/>
      <rect class="cls-1" x="217.56" y="39.79" width="97.76" height="84.72"/>
      <rect class="cls-1" x="318.93" y="39.79" width="97.76" height="84.72"/>
      <rect class="cls-1" x="14.84" y="128.1" width="97.76" height="84.72"/>
      <rect class="cls-1" x="116.2" y="128.1" width="97.76" height="84.72"/>
      <rect class="cls-1" x="217.56" y="128.1" width="97.76" height="84.72"/>
      <rect class="cls-1" x="318.93" y="128.1" width="97.76" height="84.72"/>
      <rect class="cls-1" x="14.84" y="216.42" width="97.76" height="84.72"/>
      <rect class="cls-1" x="116.2" y="216.42" width="97.76" height="84.72"/>
      <rect class="cls-1" x="217.56" y="216.42" width="97.76" height="84.72"/>
      <rect class="cls-1" x="318.93" y="216.42" width="97.76" height="84.72"/>
      <rect class="cls-1" x="14.84" y="304.73" width="97.76" height="84.72"/>
      <rect class="cls-1" x="116.2" y="304.73" width="97.76" height="84.72"/>
      <rect class="cls-1" x="217.56" y="304.73" width="97.76" height="84.72"/>
      <rect class="cls-1" x="318.93" y="304.73" width="97.76" height="84.72"/>
      <rect class="cls-1" x="14.84" y="393.05" width="97.76" height="84.72"/>
      <rect class="cls-1" x="116.2" y="393.05" width="97.76" height="84.72"/>
      <rect class="cls-1" x="217.56" y="393.05" width="97.76" height="84.72"/>
      <rect class="cls-1" x="318.93" y="393.05" width="97.76" height="84.72"/>
      <rect class="cls-1" x="14.84" y="481.37" width="97.76" height="84.72"/>
      <rect class="cls-1" x="116.2" y="481.37" width="97.76" height="84.72"/>
      <rect class="cls-1" x="217.56" y="481.37" width="97.76" height="84.72"/>
      <rect class="cls-1" x="318.93" y="481.37" width="97.76" height="84.72"/>
      <rect class="cls-1" x="14.84" y="569.68" width="97.76" height="84.72"/>
      <rect class="cls-1" x="116.2" y="569.68" width="97.76" height="84.72"/>
      <rect class="cls-1" x="217.56" y="569.68" width="97.76" height="84.72"/>
      <rect class="cls-1" x="318.93" y="569.68" width="97.76" height="84.72"/>
    </g>
  </g>
  <rect id="black-rec-5" data-name="black-rec" x="-418.74" y="-.11" width="423" height="904.13"/>
  <g>
    <rect id="black-rec-6" data-name="black-rec" x="427.26" y="-.11" width="423" height="904.13"/>
    <g>
      <rect class="cls-1" x="437.84" y="39.79" width="97.76" height="84.72"/>
      <rect class="cls-1" x="539.2" y="39.79" width="97.76" height="84.72"/>
      <rect class="cls-1" x="640.56" y="39.79" width="97.76" height="84.72"/>
      <rect class="cls-1" x="741.93" y="39.79" width="97.76" height="84.72"/>
      <rect class="cls-1" x="437.84" y="128.1" width="97.76" height="84.72"/>
      <rect class="cls-1" x="539.2" y="128.1" width="97.76" height="84.72"/>
      <rect class="cls-1" x="640.56" y="128.1" width="97.76" height="84.72"/>
      <rect class="cls-1" x="741.93" y="128.1" width="97.76" height="84.72"/>
      <rect class="cls-1" x="437.84" y="216.42" width="97.76" height="84.72"/>
      <rect class="cls-1" x="539.2" y="216.42" width="97.76" height="84.72"/>
      <rect class="cls-1" x="640.56" y="216.42" width="97.76" height="84.72"/>
      <rect class="cls-1" x="741.93" y="216.42" width="97.76" height="84.72"/>
      <rect class="cls-1" x="437.84" y="304.73" width="97.76" height="84.72"/>
      <rect class="cls-1" x="539.2" y="304.73" width="97.76" height="84.72"/>
      <rect class="cls-1" x="640.56" y="304.73" width="97.76" height="84.72"/>
      <rect class="cls-1" x="741.93" y="304.73" width="97.76" height="84.72"/>
      <rect class="cls-1" x="437.84" y="393.05" width="97.76" height="84.72"/>
      <rect class="cls-1" x="539.2" y="393.05" width="97.76" height="84.72"/>
      <rect class="cls-1" x="640.56" y="393.05" width="97.76" height="84.72"/>
      <rect class="cls-1" x="741.93" y="393.05" width="97.76" height="84.72"/>
      <rect class="cls-1" x="437.84" y="481.37" width="97.76" height="84.72"/>
      <rect class="cls-1" x="539.2" y="481.37" width="97.76" height="84.72"/>
      <rect class="cls-1" x="640.56" y="481.37" width="97.76" height="84.72"/>
      <rect class="cls-1" x="741.93" y="481.37" width="97.76" height="84.72"/>
      <rect class="cls-1" x="437.84" y="569.68" width="97.76" height="84.72"/>
      <rect class="cls-1" x="539.2" y="569.68" width="97.76" height="84.72"/>
      <rect class="cls-1" x="640.56" y="569.68" width="97.76" height="84.72"/>
      <rect class="cls-1" x="741.93" y="569.68" width="97.76" height="84.72"/>
    </g>
  </g>
  <g>
    <rect id="black-rec-7" data-name="black-rec" x="2119.26" y="-.11" width="423" height="904.13"/>
    <g>
      <rect class="cls-1" x="2129.84" y="39.79" width="97.76" height="84.72"/>
      <rect class="cls-1" x="2231.2" y="39.79" width="97.76" height="84.72"/>
      <rect class="cls-1" x="2332.56" y="39.79" width="97.76" height="84.72"/>
      <rect class="cls-1" x="2433.93" y="39.79" width="97.76" height="84.72"/>
      <rect class="cls-1" x="2129.84" y="128.1" width="97.76" height="84.72"/>
      <rect class="cls-1" x="2231.2" y="128.1" width="97.76" height="84.72"/>
      <rect class="cls-1" x="2332.56" y="128.1" width="97.76" height="84.72"/>
      <rect class="cls-1" x="2433.93" y="128.1" width="97.76" height="84.72"/>
      <rect class="cls-1" x="2129.84" y="216.42" width="97.76" height="84.72"/>
      <rect class="cls-1" x="2231.2" y="216.42" width="97.76" height="84.72"/>
      <rect class="cls-1" x="2332.56" y="216.42" width="97.76" height="84.72"/>
      <rect class="cls-1" x="2433.93" y="216.42" width="97.76" height="84.72"/>
      <rect class="cls-1" x="2129.84" y="304.73" width="97.76" height="84.72"/>
      <rect class="cls-1" x="2231.2" y="304.73" width="97.76" height="84.72"/>
      <rect class="cls-1" x="2332.56" y="304.73" width="97.76" height="84.72"/>
      <rect class="cls-1" x="2433.93" y="304.73" width="97.76" height="84.72"/>
      <rect class="cls-1" x="2129.84" y="393.05" width="97.76" height="84.72"/>
      <rect class="cls-1" x="2231.2" y="393.05" width="97.76" height="84.72"/>
      <rect class="cls-1" x="2332.56" y="393.05" width="97.76" height="84.72"/>
      <rect class="cls-1" x="2433.93" y="393.05" width="97.76" height="84.72"/>
      <rect class="cls-1" x="2129.84" y="481.37" width="97.76" height="84.72"/>
      <rect class="cls-1" x="2231.2" y="481.37" width="97.76" height="84.72"/>
      <rect class="cls-1" x="2332.56" y="481.37" width="97.76" height="84.72"/>
      <rect class="cls-1" x="2433.93" y="481.37" width="97.76" height="84.72"/>
      <rect class="cls-1" x="2129.84" y="569.68" width="97.76" height="84.72"/>
      <rect class="cls-1" x="2231.2" y="569.68" width="97.76" height="84.72"/>
      <rect class="cls-1" x="2332.56" y="569.68" width="97.76" height="84.72"/>
      <rect class="cls-1" x="2433.93" y="569.68" width="97.76" height="84.72"/>
    </g>
  </g>
</svg>