<?xml version="1.0" encoding="utf-8"?>
<!-- Generator: Adobe Illustrator 27.0.0, SVG Export Plug-In . SVG Version: 6.00 Build 0)  -->
<svg version="1.1" id="Layer_1" xmlns="http://www.w3.org/2000/svg" xmlns:xlink="http://www.w3.org/1999/xlink" x="0px" y="0px"
	 viewBox="0 0 821.8 723.9" style="enable-background:new 0 0 821.8 723.9;" xml:space="preserve">
<style type="text/css">
	.st0{fill:#3D3C3A;}
	.st1{display:none;}
	.st2{display:inline;}
	.st3{fill:#FFFFFF;}
</style>
<g id="Layer_1_00000181800847423573021480000011903580358093757628_">
	<path class="st0" d="M198.6-40v904.1h423V-40H198.6z M307,614.5h-97.8v-84.7H307V614.5z M307,526.2h-97.8v-84.7H307V526.2z
		 M307,437.8h-97.8v-84.7H307V437.8z M307,349.5h-97.8v-84.7H307V349.5z M307,261.2h-97.8v-84.7H307V261.2z M307,172.9h-97.8V88.2
		H307V172.9z M307,84.6h-97.8V-0.1H307V84.6z M408.4,614.5h-97.8v-84.7h97.8L408.4,614.5L408.4,614.5z M408.4,526.2h-97.8v-84.7
		h97.8L408.4,526.2L408.4,526.2z M408.4,437.8h-97.8v-84.7h97.8L408.4,437.8L408.4,437.8z M408.4,349.5h-97.8v-84.7h97.8
		L408.4,349.5L408.4,349.5z M408.4,261.2h-97.8v-84.7h97.8L408.4,261.2L408.4,261.2z M408.4,172.9h-97.8V88.2h97.8L408.4,172.9
		L408.4,172.9z M408.4,84.6h-97.8V-0.1h97.8L408.4,84.6L408.4,84.6z M509.7,614.5h-97.8v-84.7h97.8V614.5z M509.7,526.2h-97.8v-84.7
		h97.8V526.2z M509.7,437.8h-97.8v-84.7h97.8V437.8z M509.7,349.5h-97.8v-84.7h97.8V349.5z M509.7,261.2h-97.8v-84.7h97.8V261.2z
		 M509.7,172.9h-97.8V88.2h97.8V172.9z M509.7,84.6h-97.8V-0.1h97.8V84.6z M611.1,614.5h-97.8v-84.7h97.8V614.5z M611.1,526.2h-97.8
		v-84.7h97.8V526.2z M611.1,437.8h-97.8v-84.7h97.8V437.8z M611.1,349.5h-97.8v-84.7h97.8V349.5z M611.1,261.2h-97.8v-84.7h97.8
		V261.2z M611.1,172.9h-97.8V88.2h97.8V172.9z M611.1,84.6h-97.8V-0.1h97.8V84.6z"/>
	<path class="st0" d="M-224.5-40v904.1h423V-40H-224.5z M86.6,614.5h-97.8v-84.7h97.8V614.5z M86.6,526.2h-97.8v-84.7h97.8V526.2z
		 M86.6,437.8h-97.8v-84.7h97.8V437.8z M86.6,349.5h-97.8v-84.7h97.8V349.5z M86.6,261.2h-97.8v-84.7h97.8V261.2z M86.6,172.9h-97.8
		V88.2h97.8V172.9z M86.6,84.6h-97.8V-0.1h97.8V84.6z M188,614.5H90.2v-84.7H188V614.5z M188,526.2H90.2v-84.7H188V526.2z
		 M188,437.8H90.2v-84.7H188V437.8z M188,349.5H90.2v-84.7H188V349.5z M188,261.2H90.2v-84.7H188V261.2z M188,172.9H90.2V88.2H188
		V172.9z M188,84.6H90.2V-0.1H188V84.6z"/>
	<path class="st0" d="M621.6-40v904.1h423V-40H621.6z M730,614.5h-97.8v-84.7H730V614.5z M730,526.2h-97.8v-84.7H730V526.2z
		 M730,437.8h-97.8v-84.7H730V437.8z M730,349.5h-97.8v-84.7H730V349.5z M730,261.2h-97.8v-84.7H730V261.2z M730,172.9h-97.8V88.2
		H730V172.9z M730,84.6h-97.8V-0.1H730V84.6z M831.4,614.5h-97.8v-84.7h97.8V614.5z M831.4,526.2h-97.8v-84.7h97.8V526.2z
		 M831.4,437.8h-97.8v-84.7h97.8V437.8z M831.4,349.5h-97.8v-84.7h97.8V349.5z M831.4,261.2h-97.8v-84.7h97.8V261.2z M831.4,172.9
		h-97.8V88.2h97.8V172.9z M831.4,84.6h-97.8V-0.1h97.8V84.6z"/>
</g>
<g id="Layer_2_00000109017222748043342690000004149769189858495127_" class="st1">
	<g class="st2">
		
			<rect id="black-rec_00000125578243240415099300000000100891314431294606_" x="198.6" y="-40" class="st0" width="423" height="904.1"/>
		<g>
			<rect x="209.2" y="-0.1" class="st3" width="97.8" height="84.7"/>
			<rect x="310.6" y="-0.1" class="st3" width="97.8" height="84.7"/>
			<rect x="411.9" y="-0.1" class="st3" width="97.8" height="84.7"/>
			<rect x="513.3" y="-0.1" class="st3" width="97.8" height="84.7"/>
			<rect x="209.2" y="88.2" class="st3" width="97.8" height="84.7"/>
			<rect x="310.6" y="88.2" class="st3" width="97.8" height="84.7"/>
			<rect x="411.9" y="88.2" class="st3" width="97.8" height="84.7"/>
			<rect x="513.3" y="88.2" class="st3" width="97.8" height="84.7"/>
			<rect x="209.2" y="176.5" class="st3" width="97.8" height="84.7"/>
			<rect x="310.6" y="176.5" class="st3" width="97.8" height="84.7"/>
			<rect x="411.9" y="176.5" class="st3" width="97.8" height="84.7"/>
			<rect x="513.3" y="176.5" class="st3" width="97.8" height="84.7"/>
			<rect x="209.2" y="264.8" class="st3" width="97.8" height="84.7"/>
			<rect x="310.6" y="264.8" class="st3" width="97.8" height="84.7"/>
			<rect x="411.9" y="264.8" class="st3" width="97.8" height="84.7"/>
			<rect x="513.3" y="264.8" class="st3" width="97.8" height="84.7"/>
			<rect x="209.2" y="353.1" class="st3" width="97.8" height="84.7"/>
			<rect x="310.6" y="353.1" class="st3" width="97.8" height="84.7"/>
			<rect x="411.9" y="353.1" class="st3" width="97.8" height="84.7"/>
			<rect x="513.3" y="353.1" class="st3" width="97.8" height="84.7"/>
			<rect x="209.2" y="441.5" class="st3" width="97.8" height="84.7"/>
			<rect x="310.6" y="441.5" class="st3" width="97.8" height="84.7"/>
			<rect x="411.9" y="441.5" class="st3" width="97.8" height="84.7"/>
			<rect x="513.3" y="441.5" class="st3" width="97.8" height="84.7"/>
			<rect x="209.2" y="529.8" class="st3" width="97.8" height="84.7"/>
			<rect x="310.6" y="529.8" class="st3" width="97.8" height="84.7"/>
			<rect x="411.9" y="529.8" class="st3" width="97.8" height="84.7"/>
			<rect x="513.3" y="529.8" class="st3" width="97.8" height="84.7"/>
		</g>
	</g>
	<g class="st2">
		
			<rect id="black-rec-2_00000019679387221028570260000014356473425714212022_" x="-224.4" y="-40" class="st0" width="423" height="904.1"/>
		<g>
			<rect x="-11.1" y="-0.1" class="st3" width="97.8" height="84.7"/>
			<rect x="90.3" y="-0.1" class="st3" width="97.8" height="84.7"/>
			<rect x="-11.1" y="88.2" class="st3" width="97.8" height="84.7"/>
			<rect x="90.3" y="88.2" class="st3" width="97.8" height="84.7"/>
			<rect x="-11.1" y="176.5" class="st3" width="97.8" height="84.7"/>
			<rect x="90.3" y="176.5" class="st3" width="97.8" height="84.7"/>
			<rect x="-11.1" y="264.8" class="st3" width="97.8" height="84.7"/>
			<rect x="90.3" y="264.8" class="st3" width="97.8" height="84.7"/>
			<rect x="-11.1" y="353.1" class="st3" width="97.8" height="84.7"/>
			<rect x="90.3" y="353.1" class="st3" width="97.8" height="84.7"/>
			<rect x="-11.1" y="441.5" class="st3" width="97.8" height="84.7"/>
			<rect x="90.3" y="441.5" class="st3" width="97.8" height="84.7"/>
			<rect x="-11.1" y="529.8" class="st3" width="97.8" height="84.7"/>
			<rect x="90.3" y="529.8" class="st3" width="97.8" height="84.7"/>
		</g>
	</g>
	<g class="st2">
		
			<rect id="black-rec-3_00000089536092007910483390000001519829769014301829_" x="621.6" y="-40" class="st0" width="423" height="904.1"/>
		<g>
			<rect x="632.2" y="-0.1" class="st3" width="97.8" height="84.7"/>
			<rect x="733.6" y="-0.1" class="st3" width="97.8" height="84.7"/>
			<rect x="632.2" y="88.2" class="st3" width="97.8" height="84.7"/>
			<rect x="733.6" y="88.2" class="st3" width="97.8" height="84.7"/>
			<rect x="632.2" y="176.5" class="st3" width="97.8" height="84.7"/>
			<rect x="733.6" y="176.5" class="st3" width="97.8" height="84.7"/>
			<rect x="632.2" y="264.8" class="st3" width="97.8" height="84.7"/>
			<rect x="733.6" y="264.8" class="st3" width="97.8" height="84.7"/>
			<rect x="632.2" y="353.1" class="st3" width="97.8" height="84.7"/>
			<rect x="733.6" y="353.1" class="st3" width="97.8" height="84.7"/>
			<rect x="632.2" y="441.5" class="st3" width="97.8" height="84.7"/>
			<rect x="733.6" y="441.5" class="st3" width="97.8" height="84.7"/>
			<rect x="632.2" y="529.8" class="st3" width="97.8" height="84.7"/>
			<rect x="733.6" y="529.8" class="st3" width="97.8" height="84.7"/>
		</g>
	</g>
</g>
</svg>
