<?xml version="1.0" encoding="UTF-8"?>
<svg id="Layer_1" data-name="Layer 1" xmlns="http://www.w3.org/2000/svg" viewBox="0 0 216 216">
  <defs>
    <style>
      .cls-1 {
        fill: #fff;
      }
    </style>
  </defs>
  <g id="_礼" data-name="礼">
    <path id="_礻" data-name="礻" class="cls-1" d="M8.13,47.01c-4.22,.44-4.89,2.44-5.11,5.11-.22,2.44,1.56,3.33,5.11,5.11,3.11,1.56,6.89,2.22,10.44,.89,3.11-.89,7.11-1.78,10-1.56,3.78,.22,7.56-.89,10.89,0,4.44,1.11,7.11-.22,11.11-.22,2.44,0,5.78,.44,7.78,.22,2.89-.22,6,.22,7.11,2.22,.89,1.78,2.67,3.33,2,4.89-.67,1.78-2,4.67-3.11,5.78-1.33,1.11-1.56,2.22-2.44,4.67-1.11,3.33-2.89,5.33-3.78,6.67-1.78,2.67-1.78,3.78-3.78,6.22-2.22,2-2.22,3.56-3.78,6-2,2.44-3.56,4-4.22,6-.67,1.78-2.89,4.22-3.78,5.56-1.56,2-2.89,4-4.44,5.78-1.11,1.11-4,4.67-4.89,5.33-2.44,1.33-4.22,2.44-4.89,4.89-.89,2-3.11,2.67-4.89,5.11-1.78,2.22-3.11,3.78-5.11,5.33-2.22,1.78-4.22,3.11-5.11,5.33l-5.33,7.33c-1.56,3.33-2.44,6.67-.44,7.56,2.44,1.11,2.44,2.44,5.56,.67,2-1.11,2.89-1.78,6-3.78,1.56-1.11,3.78-4,6-5.78,2.89-2.22,4-3.56,5.11-5.56,.67-1.33,4.22-4.22,5.56-5.56,2.44-2.22,5.56-2.67,7.56,0,1.33,1.78,2.67,2.22,2.67,4.22-.22,2.44,.89,4.44,1.11,6.22,.44,2.67-.67,8-.67,10.44,0,3.11-.67,5.78-.22,8.22,.22,2.44-.22,6-.22,8.44,0,2.22,.22,5.11,0,8.44l-.22,8.44c0,2.89,0,8.44-.44,11.11,0,2.44-.44,6,0,8.67,.44,1.78,3.11,3.56,4.89,3.56,1.56,0,4.44-.44,7.11-1.56,2.89-1.33,4-2.44,4.89-4.89,.67-2.22,1.33-7.33,.22-10.22-1.33-2.22-.44-7.33-.44-10,0-2.89-1.11-4.67-.22-7.78,.67-2-.22-6,0-8,.44-3.11,0-4.67-.22-8.22-.22-2.44-.22-4.44,0-8,.89-3.78,0-8-.22-11.78,0-2.44,.44-3.56,.67-6.22,0-.89,1.11-3.78,1.56-5.56,.44-2.44,2.22-4.89,4.22-4s2,3.33,4.67,4c2.22,.67,2.22,1.33,3.56,3.33,2,2.89,2.22,3.33,4.44,5.56,2.44,1.78,2.44,4.44,4.67,6.44,1.78,1.56,3.11,4,7.11,3.33,2.22,0,4.44-.67,5.56-2.89,1.11-2.22,2.22-4.22,2-6-.44-1.78,.22-3.11-1.11-5.56-.89-1.56-2.44-2.89-3.33-4.89-.67-1.33-2.44-2.89-4.89-4-2.22-1.11-3.78-3.33-5.78-3.33s-5.56-1.56-7.33-2.67c-2.44-1.56-4.67-2-7.33-2.67-2.67-.67-4.89-2.22-6-2.89-1.78-1.11-3.33-1.33-2.67-2.67,.67-1.11-1.56-3.56,0-6,1.56-2.67,2.22-3.33,3.56-4.44,1.78-1.56,2-2.22,3.56-4.67,1.33-3.11,2.44-3.33,3.56-4.67,1.56-2,2.89-2.89,3.11-4.89,.22-3.33,2.22-2.89,3.33-5.11,.44-1.11,2-3.11,3.11-5.11,1.33-2.67,2.22-4,2.89-5.11,1.11-1.78,1.11-3.78,2.89-5.33,1.56-1.56,3.33-.67,5.56-2.44,.89-.89,3.11-1.78,3.56-4.89,0-2-1.56-2.44-2-3.78-.44-1.11-2-2.44-4.67-4.67-2.89-1.78-3.78-3.11-5.33-4-1.33-.89-2.67-2.67-4.44-1.78-2.22,.67-3.11,.67-4.22,2.44-.67,.89-1.33,3.56-2.67,4.44-1.33,.89-4.44,.22-7.56,0-1.78-.44-3.33-.89-3.78-2.89-.44-2.22-2.44-3.56-2-5.78,.67-2.44-.67-6.22,0-10,.44-1.33,0-4.89,1.11-7.33,1.56-2.44,1.33-4,2.44-4.44,2.44-.89,4.22-2.22,4.67-5.56,.22-1.78-3.56-3.78-8.44-4.22-4.22-.44-8.44-1.33-10-1.33-2.44-.22-5.33-.89-6.22,2-1.11,3.33,.89,8,.44,10.22-.22,4,.67,6.44,0,10-.44,2.67-.22,7.11,0,10.44,.22,3.56-.89,3.78-2.22,5.78-.67,.89-2.22,3.11-4.67,3.11-3.56-.44-5.33,.22-8.22,0-3.56-.22-6.89-1.56-10-1.56l-10.44,.67Z"/>
    <path id="_乚_" data-name="乚
" class="cls-1" d="M197.91,168.12c-.67,3.11-1.56,5.78-2.89,8-.89,1.33-2,5.11-3.78,5.33s-3.33,2-4.44,2c-2.44,0-4.44,1.11-6.22,.89-4.67-.67-8.22,.22-12,.22h-10.22c-2.89,0-6.44-1.11-10-1.33-3.78-.89-4.44-1.78-4.44-6.44,0-4,.22-6.89,0-9.56-.22-3.11-.67-5.78,0-9.78,.44-2.22-.67-7.33,0-9.56,.44-2,0-6.89,0-9.78,0-2.67,.22-6.44,0-9.56-.67-3.33-.22-5.56,0-9.78,.22-2.89,.89-5.56,0-9.78-.44-2.22,.44-5.78,0-9.78v-9.56c0-2.22,.89-7.56,0-9.78-1.11-4,.67-5.56,0-9.78-.22-3.56,.44-5.56,0-9.78-.44-2,0-7.33,0-9.56v-9.78c0-3.11-1.11-7.78,0-12,.44-2.89,1.56-6.89,4-8.22,1.11-.67,5.11-3.11,5.11-5.56,0-1.56-1.11-2.44-3.33-3.78-2.67-1.78-4.22-2.22-7.78-2.22s-5.33-.67-8.67-1.33c-1.56-.22-5.56-3.56-6.22-.67-1.11,4,.44,7.56,.44,10.67,0,3.33,.22,6.22,.22,10v10c0,4-.67,6.67,0,10,.22,2-.67,6.22,0,7.78,.67,1.56,0,4.67,0,7.56v15.56c0,3.56-.89,5.11,0,7.78,.44,1.56,0,6,0,7.56,.22,3.56-.67,4.44-.22,7.78,.22,1.78,.44,5.78,0,7.78-.67,3.33,.44,5.78,0,7.78-.22,1.78,.44,4.44,0,7.78-.22,1.56,.22,4.67-.22,7.56-.22,2.67-.44,5.78,0,7.78,.67,2.22,.44,5.33-.22,7.78-.89,2.22-.44,5.11,0,7.78,.22,2-.22,6-.22,7.56,0,2.22-.89,6.22-.22,7.78,.89,2.22,.67,3.33-.22,10.44-.89,3.11,0,5.33,1.11,8.44,.89,2.67,3.33,5.56,5.78,6,1.33,.22,4,1.56,7.56,2,2,.22,6.89,1.11,9.78,.89,2.67-.22,6.67,.22,10,.22h8c1.78,0,4.44,.22,6.89,0,2.89-.22,4.67-.44,6.89-.22,1.56,.22,4.44,.22,6.89-.44,2.67-.67,4.67-.67,7.11-.89,2.89-.44,6-1.33,8.89-2.22,2.89-.44,4.22-.44,5.56-3.11,1.33-2.67,2.89-3.56,2.22-5.56-.89-2.22-2-4-3.33-4.89-1.78-1.11-2.89-1.78-3.56-4.89-.44-2-1.11-3.33,0-6.89,.89-3.11-.44-4.89,0-8,.44-3.11-.67-5.56-.89-6.67-.22-1.56-1.11-3.11-2.67-2.89-2,.22-2.44,3.11-2.89,5.56l-1.78,9.78Z"/>
  </g>
</svg>