<?xml version="1.0" encoding="UTF-8"?>
<svg id="Layer_1" data-name="Layer 1" xmlns="http://www.w3.org/2000/svg" viewBox="0 0 216 216">
  <defs>
    <style>
      .cls-1 {
        fill: #fff;
      }
    </style>
  </defs>
  <g id="_翳" data-name="翳">
    <path id="_医" data-name="医" class="cls-1" d="M29.74,81.19c.44-2.67-.44-5.56,1.56-8.67,1.56-2.44,1.78-4,3.56-4.67,2-.67,3.78-.67,6.22,0,3.11,.67,8.22,1.78,10,3.11,1.78,1.11,4,4.44,2.67,5.56-1.33,1.33-4.44,3.78-5.33,4.89-2.22,2.67-2.44,2.89-5.78,5.11-2.22,1.33-5.78,3.11-6.89,3.78-1.78,1.11-1.78,3.33-2.89,4.22-2.67,2-3.56-2.89-3.11-5.33v-8Zm.22-32.44c-.22-2.67,.67-3.78,0-6.89-.22-2.89,0-9.11,.22-12.67,0-1.33,2-5.56,5.56-4.67,3.56,.44,5.33,1.56,7.56,2.89,1.56,1.11,2.67,4.22,1.78,6-1.56,3.11-2.89,3.33-4.44,5.11-.89,.89-2.67,3.33-3.56,4.67-2,2.89-7.11,6.89-7.11,5.56Zm11.78,6.44c2.22-.89,2.67-2.44,5.33-4.67,1.33-1.11,2.44-3.78,4.22-4.22,2.44-.89,3.78-.22,6.67,0,2.67,.22,4.89,2.89,4.22,5.78-.44,2.44-2.89,4.67-5.11,5.33-1.78,.44-6.89,1.56-8.67,1.78-3.11,.44-10.89-.89-13.11-1.33-1.56-3.56,5.11-2.22,6.44-2.67Zm75.49,45.73c-.28-1.02-2.49-2.81-3.61-4.11-1.34-1.55-2.09-2.8-3.94-4.36-2.5-2.12-2.61-2.81-4.84-3.92-1.78-.89-2.67-3.11-4-2.22-2.44,1.33-2.67,3.78-4.44,4.89-1.78,1.11-2.67,4.22-4,4.67-2.89,1.11-4.44-.89-6.89,0-1.56,.89-5.56-.22-7.33,0-2.89,.44-6,.22-7.78,0-3.11-.89-6,0-8.67,0-6-.22-8.89-.44-10.44-1.33-1.78-1.11-2.67-4.44,1.11-5.56,1.56-.44,4.44-2,6.22-3.33s2.44-1.56,4.22-3.33c2.22-1.78,4.22-2.67,6-2.89,2.67-.22,4,0,6,.89,2.22,.89,2.22,3.11,3.56,4.44,.89,.89,1.56,2.22,3.56,4.67,1.78,2.67,2.44,3.11,6.22,3.11,4.22,0,5.33-3.33,6.22-5.78,.67-2.22,.22-6.22-2.89-7.56-1.11-.44-2.22-1.56-3.33-3.11-1.11-1.56-2-1.33-4.44-2.89-3.33-2.22-4.22-2.67-3.78-3.78,.67-2.22,2.89-1.78,4.89-1.56,1.78,.22,5.33,.44,7.78,.44,2.89,.22,4,.67,7.33,1.11,1.56,.22,3.56,0,6-.44,2.22-.44,4-1.11,4-4.22,0-4-1.33-4.67-3.78-7.11-2-1.78-4.67-2.44-6-3.56-1.78-1.11-2.22-1.78-8,1.11-1.11,.67,.44,2.67-4,4-1.78,.44-3.78,0-6.67,0-4,0-8.89-2-6-6.22,1.11-1.78,2-4.44,4.67-5.56,2.67-1.11,3.56-2.67,6.44-2.44,1.11,0,2.89-.44,6,.22,1.33,.44,5.11,.44,6.67,.67,4.67,1.11,6.44,0,8.89-4,1.11-1.78-.67-2.89-1.33-4.67s-2.44-2.89-4.67-3.56c-.89-.22-2.44-3.56-4.89-3.33-1.11,0-2.67-6.22-6.67-2.44-1.11,.89-.22,5.78-4.44,8.44-2,1.33-6.22,.44-7.56,0-3.56-1.33-8.22-.89-10-2.44-1.33-1.11-1.11-1.33-1.33-3.78-.67-4.44-3.11-4.89,.22-5.56,1.33-.22,2.44-1.11,4.67-1.56,1.56-.22,4.89-.22,7.11-.67,3.78-.67,8,.44,11.33,1.11,4.44,.89,6.44,.89,11.11,1.78,4.22,.44,7.56,.89,9.33-.44,2.89-2,4.22-1.56,5.78-5.33,.44-1.33-.44-4.44-1.11-5.78-.44-1.33-3.56-3.11-5.11-4.22-1.33-1.11-4.44-1.33-6.44-3.11-1.56-1.78-2.67-3.11-4.22-2.22-2.67,1.33-3.11,2.44-4.89,4.89-.67,1.11-2.67,3.56-4.67,4.89-1.78,.89-3.78,0-7.11,0s-5.56-.22-7.33,0h-7.33c-2.67,.44-4.22-.44-7.33,0-1.78,.22-4,0-7.33,0h-14.67c-2,0-5.56,.44-7.11,0-2.67-.89-5.78-2.67-7.78-3.56-3.11-1.11-6.22-3.33-8.22-.89-2.44,2.89-.22,7.11,.22,9.56,.67,2.67-.44,6,0,9.11,.44,3.56-.67,5.78,0,9.56,.44,2.44,0,5.33,0,9.56,.44,2.67,0,6.22,0,9.56s-.22,6-.22,9.78c0,3.33-.22,6,0,9.78,.22,2.89,0,6.44-.22,10.22-.22,4,.22,6.44-.22,10.44-.67,4.44,2,7.33,0,11.11-.44,.89-1.78,5.33,4,6.22,2.22,.22,6.44,0,6.89-2.22s2.44-2.22,5.11-4.67c2-1.78,4.44-3.11,6.89-2.89,3.11,.22,8.89-.22,10.89,0,3.33,.22,6-.22,10.44-.22h10.44c2.89,0,6.89-.44,10.89-.44,4.22,0,7.11-1.78,10.89-.44,3.8,.63,6.64-.11,7.53-.02,3.47,.36,5.8-.15,7.62-.16,2.6-.02,10.58,.2,9.9-2.31Z"/>
    <path id="_殳" data-name="殳" class="cls-1" d="M168.86,66.31c1.11,1.56,1.78,2.89,.89,4.22-1.78,3.11-4.67,4.89-5.78,6-1.78,1.56-2.22,2.67-3.78,3.56-1.33,.67-6.22,.44-7.33,0-1.78-.67-1.78-2-3.78-3.33-1.11-.67-4.44-2.22-6.22-5.78-1.11-2.44-1.78-3.33,.22-4.67,1.78-1.11,4.44-2.44,6.22-2.22,3.33,.22,4.89,.22,6.44,0,1.78-.22,4.89-.44,6.67,0,3.33,.44,5.11,.22,6.44,2.22Zm-63.33,38.2s-6.22,1.13-6.89,1.35c-2,.67-3.11,.89-4.67,.89-1.33,0-4.22-.22-6.67,.44-4.89,1.33-3.78,8.67,2.89,7.78,2.67-.44,7.33-.22,9.11-.22,2.89-.22,7.78-1.11,10.89-1.33,3.11,0,8.89-1.33,11.33-2.89,2.44-1.56,7.11-1.56,10-2.22,2.67-.22,5.33-2,7.11-3.11,1.33-.67,4.44-2,7.33-2.44,1.56-1.33,3.33-1.78,6-2.67,2.22-.89,8.89-2.44,11.11,0,1.33,1.56,4.22,3.11,6.44,2.89,3.11,0,4.22,2,6.67,2.67l10,3.33c4,1.33,7.33,4.44,10.67,2.44,.67-.44,1.11-1.56,4-2.89,2.89-1.33,4.22-1.56,5.78-2.44,1.78-1.11,3.78-2.67,4.89-3.11,1.11-.44,2.44-1.56,1.11-4.89-1.33-2.44-2.44-3.33-3.78-4-2.22-1.33-3.33-.22-6.22-.44-2-.22-4.44,.44-6.89,.44l-4.89-.22c-2.44-.22-5.33-1.78-8.67-1.78-2,0-5.11-2.22-5.56-3.56-.67-1.78-1.33-3.78,0-5.56,.89-1.33,1.78-1.78,3.33-4.22,.67-1.11,1.33-2.22,3.33-3.78,2.89-1.78,3.11-4.44,5.33-6.44,1.56-1.56,3.33-1.11,5.11-.67,1.56,.22,4.67-1.78,4-4-.44-1.33-.89-3.11-2.22-4.89-1.56-1.78-3.11-3.11-4.44-3.33-3.11-.89-5.11-3.78-6.44-3.78-2.67,0-2.44,1.78-6.22,3.56s-8.89-.22-12.22,0c-4.89,.44-7.56-.44-12.22,0-1.56,0-3.11,.44-7.11,0-3.56-.22-6.89-1.33-8.67-3.11s-3.11-3.11-1.78-6c1.56-3.56,2.67-6.44,2.89-8.89s1.56-3.78,1.33-5.56c-.44-2.22,1.56-3.78,2.67-5.11,.89-1.11,1.56-3.33,4.22-2.67,3.11,.67,4.67,0,8.22,0,3.11,0,5.33,.67,8,2.22,2.67,1.56,4.67,3.56,4.22,4.44-.89,2,.44,6.89,0,8.22-.67,3.33,.67,6,2,7.11,1.78,2,3.11,2,4.22,2.44,1.11,.44,4,.44,5.78,1.11,3.78,1.56,8,.67,10.44,.22,1.56-.22,4.22-.22,5.78,0,2.44,.44,3.78,.22,7.33-.67,2.22-.89,3.78-1.11,6.22-2.67,1.56-.89,2.89-2.44,2.89-5.33,0-1.78-1.33-1.78-2.44-4.22-.89-2-2.22-2-2.22-6.44,0-2.67,1.78-6.67,1.11-9.33-.89-3.11,2-6.44-4.67-7.11-2.22-.22-3.56,4.22-3.78,7.11-.22,3.33-.44,7.33-1.56,9.56-1.33,2.89-2.89,4.44-3.78,6.22-1.11,2-3.78,1.78-6.89,1.78-5.33,0-8.22,.67-7.33-5.11,.89-2.67-.44-6.44,0-8.67s4.67-3.11,5.11-5.56c.22-1.11-2.67-5.11-5.11-6.67-3.11-2-4.22-4.67-7.56-4.67-2.44,0-3.56,1.56-4,2.89-.67,1.56-.67,3.56-2,4.44-2.67,1.78-9.33-.67-12.22,0-3.33,.89-8.22,.89-11.78,0-3.56-.89-4.89-3.11-7.56-3.78-2.44-.67-3.78-5.33-8.44-2-3.33,2.22,.89,6.89-.22,9.78-.89,1.78,.44,5.78-.44,7.33-1.11,2-.67,4.44-.67,6.67,0,1.56-.67,3.78-1.11,6-.44,2.67-.89,4.44-1.56,6l-3.56,8.22c-.89,2.44-2.22,2-3.11,3.11-1.56,2-2.44,2-3.33,4-2,4.22-3.11,6.89-2,8.89,1.11,2.22,4,1.56,6.22,.89,3.33-.89,5.78-1.33,7.11-3.56,.89-1.33,2.67,.89,4.22,2.89,1.11,1.56,2.67,2.89,2.89,4,.22,1.11,2.22,3.56,3.56,5.11,1.11,1.33,3.11,3.11,4.44,4.67,.89,.89,4,2.89,3.78,5.78,0,1.33-3.33,4.22-5.56,4.22-1.33,0-4,2.67-5.33,2.89-3.33,1.11-6.46,2.46-8.44,2.67-3.12,.32-6.84,2.85-9.71,3.77-1.84,.58-9.18,1.55-9.18,1.55Z"/>
    <path id="_羽" data-name="羽" class="cls-1" d="M41.08,163.19c1.78-.89,2.67-1.33,4.89-2.89,1.33-1.11,2.67-2.67,4.89-2.89,1.33-.22,2.67-2.44,4.44-3.11,1.78-.44,2.44-2,4.44-3.11,1.11-.44,3.11-2.22,4.89-3.33,1.33-.89,2-2.22,4.67-3.33,2.44-1.11,3.33-2.67,6-4,3.33-2,5.11-3.78,8.22-4.44,1.78-.44,4-1.11,4.22,.22,.22,2.22-.44,5.56-.44,8.22,0,2.89-.89,4.44-1.33,6.67-.67,3.78-1.33,4.89-4.44,3.78-2-.67-3.56,2-4.89,3.11-2.67,2-2.89,1.56-4.67,3.33-1.11,1.11-2.67,.89-4.44,3.11-1.11,1.56-3.11,2.44-4.44,2.89s-2.67,1.56-4.67,2.89c-1.33,.89-3.33,2.89-4.44,2.89-1.78,0-2.22,2.22-4.67,2.67-1.33,.22-3.56,2.22-4.44,2.44-2.67,.89-2.44,1.56-4.89,2.44-1.11,.22-2.67,.67-4.67,2.44-.67,.67-4,1.56-4.89,2.22-2.22,1.56-2.89,1.11-4.89,2.44-2.22,1.56-3.11,1.56-5.78,2.44-1.78,.67-3.56,2.44-6.44,3.56-1.11,.44-4.67,2.44-4.67,4-.22,2-1.56,2.89-1.11,4,.67,1.78,2,2.44,4,2.22,2.44-.44,4.67-.44,6.67-.67,2.67,0,5.56-1.78,7.33-2.22l6-2.44c.89,0,3.56-.89,4.89-2.22,1.11-.89,2.44-1.33,4.89-2.44,1.33-.44,3.33-.89,4.89-2.44,1.78-1.56,3.33-1.33,4.67-2.22,2-1.33,2.22-1.56,4.89-2.89,1.78-.89,2.67-2.22,4.89-2.67,2-.22,2.89-1.56,4.67-2.89,1.56-1.11,2.22-2,4.67-2.89,1.33-.44,3.33-1.78,6-3.33,2.22-1.33,3.56-1.78,6-3.56,2-1.33,6.44,.89,6.67,2.67,.44,2.44,.22,3.56-.44,6.22-.44,2.22-.44,3.56-.44,6,0,1.78,0,3.33-1.33,5.11-.89,1.11-4.22,1.33-6.89,1.56-2.89,.22-4.89,.44-8-.22-4-.67-5.11,2.67-6,5.11-.44,1.78,.22,4,1.56,4.67,1.78,.89,3.11,1.56,4.89,2.22,2.44,1.11,4,1.11,5.56,1.78,2,.89,2,2.89,3.11,4,2.44,2.22,6.22,0,8.22-.89,2.44-.89,4.89-1.33,7.33-2.89,2.67-1.33,4.44-2.89,5.11-5.11,.44-1.56,1.78-4.22,2-8-.22-3.11,.22-6.44-.22-10.89-.44-3.78-1.33-6.22-.22-10.67l-.44-10.67c.22-4.22,.44-8,0-10.67-.44-2.67,0-7.56,0-11.11,0-2.44,1.56-5.11,2.44-6.22,1.56-1.78,1.78-4.22,4-4.67,1.78-.22-.44-2.67-1.56-3.78-1.56-1.11-2.67-2.67-4.44-4.44-.67-.67-3.56-2.67-5.11-3.33-1.78-.89-2.89-1.11-4.67-1.11-2.89,0-2.44,3.33-4,4.22-1.33,.67-2.89,1.78-4.67,2.22-2.89,.89-4.67,1.11-7.33,1.11-2.89,0-5.11-.44-9.33-1.11-3.56-.22-6.22-1.11-9.56-.22-2.22,.44-4.67,.22-7.33,0s-5.11-.67-7.33,0c-2.44,1.11-4.44-.22-7.33,0-2.67,.22-4.67,0-7.11,0-3.78-.22-6.22-.67-10.44-1.33-3.56-.67-7.56-.89-10.67,.67-4,2.44-5.33,2.67-4.89,5.11,.22,1.56,2,5.11,4.89,5.11s6.89,.44,10.89,.89c3.33,.22,7.11,.44,10.22,.22,2,0,5.78-.44,9.56,0,2.44,.67,5.78,.44,10.89,0,4.44,0,6.22,1.33,7.56,2,2.22,1.33,.22,3.56-2,4.44-3.11,1.33-2.89,1.56-5.11,3.56-2.44,2-3.33,1.56-4.44,2.89-1.56,1.78-6.44,4-7.78,4.89-3.56,2-5.33,2.67-8,4.67-3.56,2.44-5.78,3.56-7.78,4.44-1.56,.44-2.67,1.78-4.44,2.44-1.11,.44-2.67,1.78-5.11,3.56-4,2-4.89,5.11-4.22,7.78,.44,1.78,1.33,2,4.22,2.22,1.11,0,4-.22,6.44-1.11,2.44-.89,5.11-2.44,6.89-2.89,1.78-.44,4.44-1.33,5.56-2.89,1.33-1.78,2.67-1.78,4.89-2.67l4.89-2.89Zm159.56,18.89c.22-4.22-.44-7.11-.22-9.78,.22-3.33,.44-6-.22-10l-.22-9.78c0-4-.22-9.33,0-12.67,.22-3.11,.44-5.11,2.67-7.11,1.78-1.56,5.78-4.22,4.44-4.89-.89-.44-.44-2-2-3.78-.89-1.11-1.56-2.44-4.44-4.44-2.67-1.78-4.44-2.44-5.56-3.56-1.78-2-3.11-2-4.44-1.56-1.78,.44-2.67,2.22-4.89,4.44-.89,.89-2.22,1.78-4,2.22-2.22,.67-3.78,1.11-6.22,.89-2.67-.44-5.78,.22-8.22,.22-3.78,0-7.11-.44-8.89-.22-4.67,.89-7.78-.44-12.89,0-5.56,1.11-8.67-.22-12.89,0-3.56,0-3.78-1.33-7.33-1.56-3.56-.67-7.56-2.44-10.89,.22-2,1.56-2.67,4.67-2.67,5.78,0,2.67,.67,4.22,2,5.56,1.78,1.78,4.22,1.33,8.67,2,3.11,.44,4-.67,7.33-1.33,1.78-.22,4,.44,7.78,0,2-.22,4.89-1.56,7.56-.89,2.89,.67,5.33,0,8,.67,3.11,1.33-.22,4.22-2.44,4.67-2.89,.89-1.78,3.11-3.78,4-2.67,1.11-2.44,2.44-4.22,3.56-2,1.33-5.11,3.78-7.33,4.67-2.67,1.11-5.11,3.78-7.56,4.22-2.22,.44-5.33,1.11-7.56,4-.89,1.11-2.44,.89-4.67,2.44-2,1.33-2.67,1.56-4.89,3.33-2.67,2.22-5.11,4.89-4.22,7.56,1.11,3.11,5.11,2.89,10,1.56,1.33-.22,4.44-1.11,6.67-2.44,2.67-1.56,4.89-1.11,6.22-3.11,1.11-1.33,2.22-.67,4.67-2.44,2-1.56,3.11-1.78,4.89-2.67,2-.89,2.89-1.33,4.89-2.89,2-1.56,3.78-1.78,4.67-2.89,1.56-1.78,3.56-1.56,4.67-2.89,.67-.89,2-1.78,4.67-3.11,1.56-.67,2-2.67,4.67-3.11,2,0,2.22-1.78,4.44-3.11,1.11-.67,3.56-1.78,6-4,2.67-2.22,5.78-2.44,8.22-4,1.78-1.33,2.67-1.11,3.78-.22,2.44,2.22-.44,4.89-.44,8,0,3.56-1.11,4.89-1.33,6.44-.89,6.22-3.11,0-6.44,.89-1.11,.22-6.22,6.89-8.22,7.11-1.56,.44-2,3.56-3.56,4.67-2,1.56-1.78,2-4.22,3.11-2,.67-3.11,1.33-4.44,2.67-2,2-3.56,2.22-4.67,2.67-2.44,.89-3.56,1.11-4.44,2.67-1.56,2-3.33,1.78-4.67,2.44-2.22,1.11-2.67,2-4.67,2.44-2.22,.44-3.11,1.78-4.67,2.22-1.78,.67-3.11,1.11-4.67,2.22-2,1.33-2.67,1.56-4.44,2-1.78,.44-4,2.22-6.22,2.67-2.89,.67-4.89,2.67-6.44,3.33-3.11,.89-4,3.33-4.89,3.78-1.33,.89-1.78,2.67-1.11,4.22,1.11,2.89,4.67,4,9.78,2.22,1.56-.44,4.89-1.56,7.11-2,2.89-.67,5.11-2.22,6.67-2.67,2-.44,3.33-2.22,4.89-2.22,2,0,3.11-1.56,4.89-2.22,1.78-.67,2.44-2.22,4.89-2.22,2.67,0,3.33-2.22,4.67-2.44,1.56-.22,3.11-.44,4.89-2.67,.89-1.11,3.33-2.22,4.89-2.67,2-.44,2.67-2.22,4.67-2.89,1.78-.67,2.89-2.89,4.67-2.89,2.22,0,3.78-3.11,6.22-3.33,2.67-.44,3.78-2.22,5.78-3.11,2.22-1.11,6.67-.67,6.44,2.22-.22,3.56-1.11,8.89-.89,12,.44,4.22-.89,6-2.22,6-2.22,0-4.22,.67-6.89,.67s-5.56-.89-8.67-.22c-2.89,.67-5.78,2.89-6,5.11-.22,3.11,0,4,2,4.89,2.89,.89,4,1.33,5.78,1.78,1.56,.44,3.78,.67,6.44,1.78,2.22,1.11,2.22,4.22,3.56,4.67,3.11,1.11,6-1.11,8.22-1.33,1.33-.22,5.56-2.22,6.89-2.67,1.56-.67,4-2.44,4.89-4.89,.44-1.11,1.78-5.78,2-8l-.22-10Z"/>
  </g>
</svg>