<?xml version="1.0" encoding="UTF-8"?>
<svg id="Layer_1" data-name="Layer 1" xmlns="http://www.w3.org/2000/svg" viewBox="0 0 216 216">
  <defs>
    <style>
      .cls-1 {
        fill: #fff;
      }
    </style>
  </defs>
  <g id="_讚" data-name="讚">
    <path id="_言" data-name="言" class="cls-1" d="M57.19,166.83c0,2.89-1.33,4.67-2.44,5.33-2,1.33-2.67,2.89-4.67,2.67-2.89-.44-5.78-.44-8.67,0-3.33,.89-6.67-.89-9.33-2.44-1.56-.89-4.67-3.78-4.89-5.11-.22-2.22,.22-5.56,.22-9.11s.67-7.56,.67-10.44c0-2,1.33-4.22,2.67-5.11,1.11-.67,2-2,4.22-2.44,1.56-.22,6.44,.22,8.89,0,2.89-.22,7.33,2.22,8.67,2.67,3.11,1.11,6.22,3.11,4.67,5.11s0,7.56,0,9.56v9.33Zm4.67,24.67c1.33,1.11,3.33-1.33,6.22-1.78,1.56,0,4-3.56,3.78-4.89-.22-2,.89-6.22,0-8.22-1.11-2.89-.44-5.56-.44-8,0-2,.22-6.22-.22-8-.67-2,.44-4.44-.22-7.78-.22-2-.67-3.11,0-6.22s3.33-3.78,4.44-6c.89-1.56,2.44-1.56,2.44-2.89-.22-1.78-.89-2.89-1.78-3.56-2.67-1.78-3.33-3.33-4.22-4.22-1.56-1.56-4.22-2.89-4.89-3.78-1.78-2-3.33-1.11-4.22-1.33-2.22-.67-2.67,2.22-4.44,4-2.67,3.56-6,2.22-10.22,2.67-2.44,.44-7.33,.67-9.56,0-2.67-.89-7.11,.22-9.33,0-2.89-.44-5.78-3.56-7.56-3.78-3.33-.44-5.78-5.33-8.22-3.33-1.33,1.11-.44,4.44,0,7.33,.22,2,.89,5.11,0,7.11-.89,2.22-.44,4.89,0,7.11,.22,1.11-.67,5.33,0,6.89,.67,1.56-.44,4.22,0,6.89,.22,1.78,.89,4-.22,7.11-.67,2,.67,5.33,0,6.89-.67,2.44-.22,5.11-.22,6.89,0,4.22-.44,5.11-.44,8.89,0,2.67,1.33,3.33,0,8.89-.44,2.44,2.67,3.78,4.89,3.56,1.11,0,5.11-.22,6.44-2.22,1.11-1.78,4-2.67,3.33-5.78-.22-1.56,0-3.56,0-6,0-3.33,2.89-4,7.11-4.44,3.56-.44,4.89,0,8.67,0,3.11,0,6.67,0,9.78,.67,2,.44,5.56,.67,5.56,1.78,.22,2,2.22,4.44,3.56,5.56ZM12.97,110.61c2.22,1.33,6.89,2,8.89,.89,1.78-.89,5.56-2,8.67-1.56,2.44,.44,6.22,0,10,0,4.22,0,6.44-.22,10.44-.44,2,0,4.44,.44,6.44,.89,2.44,.67,5.11,1.56,6.89,1.33,2-.22,4.44,.89,6.22-.22,1.33-.89,3.78-1.78,4.44-4.67,.67-4.22-2.44-5.33-4.44-8.22s-5.33-3.11-6.89-4.22c-2-1.33-3.33-3.33-6.44-2.44-2,.44-1.11,0-2,2-.22,.67-.67,1.78-2.89,2.67-1.56,.67-2.89,4-4.89,4.67-2.89,1.11-6.22-.22-8.22,0-3.33,.89-4.89,0-8.67,0-3.11,0-5.11-1.56-8.67-1.56s-6.22-1.11-8.89,.67c-4.22,2.44-5.33,3.56-4.89,5.11,.67,2.44,2.67,3.78,4.89,5.11ZM7.41,19.94c0,2.44,1.11,2.67,4.89,5.11,2.22,2.22,5.78,2,8.89,.89,2-.89,6.22-2,8.67-1.56,4.44,.67,6.89,0,10.89,0,4.67,0,6.44,.89,11.33-.44,1.11-.22,3.56,.89,6.89,.89,2.89,0,4.89,.67,7.78,1.33,1.78,.44,4.44,.67,6.89-.44,1.78-.89,3.56-2,4.22-4.44,.89-2.44,.22-4-1.11-5.78-2.22-3.11-4.22-3.78-5.11-4.44-1.33-1.11-4-1.11-6.44-3.11-1.56-1.11-3.33-1.33-5.11-1.56-1.56-.22-1.33,1.56-2,2-.67,.67-.89,1.56-2.89,2.67-2.89,1.56-3.11,4.22-5.11,4.67-3.56,.89-6.89-.44-9.78,0-3.78,1.11-8-.22-10.44,0-3.33,.44-5.78-1.78-8.67-1.56-3.33,.22-5.33-1.78-8.89,.67-3.11,2-4.89,2.89-4.89,5.11Zm73.58,29.39c-1.79-1.55-4.03-5.17-5.8-6.28-2.22-1.56-4.44-2-6.67-4-2.67-2.22-5.56-4.44-6.67-4.22-3.33,.67-3.11,4-4.67,4.67-1.56,.67-.44,2.89-5.56,6-1.78,1.11-5.11,.22-7.11,0-2.44-.67-4.44,0-7.11,0-1.78,0-5.11,.44-7.11,0-2.22-.44-5.33,.22-7.11,0-3.11-.67-6.89-1.56-8.67-1.56-4,0-4.89-.67-8.89,.67-4,.89-4.89,2.67-4.89,5.11,0,2.67,1.78,3.56,4.89,5.11,2.67,1.33,6.67,1.56,8.89,.89,3.56-.89,4.89-1.56,8.67-1.56,2.44,0,4.89,.44,6.67,0,1.56-.44,4.44,.67,6.67,0,1.78-.67,4.67,0,6.67-.22,3.11-.22,4.44,.67,6.89,0,2.67-.67,4,0,7.33,0,2.67,0,4.89,.44,6.89,0,1.56-.22,5.33,1.11,8.89,1.33,2.22,.22,3.78,.48,5.07-.03,2.21-.87,4.53-4.36,2.73-5.91ZM8.08,77.28c-.44,2.89,.89,3.78,4.89,5.11,3.78,1.11,5.56,2.22,8.89,.89,2.67-1.33,5.33-2,8.67-1.56,3.11,.44,6,0,10.44,0s7.11,.67,10.67-.44c2.67-.89,3.33,1.11,6.67,.67,1.78-.44,4.67,.67,7.33,1.33,2.89,.67,4,.67,6.44-.44,2.89-1.11,2.44-2.67,4.22-4.22,1.33-1.11,1.33-3.78-1.11-5.78-1.11-.89-3.56-3.78-5.11-4.67-2.89-1.56-4.67-2.44-6.44-2.89-2.22-.67-3.33-1.56-5.11-1.56-.67,0-1.11,.89-2,2-1.33,1.56-1.78,2.22-2.89,2.67-1.33,.44-1.56,3.78-4.89,4.67-2.44,.67-6.22-.44-8.89,0-2.22,.44-5.33-.44-9.33,0-4,.22-5.56-1.56-8.67-1.56-2.67,0-6.89,.22-8.89,.67-3.78,.89-4.67,3.56-4.89,5.11Z"/>
    <path id="_替" data-name="替" class="cls-1" d="M134.75,184.83c-.44-5.11-3.78-6.89-6-7.33-3.56-.89-8-1.78-10.67-2-2.22-.22-4.44,3.33-7.11,3.78-2.89,.89-4.89,2.44-7.11,4.22-2.89,2-4.44,1.78-7.11,4-2,1.56-6,2-7.56,3.33-1.78,1.33-6.22,3.11-8,3.11-3.33,.22-4.44,2.44-7.78,2.89-1.78,.22-3.11,1.33-4.89,1.78-1.56,.22-2.89,1.56-4.89,2.44-3.33,1.78-5.78,3.56-4.44,6.89,1.11,2.89,4.89,3.33,7.78,3.33,3.78,0,6.67-.67,10.22-2.44,3.11-1.78,4.89-2.22,8.44-3.11,3.33-1.33,6.22-2.44,7.78-3.11,2.22-1.11,5.56-2.67,7.78-3.33,3.33-1.56,4-2.22,7.56-3.33,1.33-.44,4.67-2.67,7.56-3.56,2.22-.44,4.89-2,7.78-1.78,2.22,.22,3.11-.22,6.44-1.11,2.67-.67,4.44-1.78,4.22-4.67Zm29.11-6.44c-3.11-1.33-6.67-.67-8.22-.22-1.78,.67-4,1.11-4,2.22,0,2.22,2,3.78,6.22,4.22,2.89,0,4,1.11,5.78,2,1.33,.67,3.78,1.33,4.89,2.22,2.89,1.78,4.89,4,7.56,4.89,3.11,.89,4,4,6.89,5.78,1.56,.89,3.11,4.44,6.22,5.56,2.67,.89,4.22,2.44,8,2.67,2.44,.22,3.33-.67,5.11-2,2-1.33,2-3.78,2-5.11,0-2.67-.67-3.56-1.78-5.78-.89-1.78-2.89-2.89-4.67-5.11-.89-.89-3.78-2.44-6.67-3.78-3.33-1.56-5.11-1.56-8-2.89-3.56-1.56-6.89-2.22-9.56-2.67l-9.78-2Zm-13.33-72.89c1.56-.22,5.11,0,7.78,0,2,0,5.56,.22,9.33,1.33,2.89,.89,3.56,1.78,4.44,3.33,2,2.89-3.11,4.44-4.89,5.78-2.89,2-7.56,2.44-9.33,2.44-2.89,0-4.89,.67-8.22,0-2.67-.44-6.44,.44-8.22,0-2.67-.22-6-.44-8.22,0-2.44,.67-6.89-.22-8.22,0-2.44,.44-7.33-.44-9.56-1.56-2.67-1.11-4.44-2.67-4.22-3.78,.22-1.56,2.44-3.56,4.67-5.56,2.44-1.56,5.33-2,7.33-2s5.56,.44,9.56,0c2.89-.67,6.22,1.11,9.78,0,1.33-.44,4.22,.44,8,0Zm-17.33,21.56c2,0,5.33-.89,8.22,0,1.78,.44,6,.44,8.22,0,2.67-.67,6.44,0,8.22,0,3.56,.22,6.44,.22,9.56,1.33,2.89,1.11,5.11,1.78,4.67,3.33-.44,1.56-2.22,5.11-4.89,5.78-3.33,1.11-6,2-9.33,2.44-1.56,.22-4.89-.89-8.22,0-3.78,1.11-5.33-.22-8.22,0-2,.22-6.44-.44-8.22,0-2.67,.67-6,0-8.22,0-3.56,0-7.78-1.11-9.56-1.56-3.33-.67-4.89-2.22-4.67-3.33,.22-1.56,.89-4.67,4.89-5.78,3.33-.89,6.22-2.44,9.33-2.22h8.22Zm16.44,35.78h-16.44c-3.56,0-5.11,.22-8.22,0-3.78-.89-6.22,0-9.56-1.56-4-1.56-4.89-2.22-4.67-4,.22-1.78,2-4.89,4.89-6.22,2.22-1.11,6.67-3.33,9.33-2.44,2.22,.44,6,.44,8.22,0,2.89-.44,5.78,.22,8.22,0,1.78-.22,5.11,0,8.22,0s5.11-.22,8.22,0c3.78,.22,6,.67,9.56,1.33,2.44,.44,4.67,2,4.67,4,0,1.78-2,5.11-4.89,6.22-2.89,1.11-5.56,2.89-9.33,2.67h-8.22Zm8.22-125.11c1.56,.44,3.78,3.56,3.11,5.33-1.11,3.11-1.11,3.78-2.22,6.22-.89,2-2,2.44-3.11,2.44-1.56,0-3.56,1.78-6.89,0-1.78-.89-4.22-3.56-5.33-4.67-1.33-1.11-3.11-4.89-7.56-4.89-1.78,0-3.78,2.44-5.56,4.22-2.67,2.67-5.11,4.89-8,5.11-3.56,.22-5.11-2.22-5.56-5.56-.22-2.22,.67-5.33,2.89-6.89,3.11-2.22,4.67-2.67,6.67-2.89,2.89-.22,9.56-.67,12.67-.22,4,.67,8.89,.22,12,.22,1.56,0,4.44,.89,6.89,1.56Zm-80.66,18.06c-.02,.96,.93,2.47,1.78,3.52,1.25,1.55,2.88,2.64,6.66,2.64,1.78,0,6.22,.67,8.44,.44,2-.22,2,2.44,2.44,3.78,.89,2.44-.89,5.11-2.22,7.56-1.33,2.89-3.33,6-4,7.56-.22,.89-2.67,3.33-4.22,5.33-2,2.89-3.56,4.22-4.67,6.67-2,3.33-2.22,4.44-3.33,6.44-.89,1.78-1.56,2.89,.44,4.89,.89,.67,1.56,1.33,4.22,.44,2.44-.67,4.22-1.56,5.56-3.11,2.22-2.44,3.56-2.89,5.33-4.89l4.44-4.89c.67-.89,2.44-3.78,3.11-4.89,1.33-2.44,1.56-3.56,2.89-4.89,1.33-1.56,2.22-2.67,5.11-3.11,2-.22,4.89-1.11,6.22,.67,1.11,2,4.67,4.44,5.33,5.56,1.56,2.44,1.56,2.89,3.56,4.44,.89,.67,2.22,.22,4.22,1.33,2.89,1.11,3.33,0,4.67-2.22l2.67-4.89c1.33-2.89-1.11-5.78-2.89-7.56-1.78-2-3.33-4.89-6.89-5.33-2-.22-6.67-2.89-9.33-4.22-2.67-1.33-3.33-2-3.33-3.78,0-2.22,3.33-4,7.78-2.89,2.44,.67,4.44-.89,7.11-.22,3.56,.89,5.33,0,7.33,0,1.78,0,6-.22,9.33,.22,1.56,.22,4.89,.67,6.89,3.56,1.56,2.44,2.44,5.33,1.11,7.11-1.56,2.22-2.89,5.56-3.56,7.11-1.11,2.22-1.78,4-2.89,5.11-1.33,1.33-2.67,3.33-3.56,4.67-1.33,2-2.89,3.33-3.33,4.22-.89,2-.89,3.33-2,4-1.56,.89-9.11,.67-12.44,.67h-12.22c-3.56,0-5.78-3.33-7.78-3.33-2.44,0-6.22-2.22-7.56,.67-1.56,3.33-.44,7.33-.67,11.56-.22,3.33,0,7.78,0,11.78,0,2.67-.22,6.44,0,10.67,.22,4.22-.44,8-.22,10.67,.22,4-.67,6.44,0,10.67,.44,2.89-.67,6.44-.22,10.67,.22,2.22-1.11,5.33-.22,7.78,.89,1.56,1.11,2.67,0,8.22-.67,3.33,2.22,4.67,4.67,3.56,2-.89,4.67-1.56,6.44-2.22,1.56-.44,3.33-2,7.11-3.78,2.44-1.33,6.67-2.67,10.44-2.22,1.56,.22,5.56-.67,8.22,0,2,.44,5.56,.67,8.22,0,1.56-.44,5.33-.22,8.22,0,3.56-.22,4.89-.44,8.22,0l10,.44c3.33,.44,4.67,1.33,7.11,2.44,2.67,1.33,5.78,1.11,8,.89,2.89-.67,4.22-3.11,4.22-6.67l-.22-8.44c0-2.22-.22-4-.22-7.33,0-2.89,.22-5.11-.22-8.22-.22-1.56,0-6-.22-8.22-.22-2.67-.22-4.67,0-8-.22-2.44-.22-5.78,0-8.22,.22-2.89-.44-5.56,0-7.11,.44-1.78,.44-3.78,1.56-4.22,1.56-.67,4.67-2.67,4.67-4.67,0-1.33-.89-1.78-2.22-3.33-.89-.89-2.44-3.11-4.22-4.22-1.56-.89-3.56-2-4.67-3.56-1.11-1.78-2-2-3.78-2-2.67,0-5.11,4.44-6.22,5.11-1.33,.67-3.33,.89-5.56,.67-3.33-.44-7.78-.22-12,.22-1.78,.22-2.44-.67-3.11-1.56-1.11-1.33-.89-2.67,2-5.11,2-2,3.78-7.33,5.56-8.89,.89-.67,2.44-2.67,3.33-4,1.56-2,5.11-4,7.33-3.56,2.22,.44,3.11-.22,4.44,1.56,1.78,1.78,2.44,1.56,3.56,4,.67,2.22,2.44,3.33,3.11,4.67,.67,1.33,2.22,2,3.78,5.11,.89,2,2.67,3.11,4.22,4.67,2.22,2.22,3.56,2.44,4.67,4.44,1.78,2.22,3.56,4.67,5.11,4.44,2.67-.22,3.56-2.44,6.22-5.33,.89-.89,2.44-1.11,4.67-2.67,1.11-.67,7.11-1.11,6.67-2.89-.44-2-4.22-2.67-6.44-3.78-1.78-.89-4.22-.89-6-2.67-1.33-1.33-3.56-2-5.56-3.33-2.44-1.56-3.56-2.22-5.11-3.78-1.78-1.78-4-3.78-6.67-5.56-2.89-2.22-4.22-5.11-3.56-8.22,.22-1.78,.67-5.33,3.78-4.44,3.33,.89,4.89-.22,6.22-.22,3.56,0,8.22,.89,11.56,1.78,2.89,1.11,2.67,.44,5.56-.44,1.33-.44,2.89-.89,4-4.22,.89-2.89-1.11-6.22-4.22-8.22-3.56-1.78-6.22-2.67-7.56-4-1.78-1.78-2.44-3.78-4.67-3.78-2,0-3.33,1.56-4,3.78-.89,2.89-2.67,4.89-6.22,6.89-1.33,.67-4.67,0-6.22,0-3.78,0-6.89-1.78-6.44-6.67,.67-3.33,2.22-4.22,3.11-6.44,.67-1.78,2.89-2.22,4.22-2.44,3.33-.67,5.33,.44,9.33-.44,2.44-.44,6.67,1.78,10.22,1.33s8.22-1.33,8.22-4c0-2.22,0-3.78-1.11-5.78-.89-2-3.11-2.89-4.67-4.22-2-1.56-3.78-2.44-6-2.89-1.33-.22-2.67-1.78-4.67-1.56s-2.44,2.22-4.22,4.44c-1.11,1.33-2,2.67-4,4.44-1.33,1.11-3.78,.67-4.22-.67-.67-1.56-3.33-2.22-3.78-4.67-.44-2.44,1.78-5.11,3.78-6.67,2-1.56,4.67-2,4.89-4.67,0-2-3.78-4-6.67-4.89-2.67-1.11-5.11,.22-8.67-1.56-.89-.44-5.78-1.56-6.44,2.44-.67,3.56-1.11,8.89-.22,10.89,.89,1.56-1.56,5.11-2.44,6.22-2.44,2.44-2.67,3.56-4.44,3.56-2.89,0-5.33,.67-8.44,0-2-.44-3.11-3.56-5.56-4.67-2.89-1.56-3.78-5.56-6-4.67-2.22,.89-3.33,3.33-4.44,4.67-2,1.78-2.89,4-4.22,4.67-1.33,.67-2.67-.22-5.11-.67-2.22-.44-4.89-2-4.89-4.89,0-3.11,1.78-5.78,3.78-6.89,1.56-.89,4.44-3.11,4.89-4.89,.44-1.56-3.56-4.67-6.67-4.67-2.44,0-7.11-1.11-8.44-1.56-1.56-.44-4.67,0-6.44,1.78-1.11,1.11,0,7.56,0,11.11,0,4.44-.22,6.89-2,7.78-2.22,1.11-10.67,1.11-12.89,1.11-3.33,0-5.33-.44-7.56,.89-2.44,1.56-4.67,2.89-4.67,5.33,0,1.78,2.44,2.89,4.67,4.89,1.56,1.33,4.89,1.11,6.67,.89,2.67-.22,5.33-1.33,6.44-1.56,2.22-.44,6.44-.89,7.56,.89,.89,1.33,1.56,3.56,1.11,6.89-.67,4.44-3.33,6.67-4.67,7.33-.89,.44-4.67,.67-6.67,.44-2.67-.22-4.95-.69-7.56-.67-2.97,.03-7.7,1.15-7.77,4.72Z"/>
  </g>
</svg>