<?xml version="1.0" encoding="UTF-8"?>
<svg id="Layer_1" data-name="Layer 1" xmlns="http://www.w3.org/2000/svg" viewBox="0 0 216 216">
  <defs>
    <style>
      .cls-1 {
        fill: #fff;
      }
    </style>
  </defs>
  <g id="_陰" data-name="陰">
    <path id="_阝" data-name="阝" class="cls-1" d="M22.92,106.86v-8.22c-.22-3.78,0-4.89,.22-8.22,.22-2.44,0-4.44,0-8.22l.22-8.22c.22-2.67-.22-5.11,.22-8.44,.22-2.44-.67-6.22,.22-8.22,.89-1.78,.67-6.44,.22-9.33-.44-3.78-.22-6.44,.44-8.89,1.11-3.56,.67-5.78,1.78-9.78,.22-2.22,2.44-4.67,3.33-5.11,1.11-.44,3.11-.22,6,0,2.22,.22,6,.67,7.11,2.67s2.44,4,2.89,5.33c.44,2-1.56,6.22-1.33,8,.44,2.44-1.33,6.89-1.78,8.22-.67,2.22-1.56,4.89-2,8.22-.44,3.78-1.56,6.22-2,8.22-1.11,4-1.56,5.56-2,8.22-.67,4-.67,5.11-2.44,8.44-1.56,3.11-2.44,4.89-2.22,8.44,.22,2.44,2.22,3.78,4.22,5.78,2.44,2.22,1.78,3.33,3.56,5.56,2,2.22,1.78,4,2.89,5.78,.89,1.11,2,4.44,2.44,5.78,.44,1.33,2,4.22,1.78,6-.44,2.89,1.33,4.89,1.33,6.44,.22,3.33,.89,3.33,.67,6.67,0,1.56,.22,5.78,.22,6.89,.22,2.22,.89,4.44-.44,6.89-.89,2.22-1.33,3.56-2.22,5.33-1.33,2.89-2.22,2.89-4,3.56-2.89,.89-4.67,1.33-6.67,1.11-2.22-.22-5.11,.89-7.56-.44-1.78-.89-2.89-2.89-3.56-4.89-.67-1.78-2.22-5.11-1.78-8.89,.22-2-.89-4.89,0-9.11,.22-4.22-.22-6.44,0-9.33,.44-2.22,.22-5.78,.22-8.22v-8ZM7.59,37.31c-.67,3.33,.67,6.67,0,8.44-1.11,3.33,.89,7.33,0,9.56-.67,2.22,0,6,0,9.56,0,3.78-.44,6.89,0,9.56,.67,3.78,.44,6.89,0,9.56-.44,2.89,.67,6,0,9.56-.67,3.56,.22,5.78,0,9.56,0,2.67-.22,6.22,0,9.56,.22,4,.89,6,0,9.56-1.11,4.44,.22,6.22,0,9.56-.44,4.44-.22,7.33-.22,9.56-.22,2.89,0,5.56,0,9.56s-.22,6-.22,9.56c.22,4,0,5.78,0,9.56l-.22,9.56c-.44,4.22,.67,5.56-.22,9.56-.89,2.89,.89,6.22-.22,9.78-.44,1.33-.67,2.67,0,7.11,.22,1.78,2.67,3.78,4.67,4,1.11,0,4.89-.22,7.33-1.78,1.78-1.33,4.44-3.78,4.22-6-.22-2.44,.89-8,0-10.67-1.11-4.22,.67-6,0-10.44-.44-2.44,0-5.33,0-8.22,0-3.11,1.56-4.67,3.11-5.78,1.56-1.11,4.67-2,5.11,0,.44,2.44,2,6.22,3.33,6.67,3.78,1.33,8.67-.89,11.33-2,1.11-.44,2.44-1.33,5.11-2.22,2-.67,3.11-2.67,4.44-3.56,1.11-.89,3.33-3.78,4.44-5.78s2.89-3.11,2.89-6.67c0-2.44,.44-4.44,1.33-7.11,.89-3.11,.22-5.33,.44-7.11,.44-3.33-.44-4.22-.44-8,0-2-.89-5.33-1.11-7.33-.44-3.33-2.22-4.67-2.22-6.67,0-2.44-1.78-3.33-2.89-6.44-.44-1.56-1.33-3.33-3.56-6-2.44-2.22-2.89-3.56-4.44-6-1.33-2.22-3.33-3.56-6.22-6.89-.89-.89-2.89-6.22-1.33-8.67,1.11-1.78,1.33-2.67,2-4.67,.67-2.22,.89-2.89,2.22-4.67,.89-1.56,2-4,3.11-7.56,.44-1.56,1.11-4.22,3.11-7.56,1.56-2,1.56-4.89,2.89-7.56,1.11-2.67,2.44-5.33,2.67-7.78,.22-1.56,1.56-5.11,2.67-7.56,.89-2.44-.22-7.33,2.67-7.78,2.44-.44,3.56-1.11,4.89-1.78,2-.67,3.56-1.78,3.11-4.44-.22-1.11-.89-2.22-2-4.22-1.56-2.89-4.22-4-4.89-4.67-2-1.78-4.44-3.11-5.78-3.78-1.11-.67-3.33-2.44-4.89-1.56-1.56,.89-4,3.11-5.11,4.67-1.11,1.78-4.67,2.22-8,3.11-2.22,.44-5.78-.44-7.11,0-2.89,.89-4.44,.22-6.89,0-2-.22-2.89-2.22-4.22-2.89-1.78-1.11-3.78-1.78-4.89-1.78-4,0-8-2.44-10.22,.22-2.44,3.11,0,6.67,.22,8.89,.22,2.44,.67,5.11,0,8.67v8.67Z"/>
    <path id="_人" data-name="人" class="cls-1" d="M103.36,26.86c-2.22,2.22-2.44,4.22-3.56,5.33-1.33,1.33-2.44,3.78-4,4.89-2.22,2-3.11,3.11-4,4.67s-2.22,2.44-4.22,4.44c-1.33,1.33-3.56,3.56-4.44,4.22-1.56,1.56-3.11,2.22-4.67,4.22-1.33,1.56-2,2.67-4.44,4.22-2,1.33-3.11,2.89-4.67,3.78-2.44,1.33-4.44,3.33-5.78,4.89-2.22,2.44-4.44,3.33-6.22,5.78-1.78,2.67-3.56,3.11-4.67,5.56-.67,1.78-1.78,2.67-.67,4.67,.89,1.78,1.78,1.78,4.22,1.11,2-.44,4-.44,6.44-2.22,1.56-1.56,4.44-2.44,6.89-4.22,.89-.67,4.67-3.56,6-4.22,2.22-1.11,3.56-3.11,5.78-5.11,2.22-1.78,2.89-3.11,5.78-4,1.11-.44,2.22-.89,4.22,.44,2,1.33,5.33,0,8.22,.44,3.33,.67,4.89,0,7.33-.44,4.22-.67,6.89,0,10.67,0,3.11,0,6.44,.89,10.89-.22,1.78-.44,4,.22,6.44,.67s5.11,1.11,7.33,1.56c2.89,.67,4,0,6.44-.44,1.78-.22,4.22-1.33,4.44-4.67,0-2-2-4.67-4.67-7.78-2-2-6.89-3.33-7.11-4.44-.44-1.78-3.56-4.89-6.67-2.67-.67,.44-.67,.89-2.22,2-1.33,.89-2,1.78-2.67,2.67-.89,1.11-3.33,4.67-5.11,4.67-2.67,.22-6.22,.44-8.89,0-4.22-.89-8.44-.67-12.44-.22-1.11,0-2.44-2-1.56-4,.89-2.22,3.33-5.78,4.89-7.33,2.22-2.22,3.78-3.11,4.22-4.22,.89-2.22,2.89-2.44,3.56-3.78,.44-.89,2-1.33,3.33-3.56,1.78-2.22,5.56-3.11,7.78-3.11s6.67,2,7.56,3.33c1.33,1.78,2.44,1.56,3.11,3.56,.44,1.33,.89,2,2.89,3.56,1.33,1.33,2.89,2.67,4,4.22,1.33,2,2.67,1.78,3.78,4,.44,1.33,2.89,3.11,4,4,1.33,1.11,2.44,1.78,4,3.56,.89,.89,2.89,2.89,4.22,3.78,1.78,.89,2.44,2.22,4.44,3.56,1.56,1.11,2.89,2.67,4.44,3.33,2.67,1.33,2.89,2.89,4.67,3.11,2.22,.67,3.11,1.33,4.67,3.11,2.22,2,2.67,1.11,4.89,2.89,1.33,1.11,2.44,2.67,4.89,2.89,1.11,0,3.78,4,5.33,2.67,2-1.56,2.67-2.67,4.44-2.89,1.78-.22,5.33-1.56,6.22-2,1.56-.89,4.44-2.44,5.33-3.33s2-2.89,1.56-6.22c-.67-4-1.11-4.44-3.33-6-2.67-1.78-4.89-1.78-6-1.78-2.44-.22-4.89-.44-6.89,0-2,.22-3.56-.44-5.78-.89-2-.44-3.56-1.33-5.33-2.44-1.78-1.11-4-1.78-5.11-2.67-2-1.56-3.56-1.78-5.11-2.67-2-1.33-2.89-1.33-4.89-2.89-1.56-1.11-3.11-1.78-4.89-2.89-1.33-.89-3.11-2.67-4.67-3.33-1.78-.67-3.56-1.56-4.67-3.11-1.33-1.78-2.44-1.56-4.67-3.56-1.33-1.56-3.33-3.56-6-4.89-2-.89-4.67-5.33-5.11-7.33-.89-3.33,.67-4.44,1.33-5.78,.44-.89-.67-3.33-2.44-4.44-2.44-1.78-3.56-3.11-6.44-3.78-2.22-.44-5.56-2-7.33-2.44-2.22-.67-3.78-1.56-5.11-1.56-3.56,.22-2.89,3.78-3.56,5.78-.89,2.89-1.56,4.67-3.56,5.56-2.22,1.11-2.89,4.44-3.56,5.33l-3.56,5.11Z"/>
    <path id="_云" data-name="云" class="cls-1" d="M119.81,108.2c-2.89,0-6-.44-7.56,0-4.44,1.33-8.44,.89-12.44,0s-9.33,.44-12.67,0c-3.33-.44-6.89-1.56-10.44-1.33-2.89,0-6.89-.67-10.89,.67-3.56,1.11-3.11,3.56-4,4.89-.44,.89,.89,4.44,4,5.33,3.33,.89,7.78,1.56,10.89,.67,3.11-.67,6.44-.44,10.44-1.56,4.89-.89,10-.44,13.33,0,2.44,.22,4.44,.22,6.44,0,1.56-.22,4.22-.22,6.67,0,4.67,.44,8.67-1.56,13.33,0,2.22,.67,4.89,0,6.67,0,2,0,4.67-.67,6.67,0,1.56,.44,4.44-.22,6.67,0,1.78,.22,4,0,6.67,0,2.44,0,4.89,.22,6.67,0,2.89-.44,3.78-.89,6.67,0,1.56,.22,4.44,.44,6.67,0,2.89-.22,4.89-.89,6.67,0,1.78,.67,4.67,.22,6.67,0,2.89-.44,5.11-.89,6.89-.22,1.78,.44,5.33-2.67-.67-8.89-.89-.89-3.56-2.67-4.67-4-1.33-1.78-3.11-2.89-4.44-3.78-1.33-1.11-3.33-4.67-6-4.89-3.56-.44-3.56,4.44-6.44,6.44-2.89,2-4.44,6-6.22,6.67-1.78,.44-4.44-.44-6,0s-3.33,0-4.44-2.89c-.67-2.22-1.33-3.33-1.11-5.56,.44-2.44,.67-6.44,2-7.78,1.56-1.56,6.22-1.11,7.33-5.56,.22-1.11-.22-1.56-1.56-4-1.11-2-2.67-2.22-4-4.22-.89-1.11-3.11-2-5.11-3.33-2.44-1.56-2.89-1.33-4.44-1.33-2.67,.22-3.11,3.78-4.44,4.67-2.22,1.33-6.67,2.89-10,2.67-2.22,0-5.33-.44-9.33,0-2.89,.44-7.33-.67-9.33,0-1.78,.44-4.44-.44-6.89,0-2.89,.44-4.89,0-6.89,0h-6.89c-2.67,0-4-.44-6.89,0-1.78,.22-5.56-.44-8.44-1.33-2.89-.89-6,0-8,1.33-4,2.89-5.33,3.33-5.11,4.89,.44,2.22,1.33,2.89,4.22,4.67,3.11,1.78,6.22,.89,8.89,.67,2.67-.22,4.67-1.56,8.44-1.56,2.44,0,5.56-.67,6.89,0,2.22,.67,4.89,.44,6.89,0,2.44-.44,5.11,.22,6.67,0,2-.22,3.78,.22,6.89,0,2.44-.22,8.22,.89,12.44,0,2.22-.89,6.44,0,8.67,2.22,2.44,2.22,3.78,3.33,3.56,6.22-.22,2.44-2.89,5.56-4.89,7.33-2.89,2-4,2.89-7.11,2.89h-7.56ZM50.48,194.42c.44,1.78,1.11,6,3.33,7.11,1.33,.89,1.56,2.89,3.78,3.11,2-.89,4.44-1.33,5.33-4.67,.67-2.22,.89-2.67,3.78-2.44,1.33,.22,3.56-.44,5.78-1.56,1.78-1.11,6-.89,8.44-.89,2.22,0,6.22-.89,8.44-1.11,2.89-.44,5.11-.67,6.44-.67,1.11,0,3.78-1.11,6.22-.89,1.56,.22,5.11-1.11,6.44-.89,1.78,.22,4.44-.67,6.44-.89,2.89-.44,4.44-.44,6.22-.89l6.44-.89c1.78-.44,4.22-.67,6.44-.89,2.44-.22,3.56-.67,6.22-.89,2.67-.67,4.67-1.11,6.44-1.11l6.22-.89c2.89-.22,5.11-.22,6.44-1.11,2.44-1.78,3.11-1.56,6.44-1.11,1.78,.22,.89,2.67,2.89,4,1.78,.89,2.67,2,3.33,4.44,.22,.89,3.11,3.33,3.33,4.89,.67,2.67,2,3.33,3.56,6,1.11,2.22,2.67,4.44,4.22,5.11,1.56,.67,4,2,6.22,2.22,1.78,0,4.67-2.44,5.78-3.78,1.78-2,2.44-3.78,1.56-6.89-.22-1.11-.22-3.78-1.56-6.44-.67-1.33-2.89-4.67-3.56-5.78-1.11-1.56-3.11-4.22-4.89-5.11-1.11-.44-4.44-3.33-4.89-4.22-1.11-1.33-2.89-2.89-4.89-4-1.78-1.11-3.11-1.11-5.11-3.56-1.11-1.33-4.22-2.44-5.33-3.11-1.78-.89-4-1.78-5.56-2.89-1.56-1.11-5.11-2-6.89-2.89-3.11-1.56-4.67-2-8.22-3.11-3.11-1.11-4.44-2.22-6.89-1.56-1.78,.44-3.33-.22-3.78,1.33-.67,2.22,.44,3.11,4.89,4.89,2.22,.89,4.22,2,5.56,3.33,1.11,1.11,3.78,2.22,5.78,3.78,3.11,2.44,5.56,6.67,2.89,6.67-1.78,0-5.33-.44-7.11,.44-2,.67-4.44,.22-6.67,.44-5.56,.89-7.78,.22-12.44,.67-3.11,.22-8-1.33-12,.67-1.33,.67-4.67,.44-6.44,.44-3.11,.22-5.11,1.33-8,.44-.89-.22-2-.89,.44-3.56,.89-.89,1.56-1.56,2.67-4.22,.67-1.11,2-2.89,4.44-5.33,2-2.22,3.78-4.22,5.56-7.78,.67-1.33,2.44-5.56,4.89-7.56,1.33-1.33,4-2.89,7.33-3.78l5.78-1.33c2.44-.44,6.67,.67,10.89,0,3.56-.89,5.33,0,9.11,0s5.78,1.11,9.33,0c2.89-.89,5.56-.44,9.33,0,2.89,.22,6-.89,9.33,0,2,.44,4.89,0,8.89,0h7.33c1.11,0,4.22,0,4.44-1.78,.22-1.56-.22-6.44-3.33-7.78-1.11-.44-1.78-2.67-4.89-4-1.11-.44-3.56-2.89-4.67-3.78-1.33-.89-4-4-8.22-3.11-2.22,.44-3.56,3.56-5.56,5.78-2.44,2.89-3.78,5.56-5.56,6-3.11,.67-5.56,0-9.56,0-3.33-.22-7.56,0-10,0-3.56,0-6.44-.44-10,0-3.33,.67-5.78,0-10,0-3.56,0-6.67-.22-10.22,0-3.78,.44-7.33,.89-9.56,0-3.11-.89-6.67-.44-10.44,0-2.89,.44-7.78,.67-10,0-2.67-.89-5.78-1.33-10-1.33-3.11,0-7.78-.22-10.44,.67-3.56,1.11-4.67,3.33-4,5.11,.67,1.33,.89,3.78,4,5.11,3.33,1.78,7.56,.67,10.44,.67,2.44-.22,7.11-1.78,10-1.56,3.11,.22,4.67,.22,5.78,0,2.22-.22,3.11,2,3.33,3.33,.67,2.67,.22,4.44-.44,6.67-.67,1.78-2.44,5.11-3.78,7.11-1.33,2.22-1.78,2-2.89,4.44-.89,2-2,3.33-3.11,4.44-.89,1.11-2.44,3.33-3.33,4.22-1.56,2-2.67,3.33-3.78,4.22-2.67,2-5.11,.89-7.33,.22-3.11-.89-5.33,.22-7.56,.22-2.67,0-4.22,.67-6.89,.22-1.56-.22-8.67-4.89-12.44,.44-.89,1.33,.44,2.22,1.33,5.11l2.22,8Z"/>
  </g>
</svg>