<?xml version="1.0" encoding="UTF-8"?>
<svg id="Layer_1" data-name="Layer 1" xmlns="http://www.w3.org/2000/svg" viewBox="0 0 650 430">
  <defs>
    <style>
      .cls-1 {
        fill: #0061e7;
      }

      .cls-2 {
        fill: #e5e5e5;
      }
    </style>
  </defs>
  <g id="bigSign">
    <g id="bigConcave">
      <path class="cls-1" d="M541.19,48.56c.46,16.58,6.7,31.65,17.68,42.63,10.99,10.99,26.08,17.23,42.69,17.7v212.19c-16.59,.46-31.68,6.69-42.66,17.66-11,10.98-17.24,26.09-17.71,42.71H108.72c-.46-16.6-6.69-31.68-17.65-42.66-10.97-10.99-26.05-17.22-42.66-17.69V108.88c16.59-.46,31.68-6.69,42.65-17.66,10.98-10.97,17.22-26.06,17.68-42.67h432.44m1.97-2H106.77c0,34.86-25.54,60.36-60.36,60.36v216.15c34.87,0,60.33,25.55,60.33,60.38h436.41c0-34.92,25.6-60.4,60.4-60.4V106.91c-34.87,0-60.4-25.59-60.4-60.36h0Z"/>
    </g>
    <circle class="cls-2" cx="41.75" cy="40.79" r="9.29"/>
    <circle class="cls-2" cx="608.25" cy="40.79" r="9.29"/>
    <circle class="cls-2" cx="41.75" cy="388.09" r="9.29"/>
    <circle class="cls-2" cx="608.25" cy="388.09" r="9.29"/>
  </g>
</svg>