<?xml version="1.0" encoding="UTF-8"?>
<svg id="Layer_1" data-name="Layer 1" xmlns="http://www.w3.org/2000/svg" viewBox="0 0 565 396">
  <defs>
    <style>
      .cls-1 {
        fill: #0061e7;
      }

      .cls-2 {
        fill: #e5e5e5;
      }
    </style>
  </defs>
  <g id="bigSign">
    <g id="bigConcave">
      <path class="cls-1" d="M519.09,24.07c.63,6.24,3.22,11.88,7.46,16.12,4.24,4.24,9.9,6.84,16.15,7.47V349.45c-6.25,.63-11.89,3.22-16.13,7.46-4.25,4.24-6.85,9.9-7.48,16.15H45.88c-.63-6.25-3.22-11.89-7.45-16.13-4.24-4.24-9.88-6.84-16.13-7.47V47.67c6.25-.63,11.89-3.22,16.13-7.46,4.24-4.24,6.84-9.89,7.46-16.14h473.2m2.85-3H43.04c0,13.71-10.05,23.74-23.74,23.74V352.3c13.72,0,23.73,10.05,23.73,23.75h478.91c0-13.74,10.07-23.76,23.76-23.76V44.81c-13.72,0-23.76-10.07-23.76-23.74h0Z"/>
    </g>
    <circle class="cls-2" cx="18.85" cy="22.35" r="5.57"/>
    <circle class="cls-2" cx="546.15" cy="22.35" r="5.57"/>
    <circle class="cls-2" cx="18.85" cy="373.65" r="5.57"/>
    <circle class="cls-2" cx="546.15" cy="373.65" r="5.57"/>
  </g>
</svg>