<?xml version="1.0" encoding="UTF-8"?>
<svg id="Layer_1" data-name="Layer 1" xmlns="http://www.w3.org/2000/svg" viewBox="0 0 162 71">
  <defs>
    <style>
      .cls-1 {
        fill: #0061e7;
      }

      .cls-2 {
        fill: #e5e5e5;
      }
    </style>
  </defs>
  <g id="smallSign">
    <g id="smallConcave">
      <path class="cls-1" d="M146.02,8.12c.75,3.84,3.63,6.72,7.47,7.46V55.36c-3.84,.75-6.72,3.63-7.47,7.47H15.97c-.75-3.84-3.62-6.72-7.46-7.46V15.58c3.84-.75,6.71-3.63,7.46-7.46H93.57s52.46,0,52.46,0m1.81-2c-6.18,0-123.7,0-133.67,0,0,4.42-3.24,7.65-7.65,7.65V57.18c4.42,0,7.65,3.24,7.65,7.65,6.23,0,128.02,0,133.67,0,0-4.43,3.24-7.66,7.66-7.66V13.77c-4.42,0-7.66-3.24-7.66-7.65h0Z"/>
    </g>
    <circle class="cls-2" cx="5.67" cy="65.4" r="2.1"/>
    <circle class="cls-2" cx="5.67" cy="5.55" r="2.1"/>
    <circle class="cls-2" cx="156.33" cy="65.45" r="2.1"/>
    <circle class="cls-2" cx="156.33" cy="5.55" r="2.1"/>
  </g>
</svg>