<?xml version="1.0" encoding="UTF-8"?>
<svg class="Layer_1" data-name="Layer 1" xmlns="http://www.w3.org/2000/svg" viewBox="0 0 120 60">
  <defs>
    <style>
      .cls-1 {
        fill: #0061e7;
      }
    </style>
  </defs>
  <g id="Layer_1-2" data-name="Layer 1">
    <g id="smallConcave">
      <path class="cls-1" d="M106.02,1c.44,7.26,5.71,12.53,12.98,12.97V46.02c-7.27,.44-12.54,5.71-12.98,12.98H13.96c-.44-7.26-5.7-12.53-12.96-12.97V13.97c7.26-.44,12.53-5.71,12.97-12.97H106.02m.97-1H13C13,7.51,7.5,13,0,13V47c7.51,0,12.99,5.5,12.99,13H106.99c0-7.52,5.51-13.01,13.01-13.01V13c-7.51,0-13.01-5.51-13.01-13h0Z"/>
    </g>
  </g>
</svg>