<?xml version="1.0" encoding="utf-8"?>
<!-- Generator: Adobe Illustrator 27.0.0, SVG Export Plug-In . SVG Version: 6.00 Build 0)  -->
<svg version="1.1" id="Layer_2_00000013166682530598732360000005157584579604911029_"
	 xmlns="http://www.w3.org/2000/svg" xmlns:xlink="http://www.w3.org/1999/xlink" x="0px" y="0px" viewBox="0 0 935.9 178"
	 style="enable-background:new 0 0 935.9 178;" xml:space="preserve">
<style type="text/css">
	.st0{fill:url(#SVGID_1_);stroke:#FFFFFF;stroke-width:2;stroke-miterlimit:10;}
	.st1{fill:url(#SVGID_00000148655147345693937770000007574133449572151207_);stroke:#FFFFFF;stroke-width:2;stroke-miterlimit:10;}
</style>
<g id="Layer_1-2">
	<g id="capGroup">
		
			<linearGradient id="SVGID_1_" gradientUnits="userSpaceOnUse" x1="53.29" y1="1480.3982" x2="888.53" y2="1480.3982" gradientTransform="matrix(1 0 0 -1.13 0 1762.35)">
			<stop  offset="9.000000e-02" style="stop-color:#EBC425"/>
			<stop  offset="0.5" style="stop-color:#FFFD93"/>
			<stop  offset="0.57" style="stop-color:#FDF88A"/>
			<stop  offset="0.67" style="stop-color:#F9EC73"/>
			<stop  offset="0.81" style="stop-color:#F2D84D"/>
			<stop  offset="0.93" style="stop-color:#EBC425"/>
		</linearGradient>
		<path class="st0" d="M105.3,1h731.3c28.7,0,52,23.3,52,52v73c0,28.7-23.3,52-52,52H105.3c-28.7,0-52-23.3-52-52V53
			C53.3,24.3,76.6,1,105.3,1z"/>
		
			<linearGradient id="SVGID_00000011744339700756737670000011626442612326168203_" gradientUnits="userSpaceOnUse" x1="470.91" y1="1401.6912" x2="470.91" y2="1558.6912" gradientTransform="matrix(1 0 0 -1.13 0 1762.35)">
			<stop  offset="6.000000e-02" style="stop-color:#EBC425;stop-opacity:0"/>
			<stop  offset="0.18" style="stop-color:#D9B522;stop-opacity:0.5"/>
			<stop  offset="0.5" style="stop-color:#EBC425;stop-opacity:0"/>
			<stop  offset="0.52" style="stop-color:#EBC425;stop-opacity:4.000000e-02"/>
			<stop  offset="0.56" style="stop-color:#EBC425;stop-opacity:0.14"/>
			<stop  offset="0.6" style="stop-color:#EBC425;stop-opacity:0.3"/>
			<stop  offset="0.66" style="stop-color:#EBC425;stop-opacity:0.52"/>
			<stop  offset="0.71" style="stop-color:#EBC425;stop-opacity:0.81"/>
			<stop  offset="0.75" style="stop-color:#EBC425"/>
			<stop  offset="0.84" style="stop-color:#EBC425;stop-opacity:0.75"/>
			<stop  offset="0.93" style="stop-color:#EBC425;stop-opacity:0.5"/>
		</linearGradient>
		
			<path style="fill:url(#SVGID_00000011744339700756737670000011626442612326168203_);stroke:#FFFFFF;stroke-width:2;stroke-miterlimit:10;" d="
			M105.3,1h731.3c28.7,0,52,23.3,52,52v73c0,28.7-23.3,52-52,52H105.3c-28.7,0-52-23.3-52-52V53C53.3,24.3,76.6,1,105.3,1z"/>
	</g>
</g>
</svg>
