<?xml version="1.0" encoding="UTF-8"?>
<svg id="Layer_2" data-name="Layer 2" xmlns="http://www.w3.org/2000/svg" xmlns:xlink="http://www.w3.org/1999/xlink" viewBox="0 0 935.89 1619.29">
  <defs>
    <style>
      .cls-1 {
        fill: url(#linear-gradient);
        opacity: .77;
      }

      .cls-2 {
        fill: url(#radial-gradient);
      }

      .cls-2, .cls-3, .cls-4, .cls-5, .cls-6, .cls-7, .cls-8, .cls-9, .cls-10, .cls-11, .cls-12, .cls-13, .cls-14, .cls-15, .cls-16 {
        stroke: #fff;
        stroke-miterlimit: 10;
      }

      .cls-2, .cls-3, .cls-4, .cls-5, .cls-7 {
        stroke-width: 2px;
      }

      .cls-17 {
        fill: #ffe351;
      }

      .cls-18 {
        fill: #ff8500;
      }

      .cls-3 {
        fill: url(#linear-gradient-2);
      }

      .cls-4 {
        fill: url(#linear-gradient-4);
      }

      .cls-5 {
        fill: url(#linear-gradient-3);
      }

      .cls-6 {
        fill: url(#linear-gradient-5);
      }

      .cls-7 {
        fill: url(#radial-gradient-2);
      }

      .cls-19 {
        fill: url(#New_swatch_7);
      }

      .cls-8 {
        fill: url(#New_swatch_6);
      }

      .cls-9 {
        fill: url(#New_swatch_6-9);
      }

      .cls-10 {
        fill: url(#New_swatch_6-2);
      }

      .cls-11 {
        fill: url(#New_swatch_6-5);
      }

      .cls-12 {
        fill: url(#New_swatch_6-8);
      }

      .cls-13 {
        fill: url(#New_swatch_6-7);
      }

      .cls-14 {
        fill: url(#New_swatch_6-3);
      }

      .cls-15 {
        fill: url(#New_swatch_6-4);
      }

      .cls-16 {
        fill: url(#New_swatch_6-6);
      }
    </style>
    <linearGradient id="linear-gradient" x1="467.95" y1="1618.29" x2="467.95" y2="9" gradientUnits="userSpaceOnUse">
      <stop offset=".41" stop-color="#c4e2f2" stop-opacity="0"/>
      <stop offset=".63" stop-color="#c4e2f2" stop-opacity="0"/>
      <stop offset=".67" stop-color="#bcd8e7" stop-opacity=".26"/>
      <stop offset=".71" stop-color="#b5d0de" stop-opacity=".5"/>
      <stop offset=".76" stop-color="#b4cfdd" stop-opacity=".27"/>
      <stop offset=".82" stop-color="#b2cddb" stop-opacity=".06"/>
      <stop offset=".84" stop-color="#b6c8cc"/>
      <stop offset=".85" stop-color="#c3d1d8"/>
      <stop offset=".85" stop-color="#cbd6d8"/>
      <stop offset=".85" stop-color="#cad5d7"/>
      <stop offset=".85" stop-color="#becdd0"/>
      <stop offset=".85" stop-color="#b7c9cd"/>
      <stop offset=".86" stop-color="#b6c8cc"/>
      <stop offset=".89" stop-color="#b2cddb" stop-opacity="0"/>
      <stop offset=".9" stop-color="#b6c8cc"/>
      <stop offset=".91" stop-color="#c3d1d8"/>
      <stop offset=".94" stop-color="#b2cddb" stop-opacity="0"/>
    </linearGradient>
    <linearGradient id="linear-gradient-2" x1="1" y1="813.65" x2="934.89" y2="813.65" gradientUnits="userSpaceOnUse">
      <stop offset=".41" stop-color="#c4e2f2" stop-opacity="0"/>
      <stop offset=".57" stop-color="#c3e1f1" stop-opacity=".19"/>
      <stop offset=".71" stop-color="#c2e0f0" stop-opacity=".34"/>
      <stop offset=".78" stop-color="#c2e0f0" stop-opacity=".4"/>
      <stop offset=".9" stop-color="#b2cddb"/>
      <stop offset="1" stop-color="#c4e2f2" stop-opacity=".3"/>
    </linearGradient>
    <radialGradient id="radial-gradient" cx="459.18" cy="742.51" fx="459.18" fy="742.51" r="660.08" gradientUnits="userSpaceOnUse">
      <stop offset=".25" stop-color="#ffff93" stop-opacity=".2"/>
      <stop offset=".28" stop-color="#fffe94" stop-opacity=".22"/>
      <stop offset=".31" stop-color="#fffe9a" stop-opacity=".27"/>
      <stop offset=".35" stop-color="#fffda3" stop-opacity=".36"/>
      <stop offset=".38" stop-color="#fffdb0" stop-opacity=".49"/>
      <stop offset=".42" stop-color="#fffcc1" stop-opacity=".65"/>
      <stop offset=".45" stop-color="#fffbd5" stop-opacity=".84"/>
      <stop offset=".48" stop-color="#fffae6"/>
      <stop offset=".49" stop-color="#fbf8e6" stop-opacity=".96"/>
      <stop offset=".51" stop-color="#eef3e9" stop-opacity=".8"/>
      <stop offset=".54" stop-color="#e2eeeb" stop-opacity=".67"/>
      <stop offset=".57" stop-color="#d9eaed" stop-opacity=".55"/>
      <stop offset=".6" stop-color="#d1e7ef" stop-opacity=".46"/>
      <stop offset=".64" stop-color="#cbe5f0" stop-opacity=".39"/>
      <stop offset=".67" stop-color="#c7e3f1" stop-opacity=".34"/>
      <stop offset=".72" stop-color="#c4e2f1" stop-opacity=".31"/>
      <stop offset=".81" stop-color="#c4e2f2" stop-opacity=".3"/>
      <stop offset=".81" stop-color="#c4e2f2" stop-opacity=".3"/>
      <stop offset=".88" stop-color="#c4e2f2" stop-opacity=".41"/>
      <stop offset=".95" stop-color="#c4e2f2" stop-opacity=".48"/>
      <stop offset="1" stop-color="#c4e2f2" stop-opacity=".5"/>
    </radialGradient>
    <radialGradient id="radial-gradient-2" cx="467.95" cy="813.65" fx="467.95" fy="813.65" r="657.83" gradientUnits="userSpaceOnUse">
      <stop offset=".17" stop-color="#e4ff93" stop-opacity=".5"/>
      <stop offset=".31" stop-color="#e3fda4" stop-opacity=".5"/>
      <stop offset=".55" stop-color="#e1f9d2" stop-opacity=".5"/>
      <stop offset=".73" stop-color="#e0f5ff" stop-opacity=".5"/>
    </radialGradient>
    <linearGradient id="linear-gradient-3" x1="53.29" y1="90.8" x2="888.53" y2="90.8" gradientTransform="translate(0 -12.87) scale(1 1.13)" gradientUnits="userSpaceOnUse">
      <stop offset=".09" stop-color="#ebc425"/>
      <stop offset=".5" stop-color="#fffd93"/>
      <stop offset=".57" stop-color="#fdf88a"/>
      <stop offset=".67" stop-color="#f9ec73"/>
      <stop offset=".81" stop-color="#f2d84d"/>
      <stop offset=".93" stop-color="#ebc425"/>
    </linearGradient>
    <linearGradient id="linear-gradient-4" x1="470.91" y1="169.3" x2="470.91" y2="12.3" gradientTransform="translate(0 -12.87) scale(1 1.13)" gradientUnits="userSpaceOnUse">
      <stop offset=".06" stop-color="#ebc425" stop-opacity="0"/>
      <stop offset=".18" stop-color="#d9b522" stop-opacity=".5"/>
      <stop offset=".5" stop-color="#ebc425" stop-opacity="0"/>
      <stop offset=".52" stop-color="#ebc425" stop-opacity=".04"/>
      <stop offset=".56" stop-color="#ebc425" stop-opacity=".14"/>
      <stop offset=".6" stop-color="#ebc425" stop-opacity=".3"/>
      <stop offset=".66" stop-color="#ebc425" stop-opacity=".52"/>
      <stop offset=".71" stop-color="#ebc425" stop-opacity=".81"/>
      <stop offset=".75" stop-color="#ebc425"/>
      <stop offset=".84" stop-color="#ebc425" stop-opacity=".75"/>
      <stop offset=".93" stop-color="#ebc425" stop-opacity=".5"/>
    </linearGradient>
    <radialGradient id="New_swatch_7" data-name="New swatch 7" cx="-4816.36" cy="-4580.42" fx="-4816.36" fy="-4580.42" r="199.56" gradientTransform="translate(528.96 7761.1) rotate(45)" gradientUnits="userSpaceOnUse">
      <stop offset="0" stop-color="#d9b08b"/>
      <stop offset=".26" stop-color="#d1aa87"/>
      <stop offset=".65" stop-color="#bd9c7d"/>
      <stop offset="1" stop-color="#a68c71"/>
    </radialGradient>
    <radialGradient id="New_swatch_6" data-name="New swatch 6" cx="-5293.17" cy="-6363.56" fx="-5293.17" fy="-6363.56" r="86.06" gradientTransform="translate(734.09 -5173.56) rotate(-136.86) scale(.75 .72)" gradientUnits="userSpaceOnUse">
      <stop offset="0" stop-color="#ffe351"/>
      <stop offset="1" stop-color="#ffbc00"/>
    </radialGradient>
    <radialGradient id="New_swatch_6-2" data-name="New swatch 6" cx="-4311.86" cy="-6046.1" fx="-4311.86" fy="-6046.1" r="86.06" gradientTransform="translate(261.7 -4634.79) rotate(-146.7) scale(.75 .72)" xlink:href="#New_swatch_6"/>
    <radialGradient id="New_swatch_6-3" data-name="New swatch 6" cx="-4260.98" cy="-5978.09" fx="-4260.98" fy="-5978.09" r="86.06" gradientTransform="translate(268.73 -4508.67) rotate(-146.7) scale(.75 .72)" xlink:href="#New_swatch_6"/>
    <radialGradient id="New_swatch_6-4" data-name="New swatch 6" cx="-6674.57" cy="-6471.84" fx="-6674.57" fy="-6471.84" r="86.06" gradientTransform="translate(1772.85 -5779.97) rotate(-122.51) scale(.75 .72)" xlink:href="#New_swatch_6"/>
    <radialGradient id="New_swatch_6-5" data-name="New swatch 6" cx="-10968.3" cy="-5064.27" fx="-10968.3" fy="-5064.27" r="86.06" gradientTransform="translate(5964.78 -6409.25) rotate(-77.77) scale(.75 .72)" xlink:href="#New_swatch_6"/>
    <radialGradient id="New_swatch_6-6" data-name="New swatch 6" cx="-4390.42" cy="-5934.39" fx="-4390.42" fy="-5934.39" r="86.06" gradientTransform="translate(70.89 -4565.31) rotate(-146.7) scale(.75 .72)" xlink:href="#New_swatch_6"/>
    <radialGradient id="New_swatch_6-7" data-name="New swatch 6" cx="-5668.34" cy="5417.21" fx="-5668.34" fy="5417.21" r="86.06" gradientTransform="translate(5322.71 3898.41) rotate(74.48) scale(.75 .72)" xlink:href="#New_swatch_6"/>
    <radialGradient id="New_swatch_6-8" data-name="New swatch 6" cx="-7781.52" cy="5636.37" fx="-7781.52" fy="5636.37" r="86.06" gradientTransform="translate(7273.65 3054.24) rotate(53.41) scale(.75 .72)" xlink:href="#New_swatch_6"/>
    <radialGradient id="New_swatch_6-9" data-name="New swatch 6" cx="-10228.05" cy="4623.64" fx="-10228.05" fy="4623.64" r="86.06" gradientTransform="translate(8811.02 1764.37) rotate(29.22) scale(.75 .72)" xlink:href="#New_swatch_6"/>
    <linearGradient id="linear-gradient-5" x1="-4705.13" y1="-4798.83" x2="-4621.41" y2="-4697.43" gradientTransform="translate(528.96 7761.1) rotate(45)" gradientUnits="userSpaceOnUse">
      <stop offset="0" stop-color="#c1eb83"/>
      <stop offset="1" stop-color="#87b34f"/>
    </linearGradient>
  </defs>
  <g id="Layer_1-2" data-name="Layer 1">
    <g id="glassGroup">
      <path id="glassOpening" class="cls-1" d="M135.47,249.52c-49.94-8.15-56.58-50.1-29.57-89.14-21.03-23.6-14.04-55.28-15.77-84.07-1.43-15.67,5.71-26.72,19.19-31.82C181.89,16.12,261.09,12.43,338.1,10.46c151.64,1.69,305.99-12.25,455.13,21.48,12.81,3.2,25.27,8.6,37.17,14.44,11,5.4,16.59,14.94,15.69,28.01-1.85,29.67,5.96,61.83-16.08,86.31,21.79,26.44,24.91,75.16-14.12,86.47q-15.05,5.15-15.06,21.1c0,3.59,.3,7.2-.05,10.76-6.72,53.41,41.33,70.64,78.37,94.52,37.84,24.06,55.75,58.81,55.68,103.47-.14,87.39,.58,903.07-.86,962.06-1.26,51.56-26.71,89.22-71.54,114.51-196.7,87.42-523.53,76.69-730.65,24.34-63.25-16.69-125.76-61.17-129.19-131.63-3.44-253.59,.3-707.4-1.59-961.05,.52-85.5,44.01-104.16,107.79-144.41,33.18-21.48,26.04-56.89,26.68-91.32Z"/>
      <path id="glassHighlight" class="cls-3" d="M135.47,249.52c-49.94-8.15-56.58-50.1-29.57-89.14-21.03-23.6-14.04-55.28-15.77-84.07-1.43-15.67,5.71-26.72,19.19-31.82C181.89,16.12,261.09,12.43,338.1,10.46c151.64,1.69,305.99-12.25,455.13,21.48,12.81,3.2,25.27,8.6,37.17,14.44,11,5.4,16.59,14.94,15.69,28.01-1.85,29.67,5.96,61.83-16.08,86.31,21.79,26.44,24.91,75.16-14.12,86.47q-15.05,5.15-15.06,21.1c0,3.59,.3,7.2-.05,10.76-6.72,53.41,41.33,70.64,78.37,94.52,37.84,24.06,55.75,58.81,55.68,103.47-.14,87.39,.58,903.07-.86,962.06-1.26,51.56-26.71,89.22-71.54,114.51-196.7,87.42-523.53,76.69-730.65,24.34-63.25-16.69-125.76-61.17-129.19-131.63-3.44-253.59,.3-707.4-1.59-961.05,.52-85.5,44.01-104.16,107.79-144.41,33.18-21.48,26.04-56.89,26.68-91.32Z"/>
      <path id="glassMain" class="cls-2" d="M135.47,249.52c-49.94-8.15-56.58-50.1-29.57-89.14-21.03-23.6-14.04-55.28-15.77-84.07-1.43-15.67,5.71-26.72,19.19-31.82C181.89,16.12,261.09,12.43,338.1,10.46c151.64,1.69,305.99-12.25,455.13,21.48,12.81,3.2,25.27,8.6,37.17,14.44,11,5.4,16.59,14.94,15.69,28.01-1.85,29.67,5.96,61.83-16.08,86.31,21.79,26.44,24.91,75.16-14.12,86.47q-15.05,5.15-15.06,21.1c0,3.59,.3,7.2-.05,10.76-6.72,53.41,41.33,70.64,78.37,94.52,37.84,24.06,55.75,58.81,55.68,103.47-.14,87.39,.58,903.07-.86,962.06-1.26,51.56-26.71,89.22-71.54,114.51-196.7,87.42-523.53,76.69-730.65,24.34-63.25-16.69-125.76-61.17-129.19-131.63-3.44-253.59,.3-707.4-1.59-961.05,.52-85.5,44.01-104.16,107.79-144.41,33.18-21.48,26.04-56.89,26.68-91.32Z"/>
      <path id="glassContour" class="cls-7" d="M934.83,477.01c.07-44.65-17.84-79.41-55.68-103.47-37.05-23.88-85.1-41.12-78.37-94.52,.35-3.55,.05-7.17,.05-10.76q0-15.95,15.06-21.1c39.03-11.31,35.9-60.02,14.12-86.47,22.03-24.48,14.23-56.64,16.08-86.31,.91-13.07-4.68-22.6-15.69-28.01-11.9-5.84-24.36-11.25-37.17-14.44C644.09-1.79,489.74,12.15,338.1,10.46c-77.01,1.97-156.21,5.66-228.78,34.03-13.48,5.1-20.62,16.15-19.19,31.82,1.72,28.79-5.26,60.48,15.77,84.07-27.01,39.04-20.37,80.99,29.57,89.14-.64,34.43,6.5,69.84-26.68,91.32C45.01,381.08,1.52,399.74,1,485.24c1.89,253.66-1.84,707.46,1.59,961.05,3.44,70.46,65.95,114.94,129.19,131.63,207.12,52.35,533.95,63.08,730.65-24.34,44.83-25.3,70.28-62.96,71.54-114.51,1.45-58.99,.72-874.66,.86-962.06Zm-33.85,961.25c-.93,38.05-17.92,65.35-53.43,85.82-46.42,20.43-102.76,36.07-167.48,46.47-60.86,9.78-127.66,14.74-198.55,14.74-118.07,0-242.52-14.33-341.46-39.32-48.63-12.88-101.47-46.08-104.47-100.76-1.91-141.58-1.58-385.72-1.26-525.13,.25-109.74,.51-323.21-.32-434.87,.42-59.51,22.5-73.17,75.76-106.11,5.35-3.31,10.89-6.74,16.64-10.37l.32-.21c19.49-12.62,32.29-30.35,38.03-52.71,4.4-17.12,4.1-33.89,3.8-50.11-.1-5.45-.19-10.59-.1-15.58l.53-28.58-28.21-4.61c-8.96-1.46-15.25-4.54-16.81-8.22-2.09-4.92-.14-16.27,9.06-29.57l14.77-21.35-17.27-19.38c-7.17-8.05-7.39-20.79-7.16-40.92,.09-7.39,.17-15.04-.29-22.96,65.61-25.21,139.26-29.12,215.26-31.08,8.93,.1,18.05,.14,27.86,.14,28.34,0,57.13-.41,84.97-.81,27.69-.39,56.31-.8,84.34-.8,75.35,0,163.97,2.62,250.05,22.04,9.68,2.46,19.48,6.76,27.45,10.59-.38,7.73-.25,15.16-.13,22.37,.35,20.94,.18,33.19-7.41,41.63l-19.01,21.12,18.07,21.93c6.66,8.08,10.09,21.07,7.65,28.96-.66,2.15-1.4,3.64-5.48,4.83l-.76,.22-.75,.25c-10.48,3.59-21.31,7.29-29.34,18.55-8.02,11.23-8.02,22.68-8.03,33.75,0,1.43,.03,2.87,.07,4.3,.03,1.06,.07,2.49,.04,3.14-3.51,29.45,4.55,55.27,23.96,76.74,15,16.59,34.69,28.16,52.07,38.37,6.13,3.6,11.92,7,17.3,10.48l.17,.11c27.61,17.56,40.44,41.57,40.39,75.57-.04,22.45-.02,180.2,0,253.3,.08,211.15,.2,664.56-.86,708Z"/>
    </g>
    
   
  </g>
</svg>