<?xml version="1.0" encoding="utf-8"?>
<!-- Generator: Adobe Illustrator 27.0.0, SVG Export Plug-In . SVG Version: 6.00 Build 0)  -->
<svg version="1.1" id="Layer_2_00000119802992080560727820000018428078543919611300_"
	 xmlns="http://www.w3.org/2000/svg" xmlns:xlink="http://www.w3.org/1999/xlink" x="0px" y="0px" viewBox="0 0 537.8 572.2"
	 style="enable-background:new 0 0 537.8 572.2;" xml:space="preserve">
<style type="text/css">
	.st0{fill:url(#SVGID_1_);}
	.st1{fill:url(#SVGID_00000174590457989580092920000004146211254380871089_);stroke:#FFFFFF;stroke-miterlimit:10;}
	.st2{fill:#FF8500;}
	.st3{fill:#FFE351;}
	.st4{fill:url(#SVGID_00000168094604442387291850000001339253423747656321_);stroke:#FFFFFF;stroke-miterlimit:10;}
	.st5{fill:url(#SVGID_00000147181984525871554490000016131031067840602544_);stroke:#FFFFFF;stroke-miterlimit:10;}
	.st6{fill:url(#SVGID_00000183927229350497120950000010690447083484642233_);stroke:#FFFFFF;stroke-miterlimit:10;}
	.st7{fill:url(#SVGID_00000106106481334012626540000014822839817499574919_);stroke:#FFFFFF;stroke-miterlimit:10;}
	.st8{fill:url(#SVGID_00000173144779168606378500000008568721301797304985_);stroke:#FFFFFF;stroke-miterlimit:10;}
	.st9{fill:url(#SVGID_00000084497408346319056520000009445774769567474578_);stroke:#FFFFFF;stroke-miterlimit:10;}
	.st10{fill:url(#SVGID_00000070104975223631625450000003194556047296215737_);stroke:#FFFFFF;stroke-miterlimit:10;}
	.st11{fill:url(#SVGID_00000152253015800551128760000007064672000840980628_);stroke:#FFFFFF;stroke-miterlimit:10;}
	.st12{fill:url(#SVGID_00000078763260529178993740000007258099411595037828_);stroke:#FFFFFF;stroke-miterlimit:10;}
</style>
<g id="Layer_1-2">
	<g id="plantGroup">
		
			<radialGradient id="SVGID_1_" cx="-5348.0703" cy="5530.2554" r="199.5656" gradientTransform="matrix(0.7071 0.7071 0.7071 -0.7071 65.499 8111.9941)" gradientUnits="userSpaceOnUse">
			<stop  offset="0" style="stop-color:#D9B08B"/>
			<stop  offset="0.26" style="stop-color:#D1AA87"/>
			<stop  offset="0.65" style="stop-color:#BD9C7D"/>
			<stop  offset="1" style="stop-color:#A68C71"/>
		</radialGradient>
		<path class="st0" d="M414.8,383.1c-26.4-8.6-53.2-15.8-80.1-22.6c-35.2-8.9-71.4-15.2-107.8-13.9c13-9.7,26.4-19.1,43.7-31
			c15-10.2,30.3-20,46.6-28.2c7.8-3.7,6.8-3.1,10-4.4c2.4-0.9,5-1.3,6.9-3.1c10.7-7.5,2.2-25.1-10.5-21.6
			c-22.4,7.7-42.4,20.7-61.9,33.7c-3.5,2.3-6.9,4.7-10.4,7.1c4.5-14.8,7.9-29.9,11.1-44.9c5.5-25.5,9.6-51.3,9.6-77.4
			c0-3.8-0.1-7.7-0.5-11.5c0.1-1.4,0.1-2.9-0.3-4.5c-1.2-10.4-16-14.6-21.9-5.7c-3.4,3.9-2.4,9-2.1,13.8c0.3,6.5,0.1,13-0.2,19.5
			c-1.2,27.7-5.9,48-13,79.6c-3.6,15.6-8,31-14,45.9c-0.6,1.4-1.4,3.3-1.9,4.3c-1,2.2-2.2,4.5-3.2,6.9c-7,5.2-13.9,10.4-20.7,15.7
			C125.1,394.5,61.8,457.5,14.8,531.9c-3.6,5.7-7.1,11.5-10.5,17.3c-1.6,3-4,5.7-4.1,9.2c-1.2,6,3.2,11.9,9,13.4
			c13.3,3.2,16.9-13.1,23-21.3c8.7-14.1,17.8-28,27.8-41.3c28.9-40,82.8-96,130.6-134.1c0.3-0.1,0.6-0.1,0.9-0.2
			c34.9-6.8,76.6-4.6,115.6,4.3c24.2,5.4,48.1,11.8,72,18.6c7.7,2.2,15.3,4.5,23,6.9c3.7,0.9,7.4,3.2,11.3,2.3
			C426.4,405.9,427.6,386.4,414.8,383.1L414.8,383.1z"/>
		<g>
			
				<radialGradient id="SVGID_00000035521090204048511760000002577166979195643569_" cx="-5494.7827" cy="6225.8809" r="86.06" gradientTransform="matrix(-0.5473 -0.5128 -0.4923 0.5254 388.1738 -5901.335)" gradientUnits="userSpaceOnUse">
				<stop  offset="0" style="stop-color:#FFE351"/>
				<stop  offset="1" style="stop-color:#FFBC00"/>
			</radialGradient>
			<path style="fill:url(#SVGID_00000035521090204048511760000002577166979195643569_);stroke:#FFFFFF;stroke-miterlimit:10;" d="
				M404.1,227.7c9.1-9.1,11.3-21.2,3.4-29.9c-5.7-6.3-12.8-10.1-27.9-4.8c-7.2,2.5-15.1,9.7-16.9,7.9c-1.7-1.7,3.6-7.2,4.8-15.3
				c1.6-11.3-1.4-21-10.1-29.7c-9.1-9.1-19.2-12-30-5.4c-10.8,6.6-13.9,18.9-3.6,32.9c3.4,4.6,12.9,11.8,10.4,14.4
				c-3.3,3.5-9.5-2.4-14-3.6c-15.4-4.1-19.8,0.2-23.9,5.5c-6.7,8.7-4.8,18.6,4,27.5s26.8,0.9,28.1,3.1c1.9,3.3-5.4,20,4.4,29.1
				c9,8.3,18,10.6,26.7,3.3c18.4-15.5-1-33.3,2.6-36.9C364.9,223,390,241.8,404.1,227.7L404.1,227.7z"/>
			
				<ellipse transform="matrix(0.6136 -0.7896 0.7896 0.6136 -30.7604 353.6135)" class="st2" cx="345.9" cy="208.2" rx="3.8" ry="1.7"/>
			
				<ellipse transform="matrix(0.7995 -0.6007 0.6007 0.7995 -58.2146 257.1612)" class="st2" cx="356.1" cy="215.8" rx="3.8" ry="1.7"/>
			<path class="st3" d="M346.3,182.1c-2.9-9.1-6.6-16.3-5.7-16.6s5.5,6.3,8.4,15.4s2.9,17.1,2,17.4S349.2,191.1,346.3,182.1
				L346.3,182.1z"/>
			<path class="st3" d="M347.3,240.6c0-9.5-1.7-17.9-0.8-17.9s3.7,8,3.7,17.5s-0.7,17.2-1.6,17.2S347.3,250.1,347.3,240.6
				L347.3,240.6z"/>
			<path class="st3" d="M385.7,210.3c9.5,0.7,13.5,3.1,13.4,4s-3.3-1-12.8-1.6c-9.5-0.7-21.6,0.2-21.5-0.7S376.2,209.6,385.7,210.3
				L385.7,210.3z"/>
			<path class="st3" d="M325.8,208.8c7.7,0.5,13.9,3,13.9,3.9s-6.3-0.4-14-1c-7.7-0.5-14.1-0.1-14-1
				C311.7,209.9,318,208.2,325.8,208.8z"/>
		</g>
		<g>
			
				<radialGradient id="SVGID_00000026847630699473860500000015486472508204298936_" cx="-4620.2969" cy="5885.686" r="86.06" gradientTransform="matrix(-0.6269 -0.4118 -0.3953 0.6018 -162.8547 -5361.9731)" gradientUnits="userSpaceOnUse">
				<stop  offset="0" style="stop-color:#FFE351"/>
				<stop  offset="1" style="stop-color:#FFBC00"/>
			</radialGradient>
			<path style="fill:url(#SVGID_00000026847630699473860500000015486472508204298936_);stroke:#FFFFFF;stroke-miterlimit:10;" d="
				M482.5,106.6c7.4-10.6,7.5-22.8-1.7-30c-6.7-5.2-14.3-7.8-28.3,0c-6.6,3.7-13.2,12.1-15.3,10.7s2.3-7.8,2.1-15.9
				c-0.4-11.4-5-20.4-15-27.5c-10.5-7.4-21-8.5-30.5-0.2c-9.5,8.3-10.4,21,2,33c4.1,4,14.7,9.4,12.7,12.4c-2.6,4-9.8-0.7-14.4-1.1
				c-15.9-1.4-19.5,3.6-22.6,9.5c-5.1,9.7-1.5,19.2,8.7,26.4c10.5,7.4,26.5-3.7,28.2-1.8c2.5,2.9-1.9,20.6,9.3,27.9
				c10.2,6.6,19.6,7.4,26.9-1.3c15.4-18.4-6.7-32.6-3.8-36.8C443,108.7,471,122.9,482.5,106.6L482.5,106.6z"/>
			
				<ellipse transform="matrix(0.4696 -0.8829 0.8829 0.4696 137.7623 424.1183)" class="st2" cx="421.9" cy="97.4" rx="3.8" ry="1.7"/>
			
				<ellipse transform="matrix(0.6852 -0.7284 0.7284 0.6852 61.1321 347.9867)" class="st2" cx="433.1" cy="103.3" rx="3.8" ry="1.7"/>
			<path class="st3" d="M417.8,71.6c-4.4-8.4-9.2-15-8.5-15.4s6.5,5.3,10.9,13.7s5.8,16.4,5,16.8S422.1,80,417.8,71.6L417.8,71.6z"
				/>
			<path class="st3" d="M428.7,129.1c-1.6-9.4-4.7-17.3-3.8-17.5s5,7.3,6.6,16.7c1.6,9.4,2.2,17.1,1.3,17.2S430.4,138.5,428.7,129.1
				L428.7,129.1z"/>
			<path class="st3" d="M461.4,92.6c9.5-1,13.8,0.8,13.9,1.7s-3.5-0.4-12.9,0.6c-9.5,1-21.2,3.8-21.3,2.9S451.9,93.6,461.4,92.6
				L461.4,92.6z"/>
			<path class="st3" d="M402.1,101.4c7.7-0.8,14.2,0.6,14.3,1.5s-6.2,0.7-14,1.5s-13.9,2.3-14,1.4S394.4,102.2,402.1,101.4
				L402.1,101.4z"/>
		</g>
		<g>
			
				<radialGradient id="SVGID_00000039838257784769664530000004273846071338182296_" cx="-4569.417" cy="5817.6758" r="86.06" gradientTransform="matrix(-0.6269 -0.4118 -0.3953 0.6018 -155.8247 -5235.853)" gradientUnits="userSpaceOnUse">
				<stop  offset="0" style="stop-color:#FFE351"/>
				<stop  offset="1" style="stop-color:#FFBC00"/>
			</radialGradient>
			<path style="fill:url(#SVGID_00000039838257784769664530000004273846071338182296_);stroke:#FFFFFF;stroke-miterlimit:10;" d="
				M484.3,170.7c7.4-10.6,7.5-22.8-1.7-30c-6.7-5.2-14.3-7.8-28.3,0c-6.6,3.7-13.2,12.1-15.3,10.7s2.3-7.8,2.1-15.9
				c-0.4-11.4-5-20.4-15-27.5c-10.5-7.4-21-8.5-30.5-0.2c-9.5,8.3-10.4,21,2,33c4.1,4,14.7,9.4,12.7,12.4c-2.6,4-9.8-0.7-14.4-1.1
				c-15.9-1.4-19.5,3.6-22.6,9.5c-5.1,9.7-1.5,19.2,8.7,26.4c10.5,7.4,26.5-3.7,28.2-1.8c2.5,2.9-1.9,20.6,9.3,27.9
				c10.2,6.6,19.6,7.4,26.9-1.3c15.4-18.4-6.7-32.6-3.8-36.8C444.9,172.8,472.8,187,484.3,170.7L484.3,170.7z"/>
			
				<ellipse transform="matrix(0.4696 -0.8829 0.8829 0.4696 82.1442 459.7305)" class="st2" cx="423.7" cy="161.5" rx="3.8" ry="1.7"/>
			
				<ellipse transform="matrix(0.6852 -0.7284 0.7284 0.6852 15.0251 369.4929)" class="st2" cx="434.9" cy="167.4" rx="3.8" ry="1.7"/>
			<path class="st3" d="M419.6,135.7c-4.4-8.4-9.2-15-8.5-15.4s6.5,5.3,10.9,13.7s5.8,16.4,5,16.8S424,144.1,419.6,135.7
				L419.6,135.7z"/>
			<path class="st3" d="M430.6,193.2c-1.6-9.4-4.7-17.3-3.8-17.5s5,7.3,6.6,16.7c1.6,9.4,2.2,17.1,1.3,17.2S432.2,202.6,430.6,193.2
				L430.6,193.2z"/>
			<path class="st3" d="M463.2,156.7c9.5-1,13.8,0.8,13.9,1.7s-3.5-0.4-12.9,0.6c-9.5,1-21.2,3.8-21.3,2.9S453.8,157.7,463.2,156.7
				L463.2,156.7z"/>
			<path class="st3" d="M403.9,165.5c7.7-0.8,14.2,0.6,14.3,1.5s-6.2,0.7-14,1.5s-13.9,2.3-14,1.4
				C390.3,169,396.2,166.3,403.9,165.5L403.9,165.5z"/>
		</g>
		<g>
			
				<radialGradient id="SVGID_00000138547714396296474750000013878182395387363974_" cx="-6730.7266" cy="6400.4907" r="86.06" gradientTransform="matrix(-0.4031 -0.6325 -0.6072 0.387 1539.0945 -6484.5913)" gradientUnits="userSpaceOnUse">
				<stop  offset="0" style="stop-color:#FFE351"/>
				<stop  offset="1" style="stop-color:#FFBC00"/>
			</radialGradient>
			<path style="fill:url(#SVGID_00000138547714396296474750000013878182395387363974_);stroke:#FFFFFF;stroke-miterlimit:10;" d="
				M431.2,312.1c11.1-6.6,16.2-17.8,10.7-28.1c-3.9-7.5-9.8-13-25.9-11.6c-7.6,0.7-17,5.7-18.3,3.5s5.3-6.1,8.4-13.7
				c4.3-10.5,3.8-20.7-2.4-31.2c-6.6-11.1-15.7-16.4-27.7-12.7c-12.1,3.7-18.1,14.9-11.7,30.9c2.1,5.3,9.6,14.6,6.5,16.5
				c-4,2.6-8.6-4.7-12.7-7c-13.9-7.8-19.2-4.7-24.5-0.5c-8.6,6.7-9.2,16.9-2.9,27.6c6.6,11.1,25.7,7.5,26.5,10
				c1.1,3.7-10.2,18-3,29.2c6.6,10.2,14.9,14.7,25,9.8c21.6-10.5,7.2-32.5,11.6-35.1C394.4,297.9,414.1,322.3,431.2,312.1
				L431.2,312.1z"/>
			<path class="st3" d="M386.6,253.7c-0.5-9.5-2.3-17.4-1.4-17.5s3.8,7.5,4.3,17c0.5,9.5-1.5,17.3-2.4,17.4S387.1,263.1,386.6,253.7
				L386.6,253.7z"/>
			<path class="st3" d="M373,310.6c2.3-9.2,2.8-17.7,3.7-17.5s1.6,8.7-0.8,17.9s-5,16.5-5.8,16.3S370.7,319.8,373,310.6L373,310.6z"
				/>
			<path class="st3" d="M417.8,290.7c9,3,12.3,6.4,12,7.2s-3-1.8-12-4.7s-20.9-5.2-20.6-6S408.7,287.8,417.8,290.7z"/>
			<path class="st3" d="M360.1,274.4c7.4,2.4,12.7,6.4,12.5,7.3s-6-2-13.3-4.4s-13.6-3.6-13.3-4.4C346.2,272,352.7,272,360.1,274.4z
				"/>
		</g>
		<g>
			
				<radialGradient id="SVGID_00000048468512021550544340000010143533580973654970_" cx="-10734.5449" cy="5396.4165" r="86.06" gradientTransform="matrix(0.1589 -0.733 -0.7037 -0.1525 5993.5615 -6883.9658)" gradientUnits="userSpaceOnUse">
				<stop  offset="0" style="stop-color:#FFE351"/>
				<stop  offset="1" style="stop-color:#FFBC00"/>
			</radialGradient>
			<path style="fill:url(#SVGID_00000048468512021550544340000010143533580973654970_);stroke:#FFFFFF;stroke-miterlimit:10;" d="
				M488.9,272.6c12.5,3.1,24-1.2,27.4-12.4c2.5-8.1,2.2-16.2-10.2-26.4c-5.8-4.9-16.1-8-15.5-10.4s8.1-0.6,15.6-3.8
				c10.5-4.4,17.3-12,20.3-23.9c3.1-12.5,0.4-22.7-10.8-28.5c-11.2-5.8-23.4-2.2-30.1,13.8c-2.2,5.3-3.5,17.1-7,16.3
				c-4.7-1-2.8-9.4-4.1-13.9c-4.4-15.3-10.3-16.9-17-17.7c-10.9-1.3-18.5,5.5-21.5,17.6c-3.1,12.5,13,23.4,11.8,25.7
				c-1.8,3.3-20,5.6-22.7,18.7c-2.5,11.9,0.2,20.9,10.9,24.6c22.7,7.8,28-18,33-16.7C472.8,236.6,469.6,267.8,488.9,272.6
				L488.9,272.6z"/>
			<path class="st3" d="M498.3,199.6c6.3-7.1,10.6-14,11.3-13.4s-2.6,8-8.9,15.1c-6.3,7.1-13.2,11.3-13.9,10.7
				S492,206.7,498.3,199.6z"/>
			<path class="st3" d="M448.6,230.6c8.2-4.9,14.5-10.6,15-9.8s-5,7.3-13.2,12.2c-8.2,4.9-15.1,8.2-15.6,7.5
				S440.5,235.4,448.6,230.6z"/>
			<path class="st3" d="M494.4,247.9c4.3,8.5,4.2,13.2,3.5,13.6s-0.9-3.4-5.2-11.8c-4.3-8.5-11.2-18.4-10.4-18.8
				S490.1,239.4,494.4,247.9z"/>
			<path class="st3" d="M464.9,195.7c3.5,6.9,4.5,13.5,3.7,13.9s-2.8-5.6-6.4-12.5c-3.5-6.9-7.2-12.1-6.4-12.5
				C456.7,184.2,461.4,188.8,464.9,195.7z"/>
		</g>
		<g>
			
				<radialGradient id="SVGID_00000094605155209859290500000013605830279285267894_" cx="-4698.8569" cy="5773.9761" r="86.06" gradientTransform="matrix(-0.6269 -0.4118 -0.3953 0.6018 -353.6647 -5292.4932)" gradientUnits="userSpaceOnUse">
				<stop  offset="0" style="stop-color:#FFE351"/>
				<stop  offset="1" style="stop-color:#FFBC00"/>
			</radialGradient>
			<path style="fill:url(#SVGID_00000094605155209859290500000013605830279285267894_);stroke:#FFFFFF;stroke-miterlimit:10;" d="
				M385.4,141.4c7.4-10.6,7.5-22.8-1.7-30c-6.7-5.2-14.3-7.8-28.3,0c-6.6,3.7-13.2,12.1-15.3,10.7c-2-1.4,2.3-7.8,2.1-15.9
				c-0.4-11.4-5-20.4-15-27.5c-10.5-7.4-21-8.5-30.5-0.2c-9.5,8.3-10.4,21,2,33c4.1,4,14.7,9.4,12.7,12.4c-2.6,4-9.8-0.7-14.4-1.1
				c-15.9-1.4-19.5,3.6-22.6,9.5c-5.1,9.7-1.5,19.2,8.7,26.4c10.5,7.4,26.5-3.7,28.2-1.8c2.5,2.9-1.9,20.6,9.3,27.9
				c10.2,6.6,19.6,7.4,26.9-1.3c15.4-18.4-6.7-32.6-3.8-36.8C346,143.5,373.9,157.7,385.4,141.4L385.4,141.4z"/>
			<path class="st3" d="M320.7,106.4c-4.4-8.4-9.2-15-8.5-15.4s6.5,5.3,10.9,13.7s5.8,16.4,5,16.8S325.1,114.8,320.7,106.4
				L320.7,106.4z"/>
			<path class="st3" d="M331.7,163.9c-1.6-9.4-4.7-17.3-3.8-17.5s5,7.3,6.6,16.7c1.6,9.4,2.2,17.1,1.3,17.2S333.3,173.3,331.7,163.9
				L331.7,163.9z"/>
			<path class="st3" d="M364.3,127.4c9.5-1,13.8,0.8,13.9,1.7s-3.5-0.4-12.9,0.6c-9.5,1-21.2,3.8-21.3,2.9S354.9,128.4,364.3,127.4
				L364.3,127.4z"/>
			<path class="st3" d="M305.1,136.2c7.7-0.8,14.2,0.6,14.3,1.5s-6.2,0.7-14,1.5c-7.7,0.8-13.9,2.3-14,1.4
				C291.4,139.7,297.3,137,305.1,136.2L305.1,136.2z"/>
		</g>
		<g>
			
				<radialGradient id="SVGID_00000017513182355426330110000000602978610493882263_" cx="-6521.0791" cy="-4475.2236" r="86.06" gradientTransform="matrix(0.2007 0.7227 0.6937 -0.1927 4672.5405 3999.4084)" gradientUnits="userSpaceOnUse">
				<stop  offset="0" style="stop-color:#FFE351"/>
				<stop  offset="1" style="stop-color:#FFBC00"/>
			</radialGradient>
			<path style="fill:url(#SVGID_00000017513182355426330110000000602978610493882263_);stroke:#FFFFFF;stroke-miterlimit:10;" d="
				M213.7,74.9c-12.5,3-20.6,12.3-18.5,23.8c1.6,8.3,5.6,15.3,21.4,18.7c7.4,1.6,18-0.4,18.5,2s-6.9,4.3-12,10.6
				c-7.2,8.8-9.7,18.7-6.8,30.6c3,12.5,10.2,20.3,22.8,20.2c12.6,0,21.7-9,20.2-26.2c-0.5-5.7-4.9-16.8-1.4-17.7
				c4.6-1.3,6.9,7,10.1,10.3c11,11.5,17,10.1,23.3,7.7c10.2-3.9,13.8-13.4,10.8-25.5c-3-12.5-22.4-14.7-22.4-17.3
				c0.1-3.8,15-14.3,11.4-27.1c-3.4-11.7-9.9-18.4-21.1-16.7c-23.8,3.7-16.4,29-21.4,30.2C244.7,99.4,233,70.2,213.7,74.9
				L213.7,74.9z"/>
			
				<ellipse transform="matrix(0.9348 -0.3553 0.3553 0.9348 -26.7808 97.8914)" class="st2" cx="253.2" cy="121.9" rx="3.8" ry="1.7"/>
			
				<ellipse transform="matrix(0.9953 -9.706179e-02 9.706179e-02 0.9953 -9.5088 24.6425)" class="st2" cx="248.5" cy="110.1" rx="3.8" ry="1.7"/>
			<path class="st3" d="M239.3,143.9c-2.3,9.2-2.9,17.3-3.8,17.1s-1.4-8.3,0.9-17.5c2.3-9.2,6.5-16.1,7.3-15.9
				S241.6,134.7,239.3,143.9L239.3,143.9z"/>
			<path class="st3" d="M268.9,93.4c-4.9,8.1-7.9,16.1-8.6,15.7s1-8.8,6-16.9s9.6-14.3,10.3-13.8S273.9,85.3,268.9,93.4L268.9,93.4z
				"/>
			<path class="st3" d="M220.3,99.4c-7.8-5.5-9.9-9.7-9.4-10.4s2.4,2.6,10.1,8c7.8,5.5,18.5,11.1,18,11.8S228.1,104.9,220.3,99.4
				L220.3,99.4z"/>
			<path class="st3" d="M270.7,131.8c-6.3-4.5-10.3-9.8-9.8-10.6s5.1,3.6,11.5,8.1c6.3,4.5,12,7.4,11.5,8.1
				C283.3,138.2,277.1,136.3,270.7,131.8L270.7,131.8z"/>
		</g>
		<g>
			
				<radialGradient id="SVGID_00000014635467971159260820000010313083853728521892_" cx="-8449.2949" cy="-4547.7539" r="86.06" gradientTransform="matrix(0.4471 0.6022 0.5781 -0.4292 6775.0566 3226.8684)" gradientUnits="userSpaceOnUse">
				<stop  offset="0" style="stop-color:#FFE351"/>
				<stop  offset="1" style="stop-color:#FFBC00"/>
			</radialGradient>
			<path style="fill:url(#SVGID_00000014635467971159260820000010313083853728521892_);stroke:#FFFFFF;stroke-miterlimit:10;" d="
				M293.3,29.6c-10.6,7.4-14.9,18.9-8.7,28.8c4.5,7.2,10.7,12.2,26.6,9.7c7.5-1.2,16.6-6.8,18-4.8c1.4,2-4.9,6.5-7.4,14.2
				c-3.6,10.8-2.3,20.9,4.6,31c7.3,10.6,16.8,15.2,28.6,10.7c11.8-4.6,17-16.2,9.5-31.7c-2.5-5.2-10.6-13.9-7.7-16
				c3.8-2.8,8.9,4,13.1,6c14.4,6.8,19.5,3.3,24.5-1.2c8.1-7.3,8-17.5,0.9-27.7c-7.3-10.6-26.2-5.6-27.1-8.1
				c-1.3-3.6,8.9-18.7,0.9-29.4c-7.3-9.7-15.9-13.7-25.7-8c-20.8,12-4.9,32.9-9.1,35.8C331,41.2,309.6,18.3,293.3,29.6L293.3,29.6z"
				/>
			<ellipse transform="matrix(0.7445 -0.6676 0.6676 0.7445 49.097 246.752)" class="st2" cx="347" cy="59.2" rx="3.8" ry="1.7"/>
			
				<ellipse transform="matrix(0.8938 -0.4484 0.4484 0.8938 13.5695 157.0162)" class="st2" cx="338.4" cy="49.9" rx="3.8" ry="1.7"/>
			<path class="st3" d="M342,84.8c1.2,9.4,3.5,17.2,2.6,17.3s-4.3-7.2-5.5-16.6c-1.2-9.4,0.2-17.4,1.1-17.5S340.8,75.3,342,84.8
				L342,84.8z"/>
			<path class="st3" d="M351.4,27c-1.7,9.3-1.5,17.9-2.4,17.7s-2.2-8.6-0.5-17.9c1.7-9.3,3.8-16.8,4.7-16.6S353.1,17.6,351.4,27z"/>
			<path class="st3" d="M308.2,50c-9.2-2.3-12.7-5.5-12.5-6.3s3.1,1.5,12.3,3.9s21.2,3.7,21,4.6S317.4,52.3,308.2,50L308.2,50z"/>
			<path class="st3" d="M366.9,62.2c-7.5-1.9-13.2-5.5-12.9-6.3s6.1,1.5,13.6,3.4s13.8,2.6,13.6,3.5C381,63.6,374.4,64.1,366.9,62.2
				L366.9,62.2z"/>
		</g>
		<g>
			
				<radialGradient id="SVGID_00000121986928475375041290000008703401024953567927_" cx="-10638.1006" cy="-3464.8818" r="86.06" gradientTransform="matrix(0.6546 0.3661 0.3515 -0.6284 8504.3467 1945.9277)" gradientUnits="userSpaceOnUse">
				<stop  offset="0" style="stop-color:#FFE351"/>
				<stop  offset="1" style="stop-color:#FFBC00"/>
			</radialGradient>
			<path style="fill:url(#SVGID_00000121986928475375041290000008703401024953567927_);stroke:#FFFFFF;stroke-miterlimit:10;" d="
				M219.2,197.3c-6.7,11.1-5.8,23.3,3.9,29.8c7,4.7,14.8,6.8,28.3-2c6.4-4.2,12.3-13,14.5-11.8s-1.8,7.9-1,16
				c1.2,11.3,6.4,20,16.9,26.3c11,6.6,21.6,7,30.4-2c8.9-9,8.9-21.7-4.4-32.8c-4.4-3.7-15.4-8.3-13.6-11.5c2.3-4.2,9.8,0,14.5,0.1
				c16,0.3,19.1-5,21.9-11.1c4.4-10,0.1-19.2-10.5-25.7c-11-6.7-26.2,5.6-28,3.8c-2.7-2.7,0.5-20.7-11.2-27.2
				c-10.7-5.9-20.1-5.9-26.7,3.2c-14.1,19.5,9,32,6.4,36.4C258.4,192.4,229.5,180.2,219.2,197.3L219.2,197.3z"/>
			
				<ellipse transform="matrix(0.4056 -0.914 0.914 0.4056 -18.2736 376.4661)" class="st2" cx="280.3" cy="202.3" rx="3.8" ry="1.7"/>
			
				<ellipse transform="matrix(0.6316 -0.7753 0.7753 0.6316 -53.9567 280.9552)" class="st2" cx="268.7" cy="197.3" rx="3.8" ry="1.7"/>
			<path class="st3" d="M286.3,227.6c5,8.1,10.3,14.3,9.5,14.7s-6.9-4.8-11.8-12.9c-5-8.1-6.9-15.9-6.1-16.4
				S281.3,219.5,286.3,227.6L286.3,227.6z"/>
			<path class="st3" d="M271.2,171c2.3,9.2,5.9,17,5,17.2s-5.5-6.9-7.8-16.2c-2.3-9.2-3.4-16.9-2.6-17.1S268.9,161.8,271.2,171
				L271.2,171z"/>
			<path class="st3" d="M241.2,209.7c-9.4,1.7-13.9,0.2-14-0.7s3.5,0.1,12.8-1.5c9.4-1.7,20.9-5.3,21-4.5S250.6,208.1,241.2,209.7
				L241.2,209.7z"/>
			<path class="st3" d="M299.8,196.8c-7.6,1.3-14.3,0.4-14.4-0.5s6.2-1.1,13.8-2.4s13.7-3.3,13.8-2.4
				C313.2,192.3,307.4,195.4,299.8,196.8L299.8,196.8z"/>
		</g>
		
			<linearGradient id="SVGID_00000099625542118727805360000003937922137933017018_" gradientUnits="userSpaceOnUse" x1="-5236.8374" y1="5748.6631" x2="-5153.1177" y2="5647.2632" gradientTransform="matrix(0.7071 0.7071 0.7071 -0.7071 65.499 8111.9941)">
			<stop  offset="0" style="stop-color:#C1EB83"/>
			<stop  offset="1" style="stop-color:#87B34F"/>
		</linearGradient>
		<path style="fill:url(#SVGID_00000099625542118727805360000003937922137933017018_);stroke:#FFFFFF;stroke-miterlimit:10;" d="
			M328.8,357.2c17,3.4,24.5-12.4,45.5-14.8c19.1-2.2,68.8-21,104.6,12.2c8.6,8,15.1,18.3,24.8,25c9.7,6.7,24.7,8.4,32.1-0.8
			c3.6,6.7,0.3,15.3-5.4,20.3c-5.7,5-13.1,7.4-20.1,10.1c-28.8,11.2-56.7,30.4-87.5,27.7c-22.3-2-41.7-15.3-60-28.2
			c-56-39.5-35.5-48.1-50.4-52.9C320.2,355,325.6,356.6,328.8,357.2L328.8,357.2z"/>
	</g>
</g>
</svg>
