<?xml version="1.0" encoding="utf-8"?>
<!-- Generator: Adobe Illustrator 27.0.0, SVG Export Plug-In . SVG Version: 6.00 Build 0)  -->
<svg version="1.1" id="Layer_1" xmlns="http://www.w3.org/2000/svg" xmlns:xlink="http://www.w3.org/1999/xlink" x="0px" y="0px"
	 viewBox="0 0 658.2 899.5" style="enable-background:new 0 0 658.2 899.5;" xml:space="preserve">
<style type="text/css">
	.st0{fill:#C09950;}
</style>
<g>
	<path class="st0" d="M265.2,898.6L265.2,898.6C265.2,898.5,265.2,898.5,265.2,898.6C265.2,898.6,265.2,898.6,265.2,898.6z"/>
	<path class="st0" d="M654.5,851.9c-3.8-4.3-6.6-9.6-6.6-15.8c0-0.9-0.8-1.8-1.3-2.6c0,0,0,0,0,0c-6.1-9.8-17.3-15.7-25.5-23.9
		c0,3.3,0,6.6,0,9.9c0,0,0,0,0,0c-0.1-12.6-0.1-25.3-1-37.9c0,0,0,0,0,0c0.2-2,0.4-4,0.6-6c-1.2,0-2.5,0-3.7-0.1c0,0,0,0,0,0l0,0
		c0,0,0,0,0,0c1.2,0,2.5,0,3.7,0.1c0-3.3,0.1-6.7,0.1-10.1c0,0,0,0,0,0c0.2-5,0.5-10,0.8-15c-4.7,0-9.4,0-14.1,0c0.2,0,0.4,0,0.6,0
		c0.1-0.1,0.1-0.2,0.2-0.3c-0.1,0.1-0.1,0.2-0.2,0.3c4.5,0,9,0,13.6,0c0.1-1,0.1-2,0.2-2.9c0,0,0,0,0,0c0,0,0,0,0,0l-0.6-3.2
		c-0.1,0.1-0.1,0.2-0.2,0.3c0.1-0.4,0.1-0.7-0.1-1c-4.9-1.1-9.7-2.8-14.8-1c-0.5,1.7-1,3.4-1.6,5.1c-0.1,0.6-0.2,1.2-0.3,1.8
		c0.2,0.1,0.3,0.2,0.5,0.3c-0.2-0.1-0.3-0.2-0.5-0.3c-0.3,0.6-0.7,1.2-1,1.8c1.4-3.2,2.2-6.8,3.2-10.2c-0.1,0.5-0.2,0.9-0.3,1.4
		c5.1-1.9,9.9-0.2,14.8,1c1.2-5.1,2.4-10.2-1.1-14.9c0,0,0,0,0,0c-0.1-1.1-0.2-2.2-0.3-3.3c4.1-7.6,7.5-15.5,9.9-23.8c0,0,0,0,0,0
		c4-7.8,2.2-15.9,0.9-23.9l0,0c0.1-0.5,0.2-1.1,0.2-1.6l0,0c0.2-1.9,0.3-3.7,0.5-5.5c-5.1-0.5-5.7-2.3-3.5-6.7
		c2.7-5.5,4.4-11.4,6.6-17.1c-1.2-0.7-2-1.1-2.6-0.9c0.6-0.2,1.4,0.2,2.6,0.9h0c-2.2,5.7-3.9,11.6-6.6,17.1
		c-2.1,4.3-1.6,6.1,3.5,6.7c0.4-1,0.8-1.9,1.2-2.9c2.3-1,4.6-2.1,6.8-3.1l0.9-4c0,0,0,0,0,0c3.2-7.6,2.9-9.2-2.8-13.9c0,0,0,0,0,0
		c-0.1-1-0.2-2.1-0.3-3.1c0,0,0,0,0,0c-2-8.1-3-16.6-2.8-24.9c-0.2-0.1-0.4-0.2-0.6-0.2c0.2,0.1,0.4,0.1,0.6,0.2
		c-0.2-1.7-0.5-3.4-0.7-5.1c-1.6,1-3.3,2-4.9,3.1c0,0,0,0,0,0c1.6-1,3.3-2.1,4.9-3.1c-1.7-7.1-7.1-12.1-11.2-18c0,0.1,0,0.1,0,0.2
		c0,0,0-0.1,0-0.1c-1.8-2.3-3.7-4.6-5.5-7c-0.8,0-1.5,0.1-2.3,0.2l0,0c-3.6-3.4-5.2-0.2-6.2,1.5c-2.6-0.9-4.7-1.7-6.8-2.4
		c0,0,0,0,0,0c0,0,0,0,0,0c2.1,0.7,4.1,1.5,6.8,2.4c1-1.7,2.6-4.9,6.2-1.5c0.8,0,1.5-0.1,2.3-0.2c-4.3-6.2-7.6-12.9-11.4-19.4v0
		c-4-3.6-7.9-7.1-11.9-10.7c0.5,1.1,1,2.2,1.5,3.4c-0.5-1.1-1-2.3-1.6-3.4h0c-7.2-6.1-3.1-11-13.1-15c0,0,0,0,0,0.1l0,0
		c0,0,0,0,0,0.1c-2.7-1.7-5.4-3.3-8.1-5c0,0,0,0,0,0c0,0,0,0,0,0c0,0,0,0,0,0c-6.9-4-14.7-6.5-21.9-10l0,0l0,0
		c-7.7-5.6-15.4-11.2-23.1-16.9c0,0,0,0,0,0c-2.2-6.5-7.2-11.6-10-18v0.8c0-0.5-0.1-1.1-0.3-1.7c-11.4-8.6,3.8-22.5-21.7-30.1l0,0
		c0,0,0,0,0,0c25.6,7.6,10.3,21.5,21.7,30.1c1.5-15.3,0.5-30.6,0.2-46l0,0c-0.3-2.7-1.2-5.2-1.4-7.9c-1.6-1.6-2.7-3.3-2.6-5.3
		c-0.1,2,0.9,3.7,2.6,5.3c-0.6-2.7-1.1-5.4-1.7-8.1c0,0,0,0,0,0c-0.1-2-0.1-4-0.2-6c-3.9-2.8-7.8-5.7-12.3-8.9
		c4.5,3.2,8.4,6.1,12.3,8.9c4.3-11.8-0.6-35.1-4.7-47c0,1.4,0,2.9,0,4.3c0-3.8-0.3-7.5-1.2-11.2c0,0,0,0,0,0h0c0,0,0,0,0,0
		c0,0,0,0,0,0c-0.2-1-0.4-2-0.7-3.1c-1.8-0.2-2.6,1.3-2.2,4.5c0,0,0,0,0,0c-0.4-3.3,0.4-4.8,2.2-4.6c-0.1-1-0.2-1.9-0.3-2.9
		c0,0,0,0,0,0c-0.3-1-0.7-2.1-1-3.1c-0.6,0.7-1.1,1.5-1.7,2.3l0,0c0.6-0.8,1.1-1.5,1.7-2.3c-1.4-16.6-4.1-33.9-11.6-49
		c-2.8,0.8-2.7,0.7-1.1,2.7c1,4.5,4.2,12.7-0.5,15.7c0.1,2.4,0.2,4.1,0.3,5.7c0,0,0,0,0,0c-0.1-1.6-0.2-3.3-0.3-5.7
		c4.7-3,1.5-11.2,0.5-15.7c-1.6-1.9-1.7-1.8,1.1-2.6c-10.1-34.4-9.5-25.5-31.1-51v0l0,0l0,0c0,0,0,0.1,0,0.1c-2.4-2.5-4.3-5-7.7-6.4
		c0,0,0,0,0.1,0c0,0,0,0,0,0c0,0,0,0,0,0l0,0c-0.4-0.6-0.8-1.2-1.2-1.8c-1.1,0.1-2.2,0.1-3.2,0.2v0c1.1-0.1,2.2-0.1,3.2-0.2
		c-6-4.6-11.9-9.2-17.9-13.9l0,0c-5.1-3.2-10.2-6.5-15.4-9.8c0.3,0.6,0.6,1.1,0.9,1.7c-1-1.6-2.3-2.9-4.2-3.7
		c-0.3,0.8-0.7,1.6-0.8,2.5c0.1-0.9,0.5-1.7,0.8-2.5c-8.3-7-19.3-10.2-28.4-16.1c0,0,0,0,0,0l0,0c0,0,0,0,0,0
		c0.5-3.3,0.9-8.7-0.8-11.9c0.6,0.9,1,1.8,1.4,2.8c3.7-0.3,5-2.5,4.8-6c-0.5-9.1-1.3-18.1-1.3-27.2c-1.5-14.6,9.2-26.2,7.4-40.6
		c-0.9-15.5,0.8-30.6,2.1-46h0l-3.2-6.9c-0.3-1.7-4-3.6,0.2-5.1c-0.7-1.6-1.4-3.2-2.1-4.8c0,0,0,0,0,0c-0.4-1.1-0.8-2.1-1.3-3.2
		c0,0,0,0,0,0c-0.4-10.2-8.5-12-14.9-17.9l0,0c-2.3-1.6-4.6-3.3-6.8-4.9c0.3,0.5,0.5,1.1,0.8,1.6c-0.3-0.6-0.7-1.2-1-1.8
		c-9.8-5.3-3.9-7.3-7.8-10.9c0,0,0,0,0,0c-0.3-0.7-0.6-1.3-0.8-2c0,0,0,0,0,0c-1.6-7.4-7-9.8-12.5-13.6c-3.4-6.8-9.9-6-15.8-6.7
		c-0.9-0.9-1.8-1.9-2.8-2.8l0,0c0,0,0,0,0,0c0,0,0,0,0,0c-7.3-5.7-15.5-4.2-23.7-2.8c-4.1,1.8-6.5,6.3-9.7,9.3c0,0,0,0,0,0
		c-3.2,2.2-7.1,3-10.7,4.6c0,0,0,0,0,0c-0.8,1.7-1.5,3.4-2.3,5.1c0.3-0.1,0.6-0.2,0.9-0.3c-6.6,3.9-8.2,14.1-17.8,14.3
		c-6.5,4.1-10.8,12.4-16.3,18c1.1,0.5,2.2,1.1,3.3,1.8c-1.1-0.6-2.2-1.2-3.3-1.8c-2.5,4-5.9,7.4-7.3,11.9c0.6,1,1.1,2,1,2.9
		c0.1-0.9-0.4-1.9-1-2.9c-0.4,1.7-0.8,3.3-1.2,5c0,0,0,0,0,0c0,0,0,0,0,0c0,0,0,0,0,0c0.1,1.6,0.1,3.3,0.2,4.9c0,0,0,0,0,0
		c0.3,3.4,0,6.7-0.9,10c0,0,0,0,0,0c0.7,8.4,0.3,17,5.6,24.3c-0.2,0.2-0.2,0.4,0.1,0.6c1.1-0.7,2.2-1.4,3.2-2c0-2.1,0.2-4.3,0.5-6.3
		c-0.2,2.1-0.3,4.2-0.5,6.4c0,0,0,0,0,0c-1.1,0.7-2.1,1.3-3.2,2h0c2.5,15,2.4,30.2,3.7,45.3c2.5,11.1,5,22.3,6.4,33.7
		c0.7-0.5,1.5-1.4,2-1.5c-0.5,0.1-1.3,1-2,1.5h0c-0.3,3.7-1.1,7.1-0.4,10.6c-0.2-0.5-0.3-1-0.5-1.4c-1.8,7.2,1.5,10.6,7.1,5.4
		c3.9-2.9,4.5,1.5,6.6,2.6c1.3,2.7,2.7,5.3,4,8c-0.1,0.4-0.1,0.8,0.2,1.1c-0.1-0.1-0.1-0.2-0.2-0.3h0c-1.4,1.9-2.7,3.8-4.1,5.6
		c0,0,0,0,0,0c-0.9,0.1-1.9,0.2-2.8,0.4c0,0.1,0,0.2,0,0.3c0-0.1,0-0.2,0-0.3c-2.1,0.2-4.1,0.5-6.2,0.7c-3.1,10.2-6.4,10.7,6.2,10.4
		c0,1,0,2,0,2.9c0.5-0.1,0.9-0.2,1.4-0.3c-0.7,0.2-1.4,0.5-2,0.8c0.2-0.2,0.4-0.3,0.6-0.5c0-1,0-2,0-3c-12.5,0.3-9.3-0.1-6.2-10.4
		c-1.6,0.5-3.1,1-4.7,1.5c-3.9,5.5-9,9.9-14.9,13.1c-3.3,1.7-6.9,2.4-9.1,6c-1.2,1.8-2.1,1.9-3,1.4c0.8,0.6,1.8,0.5,3-1.4
		c2.3-3.6,5.9-4.3,9.1-6c5.9-3.2,11-7.7,14.9-13.1v0c-10.2,5.3-21,9.5-29.3,17.8c0.5,0.7,1.1,1.5,1.6,2.2c-0.6-0.6-1.1-1.5-1.6-2.1
		c-23.4,13.6-48.1,30.3-55,58c0,0,0,0,0,0c0,0,0,0,0,0c0,0,0,0,0,0c-6.9,7.2-9,16.3-9.9,25.9c-5.7,15.9-7.8,33-11.7,49.5
		c-1.7,8.4-2.7,17-4.1,25.5c-3.8,6.5,0.2,12.2,1.9,18.1l0,0c0,2,0,4,0,6c3.1,0.7,6.2,1.3,9.3,2c0,0,0,0,0,0c-3.1-0.7-6.2-1.3-9.3-2
		c-3.9,16.8-7.8,33.9-4.7,51.1c0.3-0.2,0.6-0.5,0.8-0.8c-3.1,5.2-8.8,9.9-10.5,15.5c-1.8,6.5-4.4,12.1-8.9,17l0,0c0,0,0,0,0,0
		c-18.6,17.4-42.9,26.3-63.8,40.1c0,0,0,0,0,0c-3.8,2-7.6,4-11.3,6c0.8,0.4,1.7,0.8,2.5,1.1c-0.8-0.4-1.7-0.7-2.5-1.1
		c-3.3,2.4-6,4.9-8.4,7.9c0.5-0.8,1.1-1.6,1.6-2.3c-23,13.8-28.4,39.9-32.7,64.3l0,0c0.1,0.3,0.2,0.7,0.3,1c-0.1-0.3-0.2-0.7-0.3-1
		c-1.7,5-3.5,10-5.2,14.9c0,0,0,0,0,0c-1.4,1.9-2.8,3.8-4.3,5.7c0.9,0,1.8,0.1,2.6,0.2c-0.9-0.1-1.8-0.1-2.6-0.2l0,0
		c-6.7,4.3-7.3,12.6-3.7,19.3c0,0,0,0,0,0c2.6,5.6,5.9,10.9,7.1,17c0,0,0,0,0,0c-4.1,8.2-2.1,16.2,1.3,24c1.5-1.3,2.8-2.4,4.2,0.2
		c3.4,6.3,7.1,12.4,10.2,18.8c-3.1-6.4-6.8-12.5-10.2-18.8c-1.4-2.6-2.8-1.5-4.2-0.2h0c3.4,12.3,8.4,25.9,19.6,33.1
		c-0.6-1.7-1.2-3.5-1.8-5.3c5.9,12.9,14.7,24.8,22.4,36.8c4.3,6.3,12.7,9.7,14,17.8c2.6,2.7,4.3,5.6,4.5,9.4c0,0,0,0,0,0
		c-0.2-3.8-1.9-6.7-4.5-9.4c-9.7,6.4-22.1,11.3-25.5,23.7c-0.7,2.4-1.9,5.1-3.8,6.4c-18.5,13.7-0.9,52.6,0.6,72.4
		c2.3,12.3,2.2,12.4,15.1,11.7c8.3,0,16.7,0,25,0c-0.6-1.1-1-2.2-1.4-3.4c0.4,1.1,0.8,2.2,1.4,3.3c9.3,0,18.7,0,28,0
		c0,0,0-0.1,0-0.1c0,0.1,0,0.1,0.1,0.2c4,0,8,0,12,0c-8.9-13.5-2.6-7.1-13.5-9.2c0,1.7-0.3,3.4,0.2,5c-0.5-1.6-0.2-3.3-0.2-5
		c10.9,2.2,4.5-4.2,13.5,9.2c3.7,0,7.3,0,11,0c0,0,0,0,0,0c3,0,6-0.1,9.1-0.1c0,0,0,0,0,0v0c2,0,4,0.1,5.9,0.1
		c-0.3-3,2.2-6.7-2.1-8.8c0-1.3,0-2.7,0.1-4c0,0,0,0,0,0c0,1.3,0,2.7-0.1,4c4.3,2.1,1.8,5.8,2.1,8.8c10.7,0,21.3,0,32,0
		c-1.3-5.2-4.8-4.4-5.4-7.2c0.6,2.8,4.1,2,5.4,7.2c6.3,0,12.6,0,18.9,0c0,0,0,0,0,0v0c12.7,0,25.4,0,38.1,0c0,0,0,0,0,0
		c4.3,0,8.7,0,13,0c-2.2-0.5-5.7-3-6-4.8c3.5-2.8-0.1-3.5-1.7-3.7c1.7,0.2,5.3,0.9,1.8,3.7c4.4,8.8,18.9,3.1,27,4.2
		c-7.6-9.7-8.9,6-22.7-9.9c0,0,0,0,0,0c13.8,15.8,15.2,0.1,22.7,9.9c1.7,0.2,3.3,0.5,5,0.7c2.7-5.8,7.7-9.8,13.5-12.2c0,0,0,0,0,0
		c-5.8,2.4-10.9,6.4-13.5,12.2c56.7,0.3,113.3-0.1,170,0v0c4,0,8,0,12,0c0,0,0,0,0,0c2,0,4,0,6,0c0,0,0,0,0,0l6,0c0-2,0.1-4.3-1-5.6
		c1.1,1.3,1.1,3.5,1,5.6c5,0,10,0,15,0c-7.3-6.2-13.5-13.4-20.3-20.1c6.8,6.6,13,13.9,20.3,20.1c2.2,0,4.3,0,6.5,0
		c-1.2-2.9-2.1-5.8-4.8-7.6c2.8,1.9,3.6,4.7,4.8,7.6c0.5,0,1,0,1.4,0c0,0,0,0,0,0c0.6,0,1.3-0.1,2-0.1c2.1-6.9,0.5-17,5.8-22
		c0,0,0,0,0,0c-5.2,5-3.7,15.2-5.7,22c6.1,0.1,12.1,0.1,18.2,0.2c0,0,0,0,0,0c6,0,12,0,17.9,0c1.3-1.8,2.2-3.7,2.9-5.8
		c-0.7,2-1.6,4-2.9,5.8c1.7,0,3.3,0,5,0c1.2-3.6,2-7.4,4.1-10.7c-1-1-1.9-2.1-3.1-2.8c0.3,0.2,0.7,0.4,1,0.7c0,0,0,0,0,0
		c0.7,0.7,1.4,1.4,2.1,2.1c-2.1,3.2-2.9,7-4.1,10.7c1.3,0,2.7,0,4,0c0,0,0,0,0,0c4.7,0,9.3,0,14,0c0.8-4.8,1.1-9.8,3.3-13.8
		c-2.2,4-2.5,9-3.3,13.8c1.3,0,2.7,0,4,0c0,0,0,0,0,0.1c5.7,0,11.3,0,17,0c0,0,0,0,0,0c2.3,0,4.7,0,7,0c0,0,0,0,0,0
		c6.3,0,12.7,0,19,0c0.5-2.7,3.1-8,1.9-10.3c1.3,2.2-1.4,7.6-1.8,10.3c2.3,0,4.6,0,7-0.1c-0.1-1.9-1.1-4.1-0.6-5.9
		c-0.5,1.9,0.5,4,0.6,5.9c11.7,0,23.4,0,35.1,0c0,0,0,0,0,0l0,0c0,0,0,0,0,0c0,0,0,0,0,0c0,0,0,0,0,0c2.6-0.1,5.2-0.2,7.8-0.3
		c2.1-7.7,5.3-15.1,8-22.6c-1.1-0.8-2.3-1.4-3.3-1.5c1.1,0,2.2,0.7,3.3,1.5h0c-2.7,7.5-5.9,14.9-8,22.6c1.7,0.1,3.4,0.2,5.1,0.3v0
		c0.6,0,1.3-0.1,1.9-0.1c0,0,0,0,0,0c5.3-1.5,4.3-6.4,4.7-10.1C656.8,877.2,661.7,862.2,654.5,851.9z M619.2,747.4
		C619.2,747.4,619.2,747.4,619.2,747.4c0.1-0.4,0.5-0.8,0.8-1.2C619.8,746.6,619.5,747,619.2,747.4z M618,747.2
		c-1.9-0.3-3.5-0.7-5.1-0.3C614.4,746.4,616,746.6,618,747.2z M5.7,645.5c0.1,0.3,0.2,0.6,0.3,0.9C5.9,646.1,5.8,645.8,5.7,645.5
		c2,0.8,3.1,1,5.3,2c-0.3-1.8-0.6-3.3-0.8-4.7c0,0,0,0,0,0c0.2,1.4,0.5,2.9,0.8,4.7C8.8,646.4,7.8,646.2,5.7,645.5z M11.9,643.1
		c3.2,0.6,6.4,1.3,9.6,2C18.3,644.4,15.1,643.8,11.9,643.1z M25.1,645.7c-0.4-0.1-0.8-0.1-1.2-0.2C24.3,645.6,24.7,645.6,25.1,645.7
		c-0.1-0.2-0.2-0.3-0.3-0.5c1.4,2.2,3,4.2,4.8,6.1C27.9,649.6,26.1,647.9,25.1,645.7z M605.3,750.1c0.6,0.3,1.1,0.4,1.7,0.5
		c-0.3,0-0.6,0-0.9,0c0,0,0,0,0,0C605.9,750.4,605.6,750.3,605.3,750.1z"/>
	<path class="st0" d="M265.2,898.5C265.2,898.5,265.2,898.5,265.2,898.5C265.2,898.5,265.2,898.5,265.2,898.5L265.2,898.5z"/>
	<polygon class="st0" points="646.7,833.4 646.7,833.4 646.7,833.4 	"/>
	<path class="st0" d="M606.2,742.6C606.2,742.6,606.2,742.6,606.2,742.6C606.2,742.6,606.2,742.6,606.2,742.6L606.2,742.6z"/>
	<path class="st0" d="M639.1,664.7c-2.3,1-4.6,2.1-6.8,3.1c-0.4,0.9-0.8,1.9-1.2,2.8h0c-0.2,1.9-0.3,3.7-0.5,5.5
		C633.4,672.3,636.3,668.5,639.1,664.7z"/>
	<path class="st0" d="M400,76.2c0.1-1.7,0.2-3.4,0.2-5.1C396,72.6,399.7,74.5,400,76.2z"/>
</g>
</svg>
