<?xml version="1.0" encoding="UTF-8"?>
<svg id="logoText" xmlns="http://www.w3.org/2000/svg" viewBox="0 0 112.71 40.31">
  <defs>
    <style>
      .cls-1 {
        fill: #3d9ee7;
        stroke-width: 0px;
      }
    </style>
  </defs>
  <g id="Layer_1" data-name="Layer 1">
    <g id="logoSvg2">
      <path class="cls-1" d="M13.79,13.76c1.09-1.32,1.69-2.98,1.69-4.77v-1.36C15.47,2.56,13.01,0,8.15,0,4.02,0,1.38,2.46,1.1,6.62c0,.74.49,1.27,1.27,1.36l1.42.08c.46.05.77-.11.95-.26.19-.16.43-.45.48-1,.2-2.4,1.71-2.91,2.94-2.91.78,0,3.16,0,3.16,3.77v1.23c0,3.01-2.57,3.64-4.73,3.64h-2.37c-.75,0-.75.89-.75,1.32v1.4c0,.33,0,1.31.79,1.31h3.9c3.23,0,4.61,1.35,4.61,4.51v1.71c0,2.46-1.18,5.09-4.51,5.09-1.55,0-2.63-.35-3.3-1.07-.7-.75-.99-1.98-.87-3.65.07-.81-.37-1.37-1.17-1.46l-1.43-.13c-.4-.05-.76.06-1.03.3-.26.23-.41.58-.4.92-.25,3.2.32,5.5,1.74,7.02,1.36,1.47,3.48,2.18,6.46,2.18,5.44,0,8.68-3.33,8.68-8.9v-2.5c0-3.33-1.03-5.57-3.14-6.85Z"/>
      <path class="cls-1" d="M39.64,26.88h0c-.2-.32-.49-.53-.83-.59-.24-.04-.63-.03-1.05.29-1.19.93-2.47,1.35-4.16,1.35-1.51,0-2.15-.69-2.15-2.32v-13.48s7.32,0,7.32,0c.76,0,1.31-.55,1.31-1.31v-1.18c0-.76-.56-1.31-1.32-1.31h-7.32s0-4.91,0-4.91c0-.76-.55-1.31-1.31-1.31h-1.62c-.76,0-1.31.55-1.31,1.31v4.91s-1.93,0-1.93,0c-.76,0-1.31.55-1.31,1.31v1.18c0,.76.55,1.31,1.31,1.31h1.93s0,13.65,0,13.65c0,4.01,2.31,6.22,6.49,6.22,2.44,0,4.48-.65,6.48-2.09.55-.48.65-1.14.26-1.76l-.79-1.27Z"/>
      <path class="cls-1" d="M64.77,8.3h-1.71c-.67,0-1.16.35-1.37.98l-4.94,15.27-5.7-15.27c-.21-.63-.7-.97-1.37-.97h-1.89c-.58,0-.87.25-1.02.47-.15.22-.29.59-.08,1.17l7.96,21.05-.24.74c-1.05,3.25-2.54,4.46-5.56,4.46h-.26c-.36,0-.79.23-.79,1.31v1.49c0,.77.52,1.31,1.4,1.31h.31c4.89,0,7.78-3.56,8.78-6.6l7.67-23.84c.15-.55,0-.91-.16-1.12-.16-.21-.47-.45-1.04-.45Z"/>
      <path class="cls-1" d="M80.82,7.85c-1.98,0-3.81.71-5.13,1.92v-.17c0-.76-.55-1.31-1.32-1.31h-1.53c-.76,0-1.31.55-1.31,1.32l.02,29.38c0,.76.55,1.31,1.32,1.31h1.53c.76,0,1.31-.55,1.31-1.32v-8.75c1.26,1.12,3,1.73,5,1.73,5.34,0,8.28-3.15,8.28-8.86v-6.31c0-5.68-2.98-8.94-8.16-8.94ZM84.82,16.53v6.71c0,3.12-1.41,4.69-4.2,4.7-1.11,0-3.8-.4-4.92-4.04v-7.73c1.03-2.97,3.21-4.32,4.82-4.32,2.85,0,4.3,1.58,4.3,4.69Z"/>
      <path class="cls-1" d="M110.95,27.39c-.16-.36-.43-.62-.77-.72-.34-.1-.71-.05-1.02.14-1.3.69-2.72,1.02-4.34,1.02-4.16,0-5-1.94-5-5.08v-3.16s7.37,0,7.37,0c2.59,0,5.52,0,5.52-4.43,0-3.52-2.1-7.28-7.98-7.27-5.6,0-9.07,3.63-9.07,9.47v5.26c0,6.2,3.09,9.34,9.17,9.33,2.39,0,4.38-.5,6.27-1.59.61-.38.79-1.03.46-1.77l-.6-1.2ZM104.73,11.78c1.56,0,4.17.44,4.17,3.38,0,.2,0,.66-1.71.66h-7.24c.27-1.59,1.25-4.03,4.79-4.03Z"/>
    </g>
  </g>
</svg>