<?xml version="1.0" encoding="UTF-8"?>
<svg id="_图层_2" data-name="图层 2" xmlns="http://www.w3.org/2000/svg" viewBox="0 0 209.54 200.32">
  <defs>
    <style>
      .cls-1 {
        font-family: WeafMono-Black, 'Weaf Mono';
        font-size: 28px;
        font-weight: 800;
      }

      .cls-1, .cls-2 {
        fill: #c5c0ad;
      }

      .cls-2 {
        stroke-width: 0px;
      }
    </style>
  </defs>
  <g id="Layer_1" data-name="Layer 1">
    <g>
      <g>
        <path class="cls-2" d="M30.42,122.44c0,8.71-5.18,10.51-8.99,10.51-1.91,0-3.34-.68-3.34-.68l-3.36-3.06-1.15,3.36h-3.27v-15.03h3.77l1,8.27c1.02,1.09,3.22,2.72,4.99,2.72,3.54,0,5.45-1.67,5.45-5.41,0-4.7-.75-5.45-7.56-10.07-3.74-2.52-7.49-4.42-7.49-12.11,0-7.22,5.22-9.98,8.97-9.98,2.52,0,3.4.97,3.4.97l2.45,2.81,1.67-3.81h2.83v10.32h-4.76v-3.51c-.95-.82-3.05-2.2-4.69-2.2-3.54,0-5.1,2.53-5.1,5.53,0,4.77,1.43,5.45,6.19,8.78,4.76,3.33,8.99,5.17,8.99,12.59"/>
        <path class="cls-2" d="M66.8,121.49c0,7.72-3.27,11.77-9.73,11.77-7.08,0-11.43-4.01-11.43-16.4v-9.6c0-9.8,2.24-16.33,11.29-16.33,7.08,0,9.39,4.49,9.39,9.53v4.43h-7.35v-2.28l2.58-2.14c.23-2.96-.95-4.76-4.63-4.76-6.12,0-6.41,5.04-6.41,14.91l.21,8.71c0,4.56,1.03,9.53,6.33,9.53s5.18-4.56,5.18-6.6l-3.28-2.14v-2.28h7.83v3.68Z"/>
        <path class="cls-2" d="M108.63,130.3v2.28h-11.39v-2.28l3.06-2.14v-21.03c0-8.64-.21-11.43-5.38-11.43-2.04,0-4.29,1.8-5.51,2.62v29.85l3.06,2.14v2.28h-11.39v-2.28l3.21-2.14v-46.89l-3.06-2.14v-2.28h8.17v18.1l3.4-3.2s1.36-.82,3.54-.82c7.21,0,9.05,4.97,9.05,13.75v23.48l3.22,2.14Z"/>
        <path class="cls-2" d="M133.18,133.26c-7.97,0-10.82-4.97-10.82-16.33v-10.34c0-9.32,2.11-15.65,10.68-15.65s10.55,6.33,10.55,15.65v10.34c0,11.37-2.45,16.33-10.41,16.33M133.18,128.62c4.83,0,5.44-3.94,5.44-9.72v-10.34c0-7.83-.13-12.65-5.58-12.65s-5.71,4.82-5.71,12.65v10.34c0,5.78,1.02,9.72,5.86,9.72"/>
        <path class="cls-2" d="M168.86,133.26c-7.97,0-10.82-4.97-10.82-16.33v-10.34c0-9.32,2.11-15.65,10.68-15.65s10.55,6.33,10.55,15.65v10.34c0,11.37-2.45,16.33-10.41,16.33M168.86,128.62c4.83,0,5.44-3.94,5.44-9.72v-10.34c0-7.83-.13-12.65-5.58-12.65s-5.71,4.82-5.71,12.65v10.34c0,5.78,1.02,9.72,5.86,9.72"/>
        <polygon class="cls-2" points="204.94 130.3 204.94 132.58 193.72 132.58 193.72 130.3 196.78 128.16 196.78 82.81 193.72 80.67 193.72 78.39 201.88 78.39 201.88 128.16 204.94 130.3"/>
        <polygon class="cls-2" points="43.01 0 43.01 11.57 29.82 11.57 29.82 63.74 13.06 63.74 13.06 11.57 0 11.57 0 0 43.01 0"/>
        <polygon class="cls-2" points="109.83 .53 109.83 3.02 104.12 3.02 87.54 43.9 87.54 61.84 92.07 61.84 92.07 64.33 71.92 64.33 71.92 61.84 76.45 61.84 76.45 43.9 57.65 3.02 52.3 3.02 52.3 2.19 52.3 .53 74.48 .53 74.74 3.02 69.16 3.02 80.75 30.89 81.62 40.37 82.16 40.37 82.91 30.89 92.82 3.02 87.23 3.02 87.49 .53 109.83 .53"/>
        <path class="cls-2" d="M162.66,21.31c-.3,15.24-8.05,20.57-17.1,22.48-5.4,1.14-9.74-.62-9.74-.62v10.32c0,3.43,1.12,4.94,4.14,4.94h5.13v5.9h-26.22l.1-3.52s7.59,2.2,7.59.28V5.89s-3.73,1.21-5.78.27c-2.43-1.11-1.51-6.17-1.51-6.17h23.22c11.32,0,20.45,7.19,20.17,21.31M151.83,20.18c.12-12.01-5.69-15.14-11.95-15.06-1.59.02-4.07.46-4.07.46v29.67s4.65,5.23,7.47,5.06c6.86-.41,8.42-7.59,8.55-20.13"/>
        <path class="cls-2" d="M208.5,12.69h-4.66l-.95-6.8h-9.56v52.54h12.04s-4.66-5.86-1.1-9.81c1.8-1.99,4.68-1.07,4.68-1.07l.6,16.78h-36.01v-2.31l6.38-1.51V5.89l-7.92-2.14V0h37.55l-1.05,12.69Z"/>
        <path class="cls-2" d="M208.36,32.2c.83,2.4-.44,5.17-3.07,5.68-1.81.35-4.11-.18-5.03-2.33-3.54-8.26-7.61,3.9-9.49,1.41-.97-1.29,5.39-6.97,9.89-8.09,3.43-.85,6.67.36,7.7,3.33"/>
      </g>
      <text class="cls-1" transform="translate(27.77 191.28)"><tspan x="0" y="0">since 2017</tspan></text>
    </g>
  </g>
</svg>